<?xml version="1.0" encoding="utf-8"?>
<!-- Generator: Adobe Illustrator 21.0.2, SVG Export Plug-In . SVG Version: 6.00 Build 0)  -->
<svg version="1.1" id="Layer_1" xmlns="http://www.w3.org/2000/svg" xmlns:xlink="http://www.w3.org/1999/xlink" x="0px" y="0px"
	 width="920px" height="937.1px" viewBox="0 0 920 937.1" style="enable-background:new 0 0 920 937.1;" xml:space="preserve">
<style type="text/css">
	.st0{fill:#383838;}
	.st1{fill:url(#SVGID_1_);}
	.st2{fill:#3A3A3A;}
	.st3{fill:#0A0A0A;}
	.st4{fill:#58595B;}
	.st5{fill:#808285;}
	.st6{fill:#2B2B2B;}
	.st7{fill:#111111;}
	.st8{fill:url(#SVGID_2_);}
	.st9{fill:url(#SVGID_3_);}
	.st10{fill:url(#SVGID_4_);}
	.st11{fill:#2D2D2D;}
	.st12{fill:none;stroke:#2D2D2D;stroke-width:2;stroke-miterlimit:10;}
	.st13{fill:url(#SVGID_5_);}
	.st14{fill:#414042;}
	.st15{display:none;fill:#FFFFFF;stroke:#231F20;stroke-miterlimit:10;}
	.st16{fill:#262626;}
	.st17{fill:#212121;}
	.st18{fill:url(#SVGID_6_);}
	.st19{fill:#231F20;}
	.st20{fill:url(#SVGID_7_);}
	.st21{fill:#1E1E1E;}
</style>
<symbol  id="New_Symbol" viewBox="-72.8 -83.7 146.5 165.2">
	<path class="st0" d="M-62.3,80.5l-9.6-8.8c-0.6-0.5-0.9-1.3-0.9-2.1v-2.9c0-0.5,0.2-1,0.5-1.5L20.8-55.7c0.3-0.4,0.7-0.8,1.2-1.1
		l35.9-24.7l4.5,9.1c0,0,9.7,1.9,9.7,1.9c-2.1,2.8-4.4,5.5-6.2,8.4c-1.4,2.2-2.3,5-3,7.5c-2.4,8.9-2.2,19.3-4.7,25.6
		c-0.7,1.8-4.7,6-4.7,6L-54.1,79.7c-0.5,0.5-0.9,0.6-2,1l-2.7,0.8C-60.2,81.7-61.4,81.3-62.3,80.5z"/>
	<linearGradient id="SVGID_1_" gradientUnits="userSpaceOnUse" x1="-15.9178" y1="-13.3231" x2="13.9043" y2="16.4991">
		<stop  offset="0" style="stop-color:#58595B"/>
		<stop  offset="7.346612e-02" style="stop-color:#4E4E4F"/>
		<stop  offset="0.2435" style="stop-color:#3B393A"/>
		<stop  offset="0.4336" style="stop-color:#2D2A2B"/>
		<stop  offset="0.6576" style="stop-color:#252223"/>
		<stop  offset="1" style="stop-color:#231F20"/>
	</linearGradient>
	<path class="st1" d="M65.8-62.1c-1.4,2.2-2.3,5-3,7.5c-2.4,8.9-2.2,19.3-4.7,25.6c-0.7,1.8-4.7,6-4.7,6L-54.1,79.7
		c-0.5,0.5-0.9,0.6-2,1l-2.7,0.8c-1.3,0.3-2.5,0-3.4-0.9l-8.9-8.1v-2.7c0-0.5,0.2-1,0.5-1.5c0.6-0.7,1.1-1.5,1.7-2.2
		c1.6-2,3.1-4.1,4.7-6.1c2.4-3.1,4.8-6.2,7.2-9.3c3-3.9,6-7.8,9-11.7c3.4-4.5,6.9-8.9,10.3-13.4c3.7-4.8,7.3-9.5,11-14.3
		c3.7-4.8,7.4-9.7,11.2-14.5c3.6-4.6,7.1-9.3,10.7-13.9c3.2-4.2,6.5-8.4,9.7-12.6c2.7-3.5,5.4-7,8.1-10.5c1.7-2.2,3.5-4.4,5.3-6.5
		c1.7-2,3.3-4.2,5.3-6c2.2-2.1,4.1-4,6.6-5.6c2.6-1.8,5.3-3.5,7.9-5.3c5.2-3.6,10.4-7.1,15.6-10.7c0.3-0.2,5.8-3.8,5.8-4
		c0,0,2.9,6,2.9,6s0.2,0,0.2,0l1.5,3c0,0,3.4,0.7,6.2,1.2C68.7-66.1,67.1-64.2,65.8-62.1z"/>
	<path class="st2" d="M63.6-75c2.4,2.1,5.9,2.5,9.6,1.3c0.3-0.1,0.6,0.3,0.5,0.6c-1,1.7-2.2,3.5-3.7,5.2c-6.1,6.9-14.1,9.8-17.9,6.5
		S50.3-73,56.4-79.9c1.2-1.4,2.6-2.6,3.9-3.7c0.3-0.2,0.7,0,0.6,0.4C60.6-79.9,61.4-76.9,63.6-75z"/>
	<path class="st3" d="M57.1-80.1c-5.9,6.6-7.7,14.6-4.1,17.8c3.6,3.2,11.3,0.4,17.1-6.2c1.4-1.6,2.6-3.3,3.5-4.9
		c0.1,0.1,0.1,0.3,0,0.4c-1,1.7-2.2,3.5-3.7,5.2c-6.1,6.9-14.1,9.8-17.9,6.5S50.3-73,56.4-79.9c1.2-1.4,2.6-2.6,3.9-3.7
		c0.2-0.1,0.4-0.1,0.5,0C59.5-82.6,58.3-81.4,57.1-80.1z"/>
	<path class="st4" d="M73.5-72.8c-0.9,1.7-2.1,3.3-3.5,4.9c-0.3,0.3-0.6,0.7-0.9,1C63.2-61.2,56.2-59,52.7-62
		C49-65.4,50.9-73.7,57-80.6c0.3-0.3,0.6-0.6,0.8-0.9c0.8-0.8,1.6-1.5,2.4-2.1c0.1-0.1,0.3-0.1,0.4,0c-0.7,0.6-1.5,1.3-2.2,2.1
		c-0.5,0.5-1,1-1.4,1.5c-5.9,6.6-7.7,14.6-4.1,17.8c3.4,3,10.5,0.6,16.3-5.3c0.5-0.5,1-1,1.5-1.6C71.8-70.4,72.7-71.6,73.5-72.8z"/>
	<path class="st5" d="M57.1-80.1c-1.2,1.3-2.2,2.7-3.2,4.2c-0.8,1.3-1.5,2.7-2.1,4.2c-0.5,1.2-0.8,2.5-0.9,3.9
		c-0.1,1.1,0,2.2,0.4,3.3c0.4,0.9,1,1.8,1.7,2.5c0.1,0.1,0.2,0.2,0.3,0.3c0.1,0.1,0.1,0.1,0.2,0.2c0.1,0.1,0.1,0.1,0.2,0.2
		c-0.1,0-0.1-0.1-0.2-0.1c-0.1,0-0.1-0.1-0.2-0.1c-0.2-0.1-0.4-0.3-0.6-0.4C49-65.4,50.9-73.7,57-80.6c0.3-0.3,0.6-0.6,0.8-0.9
		c0.8-0.8,1.6-1.5,2.4-2.1c0.1-0.1,0.3-0.1,0.4,0c-0.7,0.6-1.5,1.3-2.2,2.1C58.1-81.1,57.6-80.6,57.1-80.1z"/>
</symbol>
<symbol  id="New_Symbol_1" viewBox="-21.3 -22.8 42.6 45.5">
	<path class="st6" d="M20.3-9.2L20.3-9.2L16.1,4.4l0,0c-1.5,5.2-5.4,9.4-10.4,11.2l0,0l-13.1,5.8v0c-3.9,2-8.2,1.9-11-0.6
		c-2.5-2.2-3.3-5.7-2.5-9.3l0,0l0-0.1c0.1-0.6,0.3-1.1,0.5-1.7l3.9-13.5c0.2-0.7,0.4-1.4,0.6-2.1l0.1-0.3l0,0c1.5-3.9,4.3-7.1,8-9
		l0,0l0.1-0.1c0.9-0.4,1.8-0.8,2.7-1.1l12.2-5c0.8-0.4,1.7-0.8,2.6-1l0.3-0.1l0,0c3.1-0.8,6.2-0.3,8.4,1.6
		C21.5-18.2,22.1-13.6,20.3-9.2z"/>
</symbol>
<symbol  id="New_Symbol_2" viewBox="-20.8 -22.6 41.7 45.2">
	<path class="st2" d="M17.7-6.7c-0.8,1-1.8,1.8-2.8,2.4c-0.4,0.3-0.8,0.6-1.2,0.9c-0.8,0.6-1.6,1.2-2.4,1.8c-0.7,0.5-1.3,1-2,1.5
		C9.2,0.1,9,0.3,8.8,0.5C8.4,0.9,8,1.3,7.7,1.8c-0.6,0.7-1.2,1.4-1.8,2c-0.7,0.8-1.3,1.5-2,2.3c-0.6,0.7-1.2,1.4-1.8,2
		C1.8,8.6,1.4,9,1,9.4C1,9.5,1,9.5,0.9,9.6c-0.2,0.3-0.4,0.5-0.6,0.8l-3.3,5.9l0,0c-0.4,0.7-0.8,1.3-1.3,1.9
		c-4,4.6-10.2,5.8-13.9,2.6c-3.7-3.2-3.5-9.5,0.5-14.2c1.2-1.3,2.3-2.1,3.8-3.2L-9,0c0.5-0.3,0.9-0.7,1.3-1.1l6.1-7
		c0.4-0.5,0.8-1,1.1-1.5c0,0,2.9-5.5,2.9-5.5c0.5-1.1,1.1-2.1,2-3.1c4-4.6,10.2-5.8,13.9-2.6C21.9-17.6,21.7-11.3,17.7-6.7z"/>
	<path class="st7" d="M17.7-6.7c-0.8,1-1.8,1.8-2.8,2.4c-0.4,0.3-0.8,0.6-1.2,0.9c-0.8,0.6-1.6,1.2-2.4,1.8c-0.7,0.5-1.3,1-2,1.5
		C9.2,0.1,9,0.3,8.8,0.5C8.4,0.9,8,1.3,7.7,1.8c-0.6,0.7-1.2,1.4-1.8,2c-0.7,0.8-1.3,1.5-2,2.3c-0.6,0.7-1.2,1.4-1.8,2
		C1.8,8.6,1.4,9,1,9.4C1,9.5,1,9.5,0.9,9.6c-0.2,0.3-0.4,0.5-0.6,0.8l-3.3,5.9l0,0c-0.4,0.7-0.8,1.3-1.3,1.9
		c-3.3,3.8-8,5.3-11.7,3.9c3.5,0.8,7.7-0.7,10.7-4.2c0.5-0.6,0.9-1.2,1.3-1.9l0,0l3.3-5.9c0.2-0.3,0.4-0.6,0.6-0.8
		C0,9.2,0,9.2,0.1,9.1c0.4-0.4,0.7-0.8,1.1-1.2c0.6-0.7,1.2-1.4,1.8-2c0.7-0.8,1.3-1.5,2-2.3c0.6-0.7,1.2-1.4,1.8-2
		c0.4-0.4,0.7-0.9,1.2-1.3C8,0,8.2-0.2,8.4-0.3c0.7-0.5,1.3-1,2-1.5C11.2-2.4,12-3,12.8-3.6c0.4-0.3,0.8-0.6,1.2-0.9
		c1-0.7,1.9-1.5,2.8-2.4c4-4.6,4.2-11,0.5-14.2c-0.7-0.6-1.4-1-2.2-1.3c1.2,0.3,2.3,0.8,3.2,1.6C21.9-17.6,21.7-11.3,17.7-6.7z"/>
	<g>
		<radialGradient id="SVGID_2_" cx="-12.7195" cy="14.3382" r="4.3622" gradientUnits="userSpaceOnUse">
			<stop  offset="0" style="stop-color:#58595B"/>
			<stop  offset="1" style="stop-color:#231F20"/>
		</radialGradient>
		<circle class="st8" cx="-12.7" cy="14.3" r="4.4"/>
		<path class="st7" d="M-12.7,18.2c2.1,0,3.9-1.7,3.9-3.9c0-2.1-1.7-3.9-3.9-3.9c-2.1,0-3.9,1.7-3.9,3.9
			C-16.6,16.5-14.9,18.2-12.7,18.2 M-12.7,19.2c-2.7,0-4.9-2.2-4.9-4.9c0-2.7,2.2-4.9,4.9-4.9c2.7,0,4.9,2.2,4.9,4.9
			C-7.9,17-10,19.2-12.7,19.2L-12.7,19.2z"/>
	</g>
	<g>
		<radialGradient id="SVGID_3_" cx="13.1165" cy="-15.392" r="4.3622" gradientUnits="userSpaceOnUse">
			<stop  offset="0" style="stop-color:#58595B"/>
			<stop  offset="1" style="stop-color:#231F20"/>
		</radialGradient>
		<circle class="st9" cx="13.1" cy="-15.4" r="4.4"/>
		<path class="st7" d="M13.1-11.5c2.1,0,3.9-1.7,3.9-3.9c0-2.1-1.7-3.9-3.9-3.9c-2.1,0-3.9,1.7-3.9,3.9C9.3-13.3,11-11.5,13.1-11.5
			 M13.1-10.5c-2.7,0-4.9-2.2-4.9-4.9s2.2-4.9,4.9-4.9c2.7,0,4.9,2.2,4.9,4.9S15.8-10.5,13.1-10.5L13.1-10.5z"/>
	</g>
	<g>
		<radialGradient id="SVGID_4_" cx="0.632" cy="-0.6902" r="3.3138" gradientUnits="userSpaceOnUse">
			<stop  offset="0" style="stop-color:#58595B"/>
			<stop  offset="1" style="stop-color:#231F20"/>
		</radialGradient>
		<circle class="st10" cx="0.6" cy="-0.7" r="3.3"/>
		<path class="st7" d="M0.6,2.1c1.6,0,2.8-1.3,2.8-2.8c0-1.6-1.3-2.8-2.8-2.8c-1.6,0-2.8,1.3-2.8,2.8C-2.2,0.9-0.9,2.1,0.6,2.1
			 M0.6,3.1c-2.1,0-3.8-1.7-3.8-3.8c0-2.1,1.7-3.8,3.8-3.8c2.1,0,3.8,1.7,3.8,3.8C4.4,1.4,2.7,3.1,0.6,3.1L0.6,3.1z"/>
	</g>
</symbol>
<symbol  id="New_Symbol_3" viewBox="-24.7 -24.7 49.4 49.4">
	<g>
		<circle class="st11" cx="0" cy="0" r="24.7"/>
	</g>
	<g>
		<circle class="st7" cx="0" cy="0" r="22.4"/>
	</g>
	<line class="st12" x1="0" y1="22.4" x2="0" y2="-22.4"/>
	<line class="st12" x1="22.4" y1="0" x2="-22.4" y2="0"/>
	<line class="st12" x1="-16.6" y1="16.2" x2="16.3" y2="-16.6"/>
	<line class="st12" x1="-16.6" y1="-16.6" x2="16.3" y2="16.2"/>
</symbol>
<symbol  id="New_Symbol_4" viewBox="-2.3 -2.3 5.9 5.9">
	<g>
		<linearGradient id="SVGID_5_" gradientUnits="userSpaceOnUse" x1="-1.4006" y1="2.7836" x2="2.7835" y2="-1.4006">
			<stop  offset="0" style="stop-color:#808285"/>
			<stop  offset="0.6215" style="stop-color:#646568"/>
			<stop  offset="1" style="stop-color:#58595B"/>
		</linearGradient>
		<circle class="st13" cx="0.7" cy="0.7" r="3"/>
	</g>
</symbol>
<symbol  id="New_Symbol_5" viewBox="-99.5 -76.8 228.7 176.9">
	<polygon class="st0" points="-88.1,-58.5 -99.5,-39.8 91.2,76.8 99.5,63.2 	"/>
	<path class="st14" d="M-97.6-35.3l9,5c0.7,0.4,1.4,0.5,2.2,0.3l33.9-8.8c0.6-0.1,0.6-0.9,0.1-1.2l-18.9-8.8
		c-1.9-0.9-3.6-2.2-4.9-3.9l-19.3-24.2L-97.6-35.3z"/>
	<circle class="st0" cx="107.4" cy="78.3" r="21.8"/>
</symbol>
<symbol  id="New_Symbol_6" viewBox="-126.6 -80.7 253.2 161.3">
	<g id="New_Symbol_5_1_">
	</g>
	<g>
		<g>
			<polygon class="st0" points="-103.4,57.7 -117.8,27.8 88.5,-59 95.4,-44.6 			"/>
			
				<ellipse transform="matrix(0.995 -9.987076e-02 9.987076e-02 0.995 6.4025 10.1716)" class="st0" cx="104.8" cy="-58.9" rx="21.8" ry="21.8"/>
		</g>
		<path class="st14" d="M-126.6,19.6l8.7-4.5c2.1-1.1,4.7-0.4,6,1.6l6,6.9c0.7,1,1.1,2.2,1.3,3.4l7.4,28.8c0.3,2.2-0.6,4.4-2.4,5.8
			l-26.7,19.2L-126.6,19.6z"/>
	</g>
</symbol>
<rect x="-501.1" y="-421.5" class="st15" width="2333.9" height="1730.5"/>
<g id="Drone_vector_-__x3C_Group_x3E__11_">
	
		<use xlink:href="#New_Symbol_6"  width="253.2" height="161.3" x="-126.6" y="-80.7" transform="matrix(0.8208 -0.5712 -0.5712 -0.8208 710.8605 503.4816)" style="overflow:visible;"/>
	
		<use xlink:href="#New_Symbol_6"  width="253.2" height="161.3" x="-126.6" y="-80.7" transform="matrix(-0.8208 0.5712 -0.5712 -0.8208 404.8525 717.1912)" style="overflow:visible;"/>
	
		<use xlink:href="#New_Symbol_5"  width="228.7" height="176.9" id="XMLID_110_" x="-99.5" y="-76.8" transform="matrix(0.8208 -0.5712 -0.5712 -0.8208 525.0609 241.2965)" style="overflow:visible;"/>
	
		<use xlink:href="#New_Symbol_5"  width="228.7" height="176.9" x="-99.5" y="-76.8" transform="matrix(-0.8208 0.5712 -0.5712 -0.8208 224.18 450.6725)" style="overflow:visible;"/>
	<g>
		
			<use xlink:href="#New_Symbol_3"  width="49.4" height="49.4" id="XMLID_109_" x="-24.7" y="-24.7" transform="matrix(0.8208 -0.5712 -0.5712 -0.8208 836.2981 492.4365)" style="overflow:visible;"/>
		
			<use xlink:href="#New_Symbol"  width="146.5" height="165.2" x="-72.8" y="-83.7" transform="matrix(-0.8362 0.5484 -0.5484 -0.8362 852.0151 368.4834)" style="overflow:visible;"/>
		
			<use xlink:href="#New_Symbol"  width="146.5" height="165.2" x="-72.8" y="-83.7" transform="matrix(0.8407 -0.5415 0.5415 0.8407 819.961 618.004)" style="overflow:visible;"/>
		
			<use xlink:href="#New_Symbol_1"  width="42.6" height="45.5" x="-21.3" y="-22.8" transform="matrix(-0.8208 0.5712 -0.5712 -0.8208 836.3325 493.396)" style="overflow:visible;"/>
		
			<use xlink:href="#New_Symbol_2"  width="41.7" height="45.2" x="-20.8" y="-22.6" transform="matrix(0.8208 -0.5712 0.5712 0.8208 836.4465 493.1024)" style="overflow:visible;"/>
	</g>
	<g>
		
			<use xlink:href="#New_Symbol_3"  width="49.4" height="49.4" id="XMLID_108_" x="-24.7" y="-24.7" transform="matrix(0.8208 -0.5712 -0.5712 -0.8208 350.438 830.8973)" style="overflow:visible;"/>
		
			<use xlink:href="#New_Symbol"  width="146.5" height="165.2" id="XMLID_107_" x="-72.8" y="-83.7" transform="matrix(0.8208 -0.5712 -0.5712 -0.8208 228.047 798.5938)" style="overflow:visible;"/>
		
			<use xlink:href="#New_Symbol"  width="146.5" height="165.2" x="-72.8" y="-83.7" transform="matrix(-0.8107 0.5854 0.5854 0.8107 472.1678 860.1329)" style="overflow:visible;"/>
		
			<use xlink:href="#New_Symbol_1"  width="42.6" height="45.5" x="-21.3" y="-22.8" transform="matrix(0.8208 -0.5712 -0.5712 -0.8208 350.0437 830.3307)" style="overflow:visible;"/>
		
			<use xlink:href="#New_Symbol_2"  width="41.7" height="45.2" x="-20.8" y="-22.6" transform="matrix(0.8208 -0.5712 -0.5712 -0.8208 350.0437 830.3307)" style="overflow:visible;"/>
	</g>
	<path class="st11" d="M366.7,251.4l55.1,20l72.7,91.4l-4.6,29.5c20.1,28.8,39.8,57.8,59.3,87c7.1,10.6,14.2,21.2,20.9,32
		c13.4,21.6,26.3,43.7,35,67.7l-9.8,21.5L366.7,251.4z"/>
	<path class="st11" d="M288.9,305.5l-0.4,58.6l60.5,100l29.3,5.9c20.1,28.8,40.4,57.4,61,85.9c7.5,10.3,15,20.7,22.8,30.7
		c15.6,20.1,31.8,39.8,51.3,56.3l23.5-1.7L288.9,305.5z"/>
	<g>
		
			<use xlink:href="#New_Symbol_3"  width="49.4" height="49.4" id="XMLID_106_" x="-24.7" y="-24.7" transform="matrix(0.8208 -0.5712 -0.5712 -0.8208 84.9003 446.4842)" style="overflow:visible;"/>
		
			<use xlink:href="#New_Symbol"  width="146.5" height="165.2" x="-72.8" y="-83.7" transform="matrix(-0.8362 0.5484 -0.5484 -0.8362 100.8178 322.5321)" style="overflow:visible;"/>
		
			<use xlink:href="#New_Symbol"  width="146.5" height="165.2" x="-72.8" y="-83.7" transform="matrix(0.8407 -0.5415 0.5415 0.8407 68.7637 572.0526)" style="overflow:visible;"/>
		
			<use xlink:href="#New_Symbol_1"  width="42.6" height="45.5" x="-21.3" y="-22.8" transform="matrix(-0.8208 0.5712 -0.5712 -0.8208 85.1352 447.4446)" style="overflow:visible;"/>
		
			<use xlink:href="#New_Symbol_2"  width="41.7" height="45.2" x="-20.8" y="-22.6" transform="matrix(0.8208 -0.5712 0.5712 0.8208 84.8205 447.2048)" style="overflow:visible;"/>
	</g>
	<g>
		<polygon class="st16" points="378.2,470.1 365.4,410.5 349,464.1 		"/>
		<polygon class="st17" points="366.9,417.5 365.4,410.5 349,464.1 356.9,465.7 		"/>
	</g>
	<g>
		<polygon class="st16" points="490.3,392.1 439,359.4 495,362.5 		"/>
		<polygon class="st17" points="444.9,363.2 439,359.4 495,362.5 493.7,370.5 		"/>
	</g>
	
		<radialGradient id="SVGID_6_" cx="1075.536" cy="-2487.5769" r="153.2196" gradientTransform="matrix(0.8208 -0.5712 0.5712 0.8208 984.4801 3105.667)" gradientUnits="userSpaceOnUse">
		<stop  offset="0" style="stop-color:#414042"/>
		<stop  offset="0.3398" style="stop-color:#39383A"/>
		<stop  offset="1" style="stop-color:#2D2D2D"/>
	</radialGradient>
	<path class="st18" d="M595.4,600.6c0,0-1.8,4-28.9,22.9c-27.1,18.9-30.5,18.4-30.5,18.4S408.3,475.3,367.2,418.6
		c-20.2-27.8-78.5-112.9-78.5-112.9s8.7-10,38.7-30.9c31.3-21.8,39.4-23.5,39.4-23.5s58.4,85.2,77.4,113.9
		C482.7,423.6,595.4,600.6,595.4,600.6z"/>
	<path class="st19" d="M327.3,274.9c-30,20.8-38.7,30.9-38.7,30.9s58.4,85.1,78.5,112.9C408.3,475.3,536,641.9,536,641.9
		s3.4,0.4,30.5-18.4c27.1-18.9,28.9-22.9,28.9-22.9S482.7,423.6,444.2,365.3c-19-28.7-77.4-113.9-77.4-113.9
		S358.6,253.1,327.3,274.9z M441.3,367.2c36.9,55.7,144.8,224.7,144.8,224.7s-1.6,3.8-26.7,21.3c-25.1,17.5-28.3,17-28.3,17
		S409.3,470.8,370.1,416.6C350.8,390,295,308.7,295,308.7s8-9.3,35.7-28.6c29-20.2,36.6-21.7,36.6-21.7S423.2,339.8,441.3,367.2z"/>
	<path class="st14" d="M444.2,365.3c-19-28.7-77.4-113.9-77.4-113.9s-8.1,1.7-39.4,23.5c-22.6,15.7-33.1,25.3-36.9,29
		c5.1-4.7,15.5-13.6,34.6-26.9c31.3-21.8,39.4-23.5,39.4-23.5s58.4,85.2,77.4,113.9c0.8,1.2,1.7,2.5,2.5,3.9l75.4,110.9
		C490.8,437,460.7,390.3,444.2,365.3z"/>
	<path class="st14" d="M459.4,537.2c-34.4-45.3-71.1-93.9-89.8-119.7C349.4,389.7,291,304.7,291,304.7s8.7-10,38.7-30.9
		c19-13.2,29.5-19,34.7-21.6c-4.2,1.7-14.7,7-37.1,22.7c-30,20.8-38.7,30.9-38.7,30.9s58.4,85.1,78.5,112.9
		c26.5,36.6,89.2,119,130.3,172.9L459.4,537.2z"/>
	<g>
		
			<linearGradient id="SVGID_7_" gradientUnits="userSpaceOnUse" x1="1067.2516" y1="-2503.158" x2="1085.9918" y2="-2484.4177" gradientTransform="matrix(0.8208 -0.5712 0.5712 0.8208 984.4801 3105.667)">
			<stop  offset="0" style="stop-color:#414042"/>
			<stop  offset="0.3398" style="stop-color:#39383A"/>
			<stop  offset="1" style="stop-color:#2D2D2D"/>
		</linearGradient>
		<path class="st20" d="M443.8,457c-4.3,0-8.4-2.1-10.9-5.7c-2-2.9-2.8-6.4-2.2-9.9c0.6-3.5,2.6-6.5,5.5-8.5
			c2.2-1.6,4.8-2.4,7.6-2.4c4.3,0,8.4,2.1,10.9,5.7c4.2,6,2.7,14.3-3.3,18.5C449.1,456.2,446.5,457,443.8,457z"/>
		<path class="st21" d="M443.8,431.5c3.9,0,7.7,1.8,10.1,5.3c3.9,5.6,2.5,13.2-3.1,17.1c-2.1,1.5-4.6,2.2-7,2.2
			c-3.9,0-7.7-1.8-10.1-5.3c-3.9-5.6-2.5-13.2,3.1-17.1C438.9,432.2,441.3,431.5,443.8,431.5 M443.8,429.5L443.8,429.5
			c-2.9,0-5.7,0.9-8.1,2.6c-6.5,4.5-8,13.4-3.6,19.8c2.7,3.8,7,6.1,11.7,6.1c2.9,0,5.7-0.9,8.1-2.6c6.5-4.5,8-13.4,3.6-19.8
			C452.8,431.8,448.4,429.5,443.8,429.5L443.8,429.5z"/>
	</g>
	
		<use xlink:href="#New_Symbol_4"  width="5.9" height="5.9" id="XMLID_105_" x="-2.3" y="-2.3" transform="matrix(0.8208 -0.5712 -0.5712 -0.8208 458.7168 465.2433)" style="overflow:visible;"/>
	
		<use xlink:href="#New_Symbol_4"  width="5.9" height="5.9" x="-2.3" y="-2.3" transform="matrix(0.8208 -0.5712 -0.5712 -0.8208 465.7862 475.4023)" style="overflow:visible;"/>
	
		<use xlink:href="#New_Symbol_4"  width="5.9" height="5.9" x="-2.3" y="-2.3" transform="matrix(0.8208 -0.5712 -0.5712 -0.8208 472.8556 485.5613)" style="overflow:visible;"/>
	
		<use xlink:href="#New_Symbol_4"  width="5.9" height="5.9" x="-2.3" y="-2.3" transform="matrix(0.8208 -0.5712 -0.5712 -0.8208 479.925 495.7203)" style="overflow:visible;"/>
	<g>
		
			<use xlink:href="#New_Symbol_3"  width="49.4" height="49.4" id="XMLID_104_" x="-24.7" y="-24.7" transform="matrix(0.8208 -0.5712 -0.5712 -0.8208 571.0049 110.6828)" style="overflow:visible;"/>
		
			<use xlink:href="#New_Symbol"  width="146.5" height="165.2" id="XMLID_103_" x="-72.8" y="-83.7" transform="matrix(0.8208 -0.5712 -0.5712 -0.8208 448.8395 78.5798)" style="overflow:visible;"/>
		
			<use xlink:href="#New_Symbol"  width="146.5" height="165.2" x="-72.8" y="-83.7" transform="matrix(-0.8107 0.5854 0.5854 0.8107 692.9603 140.1188)" style="overflow:visible;"/>
		
			<use xlink:href="#New_Symbol_1"  width="42.6" height="45.5" id="XMLID_102_" x="-21.3" y="-22.8" transform="matrix(0.8208 -0.5712 -0.5712 -0.8208 570.8362 110.3167)" style="overflow:visible;"/>
		
			<use xlink:href="#New_Symbol_2"  width="41.7" height="45.2" id="XMLID_101_" x="-20.8" y="-22.6" transform="matrix(0.8208 -0.5712 -0.5712 -0.8208 570.6107 110.1162)" style="overflow:visible;"/>
	</g>
</g>
</svg>
