<?xml version="1.0" encoding="utf-8"?><svg width="200" height="180" viewBox="0 0 200 180" xmlns="http://www.w3.org/2000/svg" xmlns:xlink="http://www.w3.org/1999/xlink"><svg id="drone" width="200" height="179.7" viewBox="0 0 200 179.7"><style>.ast0{fill:#383838}.ast1{fill:url(#aSVGID_1_)}.ast2{fill:#3a3a3a}.ast3{fill:#0a0a0a}.ast4{fill:#58595b}.ast5{fill:#808285}.ast6{fill:#2b2b2b}.ast7{fill:#111}.ast8{fill:url(#aSVGID_2_)}.ast9{fill:url(#aSVGID_3_)}.ast10{fill:url(#aSVGID_4_)}.ast11{fill:#2d2d2d}.ast12{fill:none;stroke:#2d2d2d;stroke-width:2;stroke-miterlimit:10}.ast13{fill:url(#aSVGID_5_)}.ast14{fill:#414042}.ast15{fill:#262626}.ast16{fill:#212121}.ast17{fill:url(#aSVGID_6_)}.ast18{fill:#231f20}.ast19{fill:url(#aSVGID_7_)}.ast20{fill:#1e1e1e}</style><symbol id="aNew_Symbol" viewBox="-72.8 -83.7 146.5 165.2"><path class="ast0" d="M-62.3 80.5l-9.6-8.8c-.6-.5-.9-1.3-.9-2.1v-2.9c0-.5.2-1 .5-1.5L20.8-55.7c.3-.4.7-.8 1.2-1.1l35.9-24.7 4.5 9.1 9.7 1.9c-2.1 2.8-4.4 5.5-6.2 8.4-1.4 2.2-2.3 5-3 7.5-2.4 8.9-2.2 19.3-4.7 25.6-.7 1.8-4.7 6-4.7 6L-54.1 79.7c-.5.5-.9.6-2 1l-2.7.8c-1.4.2-2.6-.2-3.5-1z"/><linearGradient id="aSVGID_1_" gradientUnits="userSpaceOnUse" x1="-15.918" y1="-13.323" x2="13.904" y2="16.499"><stop offset="0" stop-color="#58595b"/><stop offset=".073" stop-color="#4e4e4f"/><stop offset=".243" stop-color="#3b393a"/><stop offset=".434" stop-color="#2d2a2b"/><stop offset=".658" stop-color="#252223"/><stop offset="1" stop-color="#231f20"/></linearGradient><path class="ast1" d="M65.8-62.1c-1.4 2.2-2.3 5-3 7.5-2.4 8.9-2.2 19.3-4.7 25.6-.7 1.8-4.7 6-4.7 6L-54.1 79.7c-.5.5-.9.6-2 1l-2.7.8c-1.3.3-2.5 0-3.4-.9l-8.9-8.1v-2.7c0-.5.2-1 .5-1.5.6-.7 1.1-1.5 1.7-2.2 1.6-2 3.1-4.1 4.7-6.1l7.2-9.3 9-11.7c3.4-4.5 6.9-8.9 10.3-13.4 3.7-4.8 7.3-9.5 11-14.3 3.7-4.8 7.4-9.7 11.2-14.5 3.6-4.6 7.1-9.3 10.7-13.9 3.2-4.2 6.5-8.4 9.7-12.6L13-40.2c1.7-2.2 3.5-4.4 5.3-6.5 1.7-2 3.3-4.2 5.3-6 2.2-2.1 4.1-4 6.6-5.6 2.6-1.8 5.3-3.5 7.9-5.3 5.2-3.6 10.4-7.1 15.6-10.7.3-.2 5.8-3.8 5.8-4l2.9 6h.2l1.5 3s3.4.7 6.2 1.2c-1.6 2-3.2 3.9-4.5 6z"/><path class="ast2" d="M63.6-75c2.4 2.1 5.9 2.5 9.6 1.3.3-.1.6.3.5.6-1 1.7-2.2 3.5-3.7 5.2-6.1 6.9-14.1 9.8-17.9 6.5S50.3-73 56.4-79.9c1.2-1.4 2.6-2.6 3.9-3.7.3-.2.7 0 .6.4-.3 3.3.5 6.3 2.7 8.2z"/><path class="ast3" d="M57.1-80.1c-5.9 6.6-7.7 14.6-4.1 17.8 3.6 3.2 11.3.4 17.1-6.2 1.4-1.6 2.6-3.3 3.5-4.9.1.1.1.3 0 .4-1 1.7-2.2 3.5-3.7 5.2-6.1 6.9-14.1 9.8-17.9 6.5S50.3-73 56.4-79.9c1.2-1.4 2.6-2.6 3.9-3.7.2-.1.4-.1.5 0-1.3 1-2.5 2.2-3.7 3.5z"/><path class="ast4" d="M73.5-72.8c-.9 1.7-2.1 3.3-3.5 4.9-.3.3-.6.7-.9 1-5.9 5.7-12.9 7.9-16.4 4.9-3.7-3.4-1.8-11.7 4.3-18.6.3-.3.6-.6.8-.9.8-.8 1.6-1.5 2.4-2.1.1-.1.3-.1.4 0-.7.6-1.5 1.3-2.2 2.1-.5.5-1 1-1.4 1.5-5.9 6.6-7.7 14.6-4.1 17.8 3.4 3 10.5.6 16.3-5.3.5-.5 1-1 1.5-1.6 1.1-1.3 2-2.5 2.8-3.7z"/><path class="ast5" d="M57.1-80.1c-1.2 1.3-2.2 2.7-3.2 4.2-.8 1.3-1.5 2.7-2.1 4.2-.5 1.2-.8 2.5-.9 3.9-.1 1.1 0 2.2.4 3.3.4.9 1 1.8 1.7 2.5l.3.3.2.2.2.2c-.1 0-.1-.1-.2-.1s-.1-.1-.2-.1c-.2-.1-.4-.3-.6-.4-3.7-3.5-1.8-11.8 4.3-18.7.3-.3.6-.6.8-.9.8-.8 1.6-1.5 2.4-2.1.1-.1.3-.1.4 0-.7.6-1.5 1.3-2.2 2.1-.3.4-.8.9-1.3 1.4z"/></symbol><symbol id="aNew_Symbol_1" viewBox="-21.3 -22.8 42.6 45.5"><path class="ast6" d="M20.3-9.2L16.1 4.4c-1.5 5.2-5.4 9.4-10.4 11.2l-13.1 5.8c-3.9 2-8.2 1.9-11-.6-2.5-2.2-3.3-5.7-2.5-9.3v-.1c.1-.6.3-1.1.5-1.7l3.9-13.5.6-2.1.1-.3c1.5-3.9 4.3-7.1 8-9l.1-.1c.9-.4 1.8-.8 2.7-1.1l12.2-5c.8-.4 1.7-.8 2.6-1l.3-.1c3.1-.8 6.2-.3 8.4 1.6 3 2.7 3.6 7.3 1.8 11.7z"/></symbol><symbol id="aNew_Symbol_2" viewBox="-20.8 -22.6 41.7 45.2"><path class="ast2" d="M17.7-6.7c-.8 1-1.8 1.8-2.8 2.4l-1.2.9-2.4 1.8c-.7.5-1.3 1-2 1.5-.1.2-.3.4-.5.6-.4.4-.8.8-1.1 1.3-.6.7-1.2 1.4-1.8 2-.7.8-1.3 1.5-2 2.3-.6.7-1.2 1.4-1.8 2-.3.5-.7.9-1.1 1.3 0 .1 0 .1-.1.2-.2.3-.4.5-.6.8L-3 16.3c-.4.7-.8 1.3-1.3 1.9-4 4.6-10.2 5.8-13.9 2.6-3.7-3.2-3.5-9.5.5-14.2 1.2-1.3 2.3-2.1 3.8-3.2L-9 0c.5-.3.9-.7 1.3-1.1l6.1-7c.4-.5.8-1 1.1-1.5l2.9-5.5c.5-1.1 1.1-2.1 2-3.1 4-4.6 10.2-5.8 13.9-2.6 3.6 3.2 3.4 9.5-.6 14.1z"/><path class="ast7" d="M17.7-6.7c-.8 1-1.8 1.8-2.8 2.4l-1.2.9-2.4 1.8c-.7.5-1.3 1-2 1.5-.1.2-.3.4-.5.6-.4.4-.8.8-1.1 1.3-.6.7-1.2 1.4-1.8 2-.7.8-1.3 1.5-2 2.3-.6.7-1.2 1.4-1.8 2-.3.5-.7.9-1.1 1.3 0 .1 0 .1-.1.2-.2.3-.4.5-.6.8L-3 16.3c-.4.7-.8 1.3-1.3 1.9-3.3 3.8-8 5.3-11.7 3.9 3.5.8 7.7-.7 10.7-4.2.5-.6.9-1.2 1.3-1.9l3.3-5.9c.2-.3.4-.6.6-.8l.2-.2c.4-.4.7-.8 1.1-1.2.6-.7 1.2-1.4 1.8-2 .7-.8 1.3-1.5 2-2.3.6-.7 1.2-1.4 1.8-2 .4-.4.7-.9 1.2-1.3 0-.3.2-.5.4-.6.7-.5 1.3-1 2-1.5l2.4-1.8 1.2-.9c1-.7 1.9-1.5 2.8-2.4 4-4.6 4.2-11 .5-14.2-.7-.6-1.4-1-2.2-1.3 1.2.3 2.3.8 3.2 1.6 3.6 3.2 3.4 9.5-.6 14.1z"/><radialGradient id="aSVGID_2_" cx="-12.72" cy="14.338" r="4.362" gradientUnits="userSpaceOnUse"><stop offset="0" stop-color="#58595b"/><stop offset="1" stop-color="#231f20"/></radialGradient><circle class="ast8" cx="-12.7" cy="14.3" r="4.4"/><path class="ast7" d="M-12.7 18.2c2.1 0 3.9-1.7 3.9-3.9 0-2.1-1.7-3.9-3.9-3.9-2.1 0-3.9 1.7-3.9 3.9s1.7 3.9 3.9 3.9m0 1c-2.7 0-4.9-2.2-4.9-4.9s2.2-4.9 4.9-4.9 4.9 2.2 4.9 4.9c-.1 2.7-2.2 4.9-4.9 4.9z"/><radialGradient id="aSVGID_3_" cx="13.117" cy="-15.392" r="4.362" gradientUnits="userSpaceOnUse"><stop offset="0" stop-color="#58595b"/><stop offset="1" stop-color="#231f20"/></radialGradient><circle class="ast9" cx="13.1" cy="-15.4" r="4.4"/><path class="ast7" d="M13.1-11.5c2.1 0 3.9-1.7 3.9-3.9 0-2.1-1.7-3.9-3.9-3.9-2.1 0-3.9 1.7-3.9 3.9.1 2.1 1.8 3.9 3.9 3.9m0 1c-2.7 0-4.9-2.2-4.9-4.9s2.2-4.9 4.9-4.9 4.9 2.2 4.9 4.9-2.2 4.9-4.9 4.9z"/><g><radialGradient id="aSVGID_4_" cx=".632" cy="-.69" r="3.314" gradientUnits="userSpaceOnUse"><stop offset="0" stop-color="#58595b"/><stop offset="1" stop-color="#231f20"/></radialGradient><circle class="ast10" cx=".6" cy="-.7" r="3.3"/><path class="ast7" d="M.6 2.1C2.2 2.1 3.4.8 3.4-.7c0-1.6-1.3-2.8-2.8-2.8-1.6 0-2.8 1.3-2.8 2.8C-2.2.9-.9 2.1.6 2.1m0 1c-2.1 0-3.8-1.7-3.8-3.8 0-2.1 1.7-3.8 3.8-3.8 2.1 0 3.8 1.7 3.8 3.8 0 2.1-1.7 3.8-3.8 3.8z"/></g></symbol><symbol id="aNew_Symbol_3" viewBox="-24.7 -24.7 49.4 49.4"><circle class="ast11" r="24.7"/><circle class="ast7" r="22.4"/><path class="ast12" d="M0 22.4v-44.8M22.4 0h-44.8m5.8 16.2l32.9-32.8m-32.9 0l32.9 32.8"/></symbol><symbol id="aNew_Symbol_4" viewBox="-2.3 -2.3 5.9 5.9"><linearGradient id="aSVGID_5_" gradientUnits="userSpaceOnUse" x1="-1.401" y1="2.784" x2="2.784" y2="-1.401"><stop offset="0" stop-color="#808285"/><stop offset=".622" stop-color="#646568"/><stop offset="1" stop-color="#58595b"/></linearGradient><circle class="ast13" cx=".7" cy=".7" r="3"/></symbol><symbol id="aNew_Symbol_5" viewBox="-99.5 -76.8 228.7 176.9"><path class="ast0" d="M-88.1-58.5l-11.4 18.7L91.2 76.8l8.3-13.6z"/><path class="ast14" d="M-97.6-35.3l9 5c.7.4 1.4.5 2.2.3l33.9-8.8c.6-.1.6-.9.1-1.2l-18.9-8.8c-1.9-.9-3.6-2.2-4.9-3.9l-19.3-24.2-2.1 41.6z"/><circle class="ast0" cx="107.4" cy="78.3" r="21.8"/></symbol><symbol id="aNew_Symbol_6" viewBox="-126.6 -80.7 253.2 161.3"><path class="ast0" d="M-103.4 57.7l-14.4-29.9L88.5-59l6.9 14.4z"/><ellipse transform="rotate(-5.732 104.795 -58.861)" class="ast0" cx="104.8" cy="-58.9" rx="21.8" ry="21.8"/><path class="ast14" d="M-126.6 19.6l8.7-4.5c2.1-1.1 4.7-.4 6 1.6l6 6.9c.7 1 1.1 2.2 1.3 3.4l7.4 28.8c.3 2.2-.6 4.4-2.4 5.8l-26.7 19.2-.3-61.2z"/></symbol><use xlink:href="#aNew_Symbol_6" width="253.2" height="161.3" x="-126.6" y="-80.7" transform="matrix(.22 0 0 -.22 141.116 127.577)" overflow="visible"/><use xlink:href="#aNew_Symbol_6" width="253.2" height="161.3" x="-126.6" y="-80.7" transform="rotate(180 29.503 63.857) scale(.22)" overflow="visible"/><use xlink:href="#aNew_Symbol_5" width="228.7" height="176.9" id="aXMLID_20_" x="-99.5" y="-76.8" transform="matrix(.22 0 0 -.22 140.51 56.886)" overflow="visible"/><use xlink:href="#aNew_Symbol_5" width="228.7" height="176.9" x="-99.5" y="-76.8" transform="matrix(-.22 0 0 -.22 59.87 56.886)" overflow="visible"/><use xlink:href="#aNew_Symbol_3" width="49.4" height="49.4" id="aXMLID_19_" x="-24.7" y="-24.7" transform="matrix(.22 0 0 -.22 165.154 141.344)" overflow="visible"/><use xlink:href="#aNew_Symbol" width="146.5" height="165.2" x="-72.8" y="-83.7" transform="matrix(-.2199 -.00604 .00604 -.2199 183.568 120.937)" overflow="visible"/><use xlink:href="#aNew_Symbol" width="146.5" height="165.2" x="-72.8" y="-83.7" transform="rotate(2.044 -4461.672 4180.46) scale(.22004)" overflow="visible"/><use xlink:href="#aNew_Symbol_1" width="42.6" height="45.5" x="-21.3" y="-22.8" transform="rotate(180 82.52 70.76) scale(.22)" overflow="visible"/><use xlink:href="#aNew_Symbol_2" width="41.7" height="45.2" x="-20.8" y="-22.6" transform="matrix(.22 0 0 .22 165.098 141.483)" overflow="visible"/><use xlink:href="#aNew_Symbol_3" width="49.4" height="49.4" id="aXMLID_18_" x="-24.7" y="-24.7" transform="matrix(.22 0 0 -.22 34.892 141.41)" overflow="visible"/><use xlink:href="#aNew_Symbol" width="146.5" height="165.2" id="aXMLID_17_" x="-72.8" y="-83.7" transform="matrix(.22 0 0 -.22 16.85 120.197)" overflow="visible"/><use xlink:href="#aNew_Symbol" width="146.5" height="165.2" x="-72.8" y="-83.7" transform="matrix(-.22 .00383 .00383 .22 53.2 161.985)" overflow="visible"/><use xlink:href="#aNew_Symbol_1" width="42.6" height="45.5" x="-21.3" y="-22.8" transform="matrix(.22 0 0 -.22 34.892 141.258)" overflow="visible"/><use xlink:href="#aNew_Symbol_2" width="41.7" height="45.2" x="-20.8" y="-22.6" transform="matrix(.22 0 0 -.22 34.892 141.258)" overflow="visible"/><path class="ast11" d="M110.6 38.8l7.4 10.5 1.6 25.6-4.5 4.7c0 7.7-.1 15.4-.2 23.2-.1 2.8-.1 5.6-.3 8.4-.3 5.6-.7 11.2-2.2 16.6l-4.5 2.7 2.7-91.7zm-20.8 0l-7.4 10.5L80.7 75l4.5 4.7c0 7.7.1 15.4.2 23.2.1 2.8.1 5.6.3 8.4.3 5.6.7 11.2 2.2 16.6l4.5 2.7-2.6-91.8z"/><use xlink:href="#aNew_Symbol_3" width="49.4" height="49.4" id="aXMLID_16_" x="-24.7" y="-24.7" transform="matrix(.22 0 0 -.22 35.247 38.629)" overflow="visible"/><use xlink:href="#aNew_Symbol" width="146.5" height="165.2" x="-72.8" y="-83.7" transform="matrix(-.2199 -.00604 .00604 -.2199 53.696 18.246)" overflow="visible"/><use xlink:href="#aNew_Symbol" width="146.5" height="165.2" x="-72.8" y="-83.7" transform="rotate(2.044 -1651.332 493.065) scale(.22004)" overflow="visible"/><use xlink:href="#aNew_Symbol_1" width="42.6" height="45.5" x="-21.3" y="-22.8" transform="matrix(-.22 0 0 -.22 35.168 38.831)" overflow="visible"/><use xlink:href="#aNew_Symbol_2" width="41.7" height="45.2" x="-20.8" y="-22.6" transform="matrix(.22 0 0 .22 35.142 38.749)" overflow="visible"/><path class="ast15" d="M85.3 79.7l5.1-12.3-9.7 7.6z"/><path class="ast16" d="M89.8 68.8l.6-1.4-9.7 7.6 1.2 1.3z"/><path class="ast15" d="M115.3 79.7l-5.2-12.3 9.7 7.6z"/><path class="ast16" d="M110.7 68.8l-.6-1.4 9.7 7.6-1.2 1.3z"/><radialGradient id="aSVGID_6_" cx="100.151" cy="84.598" r="33.707" gradientUnits="userSpaceOnUse"><stop offset="0" stop-color="#414042"/><stop offset=".34" stop-color="#39383a"/><stop offset="1" stop-color="#2d2d2d"/></radialGradient><path class="ast17" d="M108.1 130.6s-.8.5-8.1.5-7.8-.5-7.8-.5-2.2-46.1-2.5-61.5c-.1-7.6 0-30.3 0-30.3s2.8-.7 10.9-.7c8.4 0 10.1.7 10.1.7s-.1 22.7-.3 30.3c-.4 15.4-2.3 61.5-2.3 61.5z"/><path class="ast18" d="M100.6 38.1c-8 0-10.9.7-10.9.7s-.1 22.7 0 30.3c.3 15.4 2.4 61.5 2.4 61.5s.6.5 7.8.5c7.3 0 8.1-.5 8.1-.5s1.9-46.1 2.3-61.5c.2-7.6.3-30.3.3-30.3s-1.6-.7-10-.7zm9 31c-.3 14.7-2.1 58.8-2.1 58.8s-.8.5-7.5.5-7.2-.5-7.2-.5-2-44.1-2.2-58.8c-.1-7.2 0-28.9 0-28.9s2.6-.7 10.1-.7c7.8 0 9.3.7 9.3.7l-.4 28.9z"/><path class="ast14" d="M110.3 69.1c.2-7.6.3-30.3.3-30.3s-1.7-.7-10.1-.7c-6 0-9.1.4-10.3.6 1.5-.2 4.5-.5 9.6-.5 8.4 0 10.1.7 10.1.7s-.1 22.7-.3 30.3v1l-.3 29.5c.4-11.8.9-24 1-30.6z"/><path class="ast14" d="M91.5 102.1c-.5-12.5-1-25.9-1.2-32.9-.1-7.6 0-30.3 0-30.3s2.8-.7 10.9-.7c5.1 0 7.7.3 9 .5-1-.2-3.5-.6-9.6-.6-8 0-10.9.7-10.9.7s-.1 22.7 0 30.3c.2 9.9 1.2 32.7 1.8 47.6v-14.6z"/><linearGradient id="aSVGID_7_" gradientUnits="userSpaceOnUse" x1="97.778" y1="80.62" x2="103.003" y2="85.844"><stop offset="0" stop-color="#414042"/><stop offset=".34" stop-color="#39383a"/><stop offset="1" stop-color="#2d2d2d"/></linearGradient><circle class="ast19" cx="100.4" cy="83.2" r="3.7"/><path class="ast20" d="M100.4 80.5c1.5 0 2.7 1.2 2.7 2.7 0 1.5-1.2 2.7-2.7 2.7s-2.7-1.2-2.7-2.7c0-1.5 1.2-2.7 2.7-2.7m0-2c-2.6 0-4.7 2.1-4.7 4.7s2.1 4.7 4.7 4.7 4.7-2.1 4.7-4.7-2.1-4.7-4.7-4.7z"/><use xlink:href="#aNew_Symbol_4" width="5.9" height="5.9" id="aXMLID_15_" x="-2.3" y="-2.3" transform="matrix(.22 0 0 -.22 100.39 88.988)" overflow="visible"/><use xlink:href="#aNew_Symbol_4" width="5.9" height="5.9" x="-2.3" y="-2.3" transform="matrix(.22 0 0 -.22 100.39 91.711)" overflow="visible"/><use xlink:href="#aNew_Symbol_4" width="5.9" height="5.9" x="-2.3" y="-2.3" transform="matrix(.22 0 0 -.22 100.39 94.434)" overflow="visible"/><use xlink:href="#aNew_Symbol_4" width="5.9" height="5.9" x="-2.3" y="-2.3" transform="matrix(.22 0 0 -.22 100.39 97.157)" overflow="visible"/><g><use xlink:href="#aNew_Symbol_3" width="49.4" height="49.4" id="aXMLID_14_" x="-24.7" y="-24.7" transform="matrix(.22 0 0 -.22 165.22 39.074)" overflow="visible"/><use xlink:href="#aNew_Symbol" width="146.5" height="165.2" id="aXMLID_7_" x="-72.8" y="-83.7" transform="matrix(.22 0 0 -.22 147.194 17.926)" overflow="visible"/><use xlink:href="#aNew_Symbol" width="146.5" height="165.2" x="-72.8" y="-83.7" transform="matrix(-.22 .00383 .00383 .22 183.542 59.714)" overflow="visible"/><use xlink:href="#aNew_Symbol_1" width="42.6" height="45.5" id="aXMLID_6_" x="-21.3" y="-22.8" transform="matrix(.22 0 0 -.22 165.235 38.987)" overflow="visible"/><use xlink:href="#aNew_Symbol_2" width="41.7" height="45.2" id="aXMLID_2_" x="-20.8" y="-22.6" transform="matrix(.22 0 0 -.22 165.22 38.922)" overflow="visible"/></g></svg></svg>