<?xml version="1.0" encoding="utf-8"?><svg width="200" height="444" viewBox="0 0 200 444" xmlns="http://www.w3.org/2000/svg" xmlns:xlink="http://www.w3.org/1999/xlink"><svg viewBox="7914 580 44.003 44" width="44.003" height="44" id="chrome"><defs><style>.acls-1{fill:#00aded}</style></defs><g id="a_004-chrome" data-name="004-chrome" transform="translate(7914 579.988)"><path id="aXMLID_17_" class="acls-1" d="M95.506 103.741a8.222 8.222 0 1 0 8.223-8.223 8.232 8.232 0 0 0-8.223 8.223z" transform="translate(-81.727 -81.727)"/><path id="aXMLID_18_" class="acls-1" d="M68.95 11.16a.361.361 0 0 0 0-.363A21.989 21.989 0 0 0 50.016.012a21.906 21.906 0 0 0-17.2 8.282.36.36 0 0 0-.031.405l6.195 10.728a.361.361 0 0 0 .312.18.373.373 0 0 0 .049 0 .361.361 0 0 0 .3-.267 10.713 10.713 0 0 1 10.375-8.04c.3 0 .616.014.931.041h17.689a.36.36 0 0 0 .314-.181z" transform="translate(-28.015)"/><path id="aXMLID_19_" class="acls-1" d="M25.253 97.889a.36.36 0 0 0-.382-.126A10.714 10.714 0 0 1 12.3 91.979l-.014-.027L3.45 76.649a.36.36 0 0 0-.312-.18.361.361 0 0 0-.312.184 22.007 22.007 0 0 0 15.9 32.545.355.355 0 0 0 .054 0 .361.361 0 0 0 .312-.18l6.2-10.731a.361.361 0 0 0-.039-.398z" transform="translate(0 -65.426)"/><path id="aXMLID_20_" class="acls-1" d="M171.969 95.226h-12.4a.361.361 0 0 0-.252.618 10.691 10.691 0 0 1 1.3 13.749l-.016.026-8.851 15.329a.361.361 0 0 0 .312.541A22.012 22.012 0 0 0 172.3 95.455a.361.361 0 0 0-.331-.229z" transform="translate(-129.816 -81.477)"/></g></svg><svg id="chrome-colored" width="43.8" height="44" viewBox="0 0 43.8 44" y="44"><style>.bst0{fill:#e53029}.bst1{fill:#fdd900}.bst2{fill:#66b44b}.bst3{fill:#61ab48}.bst4{fill:#fff}.bst5{fill:url(#bSVGID_1_)}.bst6{fill:#f0ce00}.bst7{fill:#d92f27}</style><switch><g><path class="bst0" d="M21.9 0s12.9-.6 19.8 12.4H20.8s-3.9-.1-7.3 4.7c-1 2-2 4.1-.8 8.1-1.8-2.8-9-15.4-9-15.4S8.8.5 21.9 0z"/><path class="bst1" d="M41 33s-6 11.5-20.6 10.9c1.8-3.1 10.4-18.1 10.4-18.1s2.1-3.3-.4-8.6c-1.3-1.8-2.5-3.8-6.6-4.8h17.8s5.4 9-.6 20.6z"/><path class="bst2" d="M2.9 33.1s-7-10.9.9-23.3c1.8 3.1 10.4 18.1 10.4 18.1s1.9 3.5 7.7 4c2.2-.2 4.5-.3 7.5-3.3-1.6 2.9-8.9 15.4-8.9 15.4s-10.7.1-17.6-10.9z"/><path class="bst3" d="M20.3 44l2.9-12.2s3.2-.3 5.9-3.2C27.5 31.5 20.3 44 20.3 44z"/><circle class="bst4" cx="21.8" cy="22.1" r="9.8"/><linearGradient id="bSVGID_1_" gradientUnits="userSpaceOnUse" x1="21.806" y1="14.111" x2="21.806" y2="29.791"><stop offset="0" stop-color="#86bbe5"/><stop offset="1" stop-color="#116cb3"/></linearGradient><circle class="bst5" cx="21.8" cy="22.1" r="8.1"/><path class="bst6" d="M41.6 12.4l-12.1 3.5s-1.8-2.7-5.7-3.5h17.8z"/><path class="bst7" d="M12.4 24.8c-1.7-2.9-8.7-15-8.7-15l9 8.9s-.9 1.9-.6 4.6l.3 1.5z"/></g></switch></svg><svg id="drone" width="200" height="179.7" viewBox="0 0 200 179.7" y="88"><style>.cst0{fill:#383838}.cst1{fill:url(#cSVGID_1_)}.cst2{fill:#3a3a3a}.cst3{fill:#0a0a0a}.cst4{fill:#58595b}.cst5{fill:#808285}.cst6{fill:#2b2b2b}.cst7{fill:#111}.cst8{fill:url(#cSVGID_2_)}.cst9{fill:url(#cSVGID_3_)}.cst10{fill:url(#cSVGID_4_)}.cst11{fill:#2d2d2d}.cst12{fill:none;stroke:#2d2d2d;stroke-width:2;stroke-miterlimit:10}.cst13{fill:url(#cSVGID_5_)}.cst14{fill:#414042}.cst15{fill:#262626}.cst16{fill:#212121}.cst17{fill:url(#cSVGID_6_)}.cst18{fill:#231f20}.cst19{fill:url(#cSVGID_7_)}.cst20{fill:#1e1e1e}</style><symbol id="cNew_Symbol" viewBox="-72.8 -83.7 146.5 165.2"><path class="cst0" d="M-62.3 80.5l-9.6-8.8c-.6-.5-.9-1.3-.9-2.1v-2.9c0-.5.2-1 .5-1.5L20.8-55.7c.3-.4.7-.8 1.2-1.1l35.9-24.7 4.5 9.1 9.7 1.9c-2.1 2.8-4.4 5.5-6.2 8.4-1.4 2.2-2.3 5-3 7.5-2.4 8.9-2.2 19.3-4.7 25.6-.7 1.8-4.7 6-4.7 6L-54.1 79.7c-.5.5-.9.6-2 1l-2.7.8c-1.4.2-2.6-.2-3.5-1z"/><linearGradient id="cSVGID_1_" gradientUnits="userSpaceOnUse" x1="-15.918" y1="-13.323" x2="13.904" y2="16.499"><stop offset="0" stop-color="#58595b"/><stop offset=".073" stop-color="#4e4e4f"/><stop offset=".243" stop-color="#3b393a"/><stop offset=".434" stop-color="#2d2a2b"/><stop offset=".658" stop-color="#252223"/><stop offset="1" stop-color="#231f20"/></linearGradient><path class="cst1" d="M65.8-62.1c-1.4 2.2-2.3 5-3 7.5-2.4 8.9-2.2 19.3-4.7 25.6-.7 1.8-4.7 6-4.7 6L-54.1 79.7c-.5.5-.9.6-2 1l-2.7.8c-1.3.3-2.5 0-3.4-.9l-8.9-8.1v-2.7c0-.5.2-1 .5-1.5.6-.7 1.1-1.5 1.7-2.2 1.6-2 3.1-4.1 4.7-6.1l7.2-9.3 9-11.7c3.4-4.5 6.9-8.9 10.3-13.4 3.7-4.8 7.3-9.5 11-14.3 3.7-4.8 7.4-9.7 11.2-14.5 3.6-4.6 7.1-9.3 10.7-13.9 3.2-4.2 6.5-8.4 9.7-12.6L13-40.2c1.7-2.2 3.5-4.4 5.3-6.5 1.7-2 3.3-4.2 5.3-6 2.2-2.1 4.1-4 6.6-5.6 2.6-1.8 5.3-3.5 7.9-5.3 5.2-3.6 10.4-7.1 15.6-10.7.3-.2 5.8-3.8 5.8-4l2.9 6h.2l1.5 3s3.4.7 6.2 1.2c-1.6 2-3.2 3.9-4.5 6z"/><path class="cst2" d="M63.6-75c2.4 2.1 5.9 2.5 9.6 1.3.3-.1.6.3.5.6-1 1.7-2.2 3.5-3.7 5.2-6.1 6.9-14.1 9.8-17.9 6.5S50.3-73 56.4-79.9c1.2-1.4 2.6-2.6 3.9-3.7.3-.2.7 0 .6.4-.3 3.3.5 6.3 2.7 8.2z"/><path class="cst3" d="M57.1-80.1c-5.9 6.6-7.7 14.6-4.1 17.8 3.6 3.2 11.3.4 17.1-6.2 1.4-1.6 2.6-3.3 3.5-4.9.1.1.1.3 0 .4-1 1.7-2.2 3.5-3.7 5.2-6.1 6.9-14.1 9.8-17.9 6.5S50.3-73 56.4-79.9c1.2-1.4 2.6-2.6 3.9-3.7.2-.1.4-.1.5 0-1.3 1-2.5 2.2-3.7 3.5z"/><path class="cst4" d="M73.5-72.8c-.9 1.7-2.1 3.3-3.5 4.9-.3.3-.6.7-.9 1-5.9 5.7-12.9 7.9-16.4 4.9-3.7-3.4-1.8-11.7 4.3-18.6.3-.3.6-.6.8-.9.8-.8 1.6-1.5 2.4-2.1.1-.1.3-.1.4 0-.7.6-1.5 1.3-2.2 2.1-.5.5-1 1-1.4 1.5-5.9 6.6-7.7 14.6-4.1 17.8 3.4 3 10.5.6 16.3-5.3.5-.5 1-1 1.5-1.6 1.1-1.3 2-2.5 2.8-3.7z"/><path class="cst5" d="M57.1-80.1c-1.2 1.3-2.2 2.7-3.2 4.2-.8 1.3-1.5 2.7-2.1 4.2-.5 1.2-.8 2.5-.9 3.9-.1 1.1 0 2.2.4 3.3.4.9 1 1.8 1.7 2.5l.3.3.2.2.2.2c-.1 0-.1-.1-.2-.1s-.1-.1-.2-.1c-.2-.1-.4-.3-.6-.4-3.7-3.5-1.8-11.8 4.3-18.7.3-.3.6-.6.8-.9.8-.8 1.6-1.5 2.4-2.1.1-.1.3-.1.4 0-.7.6-1.5 1.3-2.2 2.1-.3.4-.8.9-1.3 1.4z"/></symbol><symbol id="cNew_Symbol_1" viewBox="-21.3 -22.8 42.6 45.5"><path class="cst6" d="M20.3-9.2L16.1 4.4c-1.5 5.2-5.4 9.4-10.4 11.2l-13.1 5.8c-3.9 2-8.2 1.9-11-.6-2.5-2.2-3.3-5.7-2.5-9.3v-.1c.1-.6.3-1.1.5-1.7l3.9-13.5.6-2.1.1-.3c1.5-3.9 4.3-7.1 8-9l.1-.1c.9-.4 1.8-.8 2.7-1.1l12.2-5c.8-.4 1.7-.8 2.6-1l.3-.1c3.1-.8 6.2-.3 8.4 1.6 3 2.7 3.6 7.3 1.8 11.7z"/></symbol><symbol id="cNew_Symbol_2" viewBox="-20.8 -22.6 41.7 45.2"><path class="cst2" d="M17.7-6.7c-.8 1-1.8 1.8-2.8 2.4l-1.2.9-2.4 1.8c-.7.5-1.3 1-2 1.5-.1.2-.3.4-.5.6-.4.4-.8.8-1.1 1.3-.6.7-1.2 1.4-1.8 2-.7.8-1.3 1.5-2 2.3-.6.7-1.2 1.4-1.8 2-.3.5-.7.9-1.1 1.3 0 .1 0 .1-.1.2-.2.3-.4.5-.6.8L-3 16.3c-.4.7-.8 1.3-1.3 1.9-4 4.6-10.2 5.8-13.9 2.6-3.7-3.2-3.5-9.5.5-14.2 1.2-1.3 2.3-2.1 3.8-3.2L-9 0c.5-.3.9-.7 1.3-1.1l6.1-7c.4-.5.8-1 1.1-1.5l2.9-5.5c.5-1.1 1.1-2.1 2-3.1 4-4.6 10.2-5.8 13.9-2.6 3.6 3.2 3.4 9.5-.6 14.1z"/><path class="cst7" d="M17.7-6.7c-.8 1-1.8 1.8-2.8 2.4l-1.2.9-2.4 1.8c-.7.5-1.3 1-2 1.5-.1.2-.3.4-.5.6-.4.4-.8.8-1.1 1.3-.6.7-1.2 1.4-1.8 2-.7.8-1.3 1.5-2 2.3-.6.7-1.2 1.4-1.8 2-.3.5-.7.9-1.1 1.3 0 .1 0 .1-.1.2-.2.3-.4.5-.6.8L-3 16.3c-.4.7-.8 1.3-1.3 1.9-3.3 3.8-8 5.3-11.7 3.9 3.5.8 7.7-.7 10.7-4.2.5-.6.9-1.2 1.3-1.9l3.3-5.9c.2-.3.4-.6.6-.8l.2-.2c.4-.4.7-.8 1.1-1.2.6-.7 1.2-1.4 1.8-2 .7-.8 1.3-1.5 2-2.3.6-.7 1.2-1.4 1.8-2 .4-.4.7-.9 1.2-1.3 0-.3.2-.5.4-.6.7-.5 1.3-1 2-1.5l2.4-1.8 1.2-.9c1-.7 1.9-1.5 2.8-2.4 4-4.6 4.2-11 .5-14.2-.7-.6-1.4-1-2.2-1.3 1.2.3 2.3.8 3.2 1.6 3.6 3.2 3.4 9.5-.6 14.1z"/><radialGradient id="cSVGID_2_" cx="-12.72" cy="14.338" r="4.362" gradientUnits="userSpaceOnUse"><stop offset="0" stop-color="#58595b"/><stop offset="1" stop-color="#231f20"/></radialGradient><circle class="cst8" cx="-12.7" cy="14.3" r="4.4"/><path class="cst7" d="M-12.7 18.2c2.1 0 3.9-1.7 3.9-3.9 0-2.1-1.7-3.9-3.9-3.9-2.1 0-3.9 1.7-3.9 3.9s1.7 3.9 3.9 3.9m0 1c-2.7 0-4.9-2.2-4.9-4.9s2.2-4.9 4.9-4.9 4.9 2.2 4.9 4.9c-.1 2.7-2.2 4.9-4.9 4.9z"/><radialGradient id="cSVGID_3_" cx="13.117" cy="-15.392" r="4.362" gradientUnits="userSpaceOnUse"><stop offset="0" stop-color="#58595b"/><stop offset="1" stop-color="#231f20"/></radialGradient><circle class="cst9" cx="13.1" cy="-15.4" r="4.4"/><path class="cst7" d="M13.1-11.5c2.1 0 3.9-1.7 3.9-3.9 0-2.1-1.7-3.9-3.9-3.9-2.1 0-3.9 1.7-3.9 3.9.1 2.1 1.8 3.9 3.9 3.9m0 1c-2.7 0-4.9-2.2-4.9-4.9s2.2-4.9 4.9-4.9 4.9 2.2 4.9 4.9-2.2 4.9-4.9 4.9z"/><g><radialGradient id="cSVGID_4_" cx=".632" cy="-.69" r="3.314" gradientUnits="userSpaceOnUse"><stop offset="0" stop-color="#58595b"/><stop offset="1" stop-color="#231f20"/></radialGradient><circle class="cst10" cx=".6" cy="-.7" r="3.3"/><path class="cst7" d="M.6 2.1C2.2 2.1 3.4.8 3.4-.7c0-1.6-1.3-2.8-2.8-2.8-1.6 0-2.8 1.3-2.8 2.8C-2.2.9-.9 2.1.6 2.1m0 1c-2.1 0-3.8-1.7-3.8-3.8 0-2.1 1.7-3.8 3.8-3.8 2.1 0 3.8 1.7 3.8 3.8 0 2.1-1.7 3.8-3.8 3.8z"/></g></symbol><symbol id="cNew_Symbol_3" viewBox="-24.7 -24.7 49.4 49.4"><circle class="cst11" r="24.7"/><circle class="cst7" r="22.4"/><path class="cst12" d="M0 22.4v-44.8M22.4 0h-44.8m5.8 16.2l32.9-32.8m-32.9 0l32.9 32.8"/></symbol><symbol id="cNew_Symbol_4" viewBox="-2.3 -2.3 5.9 5.9"><linearGradient id="cSVGID_5_" gradientUnits="userSpaceOnUse" x1="-1.401" y1="2.784" x2="2.784" y2="-1.401"><stop offset="0" stop-color="#808285"/><stop offset=".622" stop-color="#646568"/><stop offset="1" stop-color="#58595b"/></linearGradient><circle class="cst13" cx=".7" cy=".7" r="3"/></symbol><symbol id="cNew_Symbol_5" viewBox="-99.5 -76.8 228.7 176.9"><path class="cst0" d="M-88.1-58.5l-11.4 18.7L91.2 76.8l8.3-13.6z"/><path class="cst14" d="M-97.6-35.3l9 5c.7.4 1.4.5 2.2.3l33.9-8.8c.6-.1.6-.9.1-1.2l-18.9-8.8c-1.9-.9-3.6-2.2-4.9-3.9l-19.3-24.2-2.1 41.6z"/><circle class="cst0" cx="107.4" cy="78.3" r="21.8"/></symbol><symbol id="cNew_Symbol_6" viewBox="-126.6 -80.7 253.2 161.3"><path class="cst0" d="M-103.4 57.7l-14.4-29.9L88.5-59l6.9 14.4z"/><ellipse transform="rotate(-5.732 104.795 -58.861)" class="cst0" cx="104.8" cy="-58.9" rx="21.8" ry="21.8"/><path class="cst14" d="M-126.6 19.6l8.7-4.5c2.1-1.1 4.7-.4 6 1.6l6 6.9c.7 1 1.1 2.2 1.3 3.4l7.4 28.8c.3 2.2-.6 4.4-2.4 5.8l-26.7 19.2-.3-61.2z"/></symbol><use xlink:href="#cNew_Symbol_6" width="253.2" height="161.3" x="-126.6" y="-80.7" transform="matrix(.22 0 0 -.22 141.116 127.577)" overflow="visible"/><use xlink:href="#cNew_Symbol_6" width="253.2" height="161.3" x="-126.6" y="-80.7" transform="rotate(180 29.503 63.857) scale(.22)" overflow="visible"/><use xlink:href="#cNew_Symbol_5" width="228.7" height="176.9" id="cXMLID_20_" x="-99.5" y="-76.8" transform="matrix(.22 0 0 -.22 140.51 56.886)" overflow="visible"/><use xlink:href="#cNew_Symbol_5" width="228.7" height="176.9" x="-99.5" y="-76.8" transform="matrix(-.22 0 0 -.22 59.87 56.886)" overflow="visible"/><use xlink:href="#cNew_Symbol_3" width="49.4" height="49.4" id="cXMLID_19_" x="-24.7" y="-24.7" transform="matrix(.22 0 0 -.22 165.154 141.344)" overflow="visible"/><use xlink:href="#cNew_Symbol" width="146.5" height="165.2" x="-72.8" y="-83.7" transform="matrix(-.2199 -.00604 .00604 -.2199 183.568 120.937)" overflow="visible"/><use xlink:href="#cNew_Symbol" width="146.5" height="165.2" x="-72.8" y="-83.7" transform="rotate(2.044 -4461.672 4180.46) scale(.22004)" overflow="visible"/><use xlink:href="#cNew_Symbol_1" width="42.6" height="45.5" x="-21.3" y="-22.8" transform="rotate(180 82.52 70.76) scale(.22)" overflow="visible"/><use xlink:href="#cNew_Symbol_2" width="41.7" height="45.2" x="-20.8" y="-22.6" transform="matrix(.22 0 0 .22 165.098 141.483)" overflow="visible"/><use xlink:href="#cNew_Symbol_3" width="49.4" height="49.4" id="cXMLID_18_" x="-24.7" y="-24.7" transform="matrix(.22 0 0 -.22 34.892 141.41)" overflow="visible"/><use xlink:href="#cNew_Symbol" width="146.5" height="165.2" id="cXMLID_17_" x="-72.8" y="-83.7" transform="matrix(.22 0 0 -.22 16.85 120.197)" overflow="visible"/><use xlink:href="#cNew_Symbol" width="146.5" height="165.2" x="-72.8" y="-83.7" transform="matrix(-.22 .00383 .00383 .22 53.2 161.985)" overflow="visible"/><use xlink:href="#cNew_Symbol_1" width="42.6" height="45.5" x="-21.3" y="-22.8" transform="matrix(.22 0 0 -.22 34.892 141.258)" overflow="visible"/><use xlink:href="#cNew_Symbol_2" width="41.7" height="45.2" x="-20.8" y="-22.6" transform="matrix(.22 0 0 -.22 34.892 141.258)" overflow="visible"/><path class="cst11" d="M110.6 38.8l7.4 10.5 1.6 25.6-4.5 4.7c0 7.7-.1 15.4-.2 23.2-.1 2.8-.1 5.6-.3 8.4-.3 5.6-.7 11.2-2.2 16.6l-4.5 2.7 2.7-91.7zm-20.8 0l-7.4 10.5L80.7 75l4.5 4.7c0 7.7.1 15.4.2 23.2.1 2.8.1 5.6.3 8.4.3 5.6.7 11.2 2.2 16.6l4.5 2.7-2.6-91.8z"/><use xlink:href="#cNew_Symbol_3" width="49.4" height="49.4" id="cXMLID_16_" x="-24.7" y="-24.7" transform="matrix(.22 0 0 -.22 35.247 38.629)" overflow="visible"/><use xlink:href="#cNew_Symbol" width="146.5" height="165.2" x="-72.8" y="-83.7" transform="matrix(-.2199 -.00604 .00604 -.2199 53.696 18.246)" overflow="visible"/><use xlink:href="#cNew_Symbol" width="146.5" height="165.2" x="-72.8" y="-83.7" transform="rotate(2.044 -1651.332 493.065) scale(.22004)" overflow="visible"/><use xlink:href="#cNew_Symbol_1" width="42.6" height="45.5" x="-21.3" y="-22.8" transform="matrix(-.22 0 0 -.22 35.168 38.831)" overflow="visible"/><use xlink:href="#cNew_Symbol_2" width="41.7" height="45.2" x="-20.8" y="-22.6" transform="matrix(.22 0 0 .22 35.142 38.749)" overflow="visible"/><path class="cst15" d="M85.3 79.7l5.1-12.3-9.7 7.6z"/><path class="cst16" d="M89.8 68.8l.6-1.4-9.7 7.6 1.2 1.3z"/><path class="cst15" d="M115.3 79.7l-5.2-12.3 9.7 7.6z"/><path class="cst16" d="M110.7 68.8l-.6-1.4 9.7 7.6-1.2 1.3z"/><radialGradient id="cSVGID_6_" cx="100.151" cy="84.598" r="33.707" gradientUnits="userSpaceOnUse"><stop offset="0" stop-color="#414042"/><stop offset=".34" stop-color="#39383a"/><stop offset="1" stop-color="#2d2d2d"/></radialGradient><path class="cst17" d="M108.1 130.6s-.8.5-8.1.5-7.8-.5-7.8-.5-2.2-46.1-2.5-61.5c-.1-7.6 0-30.3 0-30.3s2.8-.7 10.9-.7c8.4 0 10.1.7 10.1.7s-.1 22.7-.3 30.3c-.4 15.4-2.3 61.5-2.3 61.5z"/><path class="cst18" d="M100.6 38.1c-8 0-10.9.7-10.9.7s-.1 22.7 0 30.3c.3 15.4 2.4 61.5 2.4 61.5s.6.5 7.8.5c7.3 0 8.1-.5 8.1-.5s1.9-46.1 2.3-61.5c.2-7.6.3-30.3.3-30.3s-1.6-.7-10-.7zm9 31c-.3 14.7-2.1 58.8-2.1 58.8s-.8.5-7.5.5-7.2-.5-7.2-.5-2-44.1-2.2-58.8c-.1-7.2 0-28.9 0-28.9s2.6-.7 10.1-.7c7.8 0 9.3.7 9.3.7l-.4 28.9z"/><path class="cst14" d="M110.3 69.1c.2-7.6.3-30.3.3-30.3s-1.7-.7-10.1-.7c-6 0-9.1.4-10.3.6 1.5-.2 4.5-.5 9.6-.5 8.4 0 10.1.7 10.1.7s-.1 22.7-.3 30.3v1l-.3 29.5c.4-11.8.9-24 1-30.6z"/><path class="cst14" d="M91.5 102.1c-.5-12.5-1-25.9-1.2-32.9-.1-7.6 0-30.3 0-30.3s2.8-.7 10.9-.7c5.1 0 7.7.3 9 .5-1-.2-3.5-.6-9.6-.6-8 0-10.9.7-10.9.7s-.1 22.7 0 30.3c.2 9.9 1.2 32.7 1.8 47.6v-14.6z"/><linearGradient id="cSVGID_7_" gradientUnits="userSpaceOnUse" x1="97.778" y1="80.62" x2="103.003" y2="85.844"><stop offset="0" stop-color="#414042"/><stop offset=".34" stop-color="#39383a"/><stop offset="1" stop-color="#2d2d2d"/></linearGradient><circle class="cst19" cx="100.4" cy="83.2" r="3.7"/><path class="cst20" d="M100.4 80.5c1.5 0 2.7 1.2 2.7 2.7 0 1.5-1.2 2.7-2.7 2.7s-2.7-1.2-2.7-2.7c0-1.5 1.2-2.7 2.7-2.7m0-2c-2.6 0-4.7 2.1-4.7 4.7s2.1 4.7 4.7 4.7 4.7-2.1 4.7-4.7-2.1-4.7-4.7-4.7z"/><use xlink:href="#cNew_Symbol_4" width="5.9" height="5.9" id="cXMLID_15_" x="-2.3" y="-2.3" transform="matrix(.22 0 0 -.22 100.39 88.988)" overflow="visible"/><use xlink:href="#cNew_Symbol_4" width="5.9" height="5.9" x="-2.3" y="-2.3" transform="matrix(.22 0 0 -.22 100.39 91.711)" overflow="visible"/><use xlink:href="#cNew_Symbol_4" width="5.9" height="5.9" x="-2.3" y="-2.3" transform="matrix(.22 0 0 -.22 100.39 94.434)" overflow="visible"/><use xlink:href="#cNew_Symbol_4" width="5.9" height="5.9" x="-2.3" y="-2.3" transform="matrix(.22 0 0 -.22 100.39 97.157)" overflow="visible"/><g><use xlink:href="#cNew_Symbol_3" width="49.4" height="49.4" id="cXMLID_14_" x="-24.7" y="-24.7" transform="matrix(.22 0 0 -.22 165.22 39.074)" overflow="visible"/><use xlink:href="#cNew_Symbol" width="146.5" height="165.2" id="cXMLID_7_" x="-72.8" y="-83.7" transform="matrix(.22 0 0 -.22 147.194 17.926)" overflow="visible"/><use xlink:href="#cNew_Symbol" width="146.5" height="165.2" x="-72.8" y="-83.7" transform="matrix(-.22 .00383 .00383 .22 183.542 59.714)" overflow="visible"/><use xlink:href="#cNew_Symbol_1" width="42.6" height="45.5" id="cXMLID_6_" x="-21.3" y="-22.8" transform="matrix(.22 0 0 -.22 165.235 38.987)" overflow="visible"/><use xlink:href="#cNew_Symbol_2" width="41.7" height="45.2" id="cXMLID_2_" x="-20.8" y="-22.6" transform="matrix(.22 0 0 -.22 165.22 38.922)" overflow="visible"/></g></svg><svg id="firefox" viewBox="0 0 50 44" width="50" height="44" y="268"><style>.dst0{fill:#00aded}</style><g id="d_003-mozilla-firefox" transform="translate(7997 553.205)"><path id="dPath_2218" class="dst0" d="M-7947.3-539.8l-.6 3.7s-.8-6.8-1.8-9.4c-1.5-3.9-2.2-3.9-2.2-3.9.6 1.3.9 2.6.8 4 0 0-1.8-5-6.7-6.6-5.4-1.8-8.3-1.3-8.6-1.2h-.1.1s5.9 1 7 2.5c-1.7 0-3.4.3-5 .7-.1 0 9.2 1.2 11.1 10.4 0 0-1-2.1-2.3-2.5.8 3.2.7 6.5-.2 9.7-.1.3-.2-1.3-1.8-2 .5 3.6 0 9.2-2.5 10.8-.2.1 1.5-5.6.4-3.4-6.9 10.6-15.1 4.9-18.7 2.4 1.9.4 5.4-.1 7-1.2 1.7-1.2 2.7-2 3.6-1.8s1.5-.7.8-1.5c-1.2-1.3-3.1-1.8-4.8-1.3-1.6.4-3.7 2.3-6.8.4-2.4-1.4-2.6-2.6-2.6-3.4.1-.3.1-.5.2-.8.3-.8 1.1-1 1.6-1.2.8.1 1.5.4 2.2.7v-.9c.1-.3 0-.7-.1-1l-.3-1.5c0-.2.6-.7 1.2-1.1.6-.4 1.3-.9 1.8-1.2.5-.3.9-.5.9-.6l.1-.1c.4-.3.7-.9.7-1.4v-.2c0-.1 0 0 0 0v-.5c-.1-.2-.4-.3-1.7-.3h-2.2c-1.6 0-2.5-1.6-2.8-2.2.3-2 1.6-3.8 3.4-4.7.4-.2-4.4 0-6.5 2.8-1.7-.4-3.4-.5-5.1-.1-.3 0-.7-.1-1-.1-1.3-1.1-2.2-2.7-2.4-4.4v-.1s-2.9 2.3-2.5 8.4v.3c-.5.7-.9 1.4-1.2 2.2-1 2.2-1.7 4.5-2 6.9.3-1 .7-1.9 1.2-2.7-.8 2.9-1.1 6-.8 9 0 0 .1-1 .3-2.3.4 3.5 1.5 6.8 3.3 9.8 3.7 6.8 10.5 11.2 18.2 11.7 1.3.1 2.6.1 3.9 0h.4c1.5-.1 3-.3 4.5-.7 20.8-5.3 18.6-30.1 18.6-30.1z"/></g></svg><svg id="firefox-colored" viewBox="0 0 50 44" width="50" height="44" y="312"><style>.est0{fill:url(#ePath_2228_1_)}.est1{fill:url(#ePath_2229_1_)}.est2{fill:url(#ePath_2230_1_)}.est3{fill:url(#ePath_2231_1_)}.est4{fill:url(#ePath_2232_1_)}.est5{fill:url(#ePath_2233_1_)}.est6{fill:url(#ePath_2234_1_)}.est7{fill:url(#ePath_2235_1_)}.est8{fill:url(#ePath_2236_1_)}.est9{fill:url(#ePath_2237_1_)}.est10,.est11{opacity:.5;fill:url(#ePath_2238_1_);enable-background:new}.est11{opacity:.4;fill:url(#ePath_2239_1_)}.est12{fill:url(#ePath_2240_1_)}.est13{fill:#8ed8f8}.est14{fill:url(#ePath_2246_1_)}.est15{fill:url(#ePath_2247_1_)}.est16{fill:url(#ePath_2248_1_)}.est17{fill:url(#ePath_2249_1_)}.est18{fill:url(#ePath_2250_1_)}.est19{fill:url(#ePath_2251_1_)}.est20{fill:url(#ePath_2252_1_)}.est21{fill:url(#ePath_2253_1_)}.est22{fill:url(#ePath_2254_1_)}.est23{fill:url(#ePath_2255_1_)}.est24{fill:url(#ePath_2256_1_)}.est25{fill:url(#ePath_2257_1_)}.est26{fill:url(#ePath_2258_1_)}.est27{fill:url(#ePath_2259_1_)}.est28{fill:url(#ePath_2260_1_)}.est29{fill:url(#ePath_2261_1_)}.est30{fill:url(#ePath_2262_1_)}.est31{fill:url(#ePath_2263_1_)}.est32{opacity:.1;fill:url(#ePath_2264_1_)}.est32,.est33,.est34,.est35{enable-background:new}.est33{fill:url(#ePath_2265_1_)}.est33,.est34,.est35{opacity:.5}.est34{fill:url(#ePath_2266_1_)}.est35{fill:url(#ePath_2267_1_)}.est36{fill:url(#ePath_2268_1_)}.est37{opacity:.1;fill:url(#ePath_2269_1_);enable-background:new}.est38{fill:url(#ePath_2270_1_)}</style><g id="eFirefox" transform="translate(4784.716 512.275)"><linearGradient id="ePath_2228_1_" gradientUnits="userSpaceOnUse" x1="-10738.448" y1="29.505" x2="-10738.731" y2="29.984" gradientTransform="matrix(7.0415 0 0 10.668 70834.352 -808.27)"><stop offset=".011" stop-color="#941f21"/><stop offset=".472" stop-color="#e36126"/><stop offset="1" stop-color="#f0bb62"/></linearGradient><path id="ePath_2228" class="est0" d="M-4776.2-505.7s0 .3 0 0c-.4-.7-.8-1.5-.8-2.3-.4.3-.8.9-1 1.5 0 .1-.1.3-.1.4v-.3c-.1.2-.2.4-.3.7-.1.2-.1.4-.1.5v-.2c-.7 1.7-.9 3.6-.7 5.4 1.6-1.3 3.4-2.5 5.2-3.4-.9-.5-1.7-1.3-2.2-2.3z"/><linearGradient id="ePath_2229_1_" gradientUnits="userSpaceOnUse" x1="-10685.196" y1="33.154" x2="-10685.196" y2="31.807" gradientTransform="matrix(7.7072 0 0 15.4622 77573.914 -858.993)"><stop offset=".056" stop-color="#dc7327"/><stop offset="1" stop-color="#eebc89"/></linearGradient><path id="ePath_2229" class="est1" d="M-4781.8-486.3c0-.3.9-7.6 4.2-10.1 2.9-2.2.7-1.3-.4-1.3-.5.1-1.1.2-1.6.5-.1.1-2.8 2.4-2.2 10.9z"/><linearGradient id="ePath_2230_1_" gradientUnits="userSpaceOnUse" x1="-10568.639" y1="27.195" x2="-10569.361" y2="26.255" gradientTransform="matrix(9.7389 0 0 12.1914 98153.078 -819.393)"><stop offset=".056" stop-color="#dc7327"/><stop offset="1" stop-color="#edbd6b"/></linearGradient><path id="ePath_2230" class="est2" d="M-4782.2-491.9s2-6.3 6-6.2c2.6 0 .5-2.3-.2-2.6-.9-.3-1.1-.3-1.2-.2-.3.3-3 .2-4.6 9z"/><radialGradient id="ePath_2231_1_" cx="-14076.247" cy="292.516" r="8.189" gradientTransform="translate(9332.83 -771.481)" gradientUnits="userSpaceOnUse"><stop offset=".257" stop-color="#ffe300"/><stop offset=".336" stop-color="#fcd800"/><stop offset=".469" stop-color="#f8c91e"/><stop offset=".643" stop-color="#eda524"/><stop offset=".847" stop-color="#e37b28"/><stop offset="1" stop-color="#dd5a26"/></radialGradient><path id="ePath_2231" class="est3" d="M-4745.5-507.7c1.3.7 2.3 1.6 3.1 2.8 1 1.6.5 3.7-.3 3.4-1.1-.4-2.9-6.2-2.8-6.2z"/><radialGradient id="ePath_2232_1_" cx="-14073.143" cy="286.204" r="4.277" gradientTransform="translate(9332.83 -771.484)" gradientUnits="userSpaceOnUse"><stop offset=".126" stop-color="#941f21"/><stop offset=".343" stop-color="#9e2922"/><stop offset=".73" stop-color="#c24028"/><stop offset="1" stop-color="#dc5726"/></radialGradient><path id="ePath_2232" class="est4" d="M-4742.4-501.3c.5-4-3.3-6.4-3.3-6.4s.2 1.4.5 4.4c.5 3.6 2.6 3.9 2.8 2z"/><radialGradient id="ePath_2233_1_" cx="-14144.273" cy="459.987" r="3.805" gradientTransform="translate(9398.482 -976.412)" gradientUnits="userSpaceOnUse"><stop offset="0" stop-color="#431413"/><stop offset=".164" stop-color="#631e1c"/><stop offset=".332" stop-color="#832320"/><stop offset=".484" stop-color="#9c2222"/><stop offset=".615" stop-color="#ac2023"/><stop offset=".708" stop-color="#b21f24"/><stop offset=".999" stop-color="#aa1f24"/><stop offset="1" stop-color="#a91f24"/></radialGradient><path id="ePath_2233" class="est5" d="M-4755-470.1c6.8 1.4 12-4.3 8.3-5.7-3.4-1.4-11.5 4.9-8.3 5.7z"/><radialGradient id="ePath_2234_1_" cx="-14081.344" cy="413.763" r="4.212" gradientTransform="translate(9342.92 -922.923)" gradientUnits="userSpaceOnUse"><stop offset=".126" stop-color="#941f21"/><stop offset=".343" stop-color="#9e2922"/><stop offset=".73" stop-color="#c24028"/><stop offset="1" stop-color="#dc5726"/></radialGradient><path id="ePath_2234" class="est6" d="M-4746.1-475.6c6.8-1.5 9.1-8.9 5.2-8.6-3.5.1-8.4 9.2-5.2 8.6z"/><radialGradient id="ePath_2235_1_" cx="-14041.59" cy="349.692" r="3.805" gradientTransform="translate(9305.228 -846.484)" gradientUnits="userSpaceOnUse"><stop offset=".126" stop-color="#941f21"/><stop offset=".343" stop-color="#9e2922"/><stop offset=".73" stop-color="#c24028"/><stop offset="1" stop-color="#dc5726"/></radialGradient><path id="ePath_2235" class="est7" d="M-4740-487.1c4.4-3.3 2.4-9 2.4-9s-1 2.9-1.8 6.5c-1 3.3-3.3 4.4-.6 2.5z"/><radialGradient id="ePath_2236_1_" cx="-14051.205" cy="297.523" r="4.754" gradientTransform="translate(9313.71 -785.263)" gradientUnits="userSpaceOnUse"><stop offset="0" stop-color="#941f21"/><stop offset=".638" stop-color="#c13f28"/><stop offset="1" stop-color="#dc5726"/></radialGradient><path id="ePath_2236" class="est8" d="M-4738.7-497.2c-.2-3.1-1.6-6.2-3.9-8.5 0 0 .3 1.8.8 4.4.6 3.7 3.4 7.4 3.1 4.1z"/><radialGradient id="ePath_2237_1_" cx="-14321.817" cy="264.228" r="42.122" gradientTransform="translate(9563.748 -742.34)" gradientUnits="userSpaceOnUse"><stop offset="0" stop-color="#52c4f1"/><stop offset=".077" stop-color="#45bbec"/><stop offset=".182" stop-color="#00a9dc"/><stop offset=".376" stop-color="#2276b8"/><stop offset=".501" stop-color="#035495"/><stop offset=".75" stop-color="#1d204e"/></radialGradient><path id="ePath_2237" class="est9" d="M-4759.7-469c11.9 0 21.7-9.6 21.7-21.6s-9.6-21.7-21.6-21.7-21.7 9.6-21.7 21.6c0 12 9.7 21.7 21.6 21.7z"/><radialGradient id="ePath_2238_1_" cx="-14313.572" cy="235.507" r="27.673" gradientTransform="translate(9554.272 -743.787)" gradientUnits="userSpaceOnUse"><stop offset=".082" stop-color="#00a2dc"/><stop offset=".161" stop-color="#0096d4"/><stop offset=".328" stop-color="#2578b8"/><stop offset=".33" stop-color="#2276b8"/><stop offset=".5" stop-color="#035495"/><stop offset=".832" stop-color="#14143e"/></radialGradient><path id="ePath_2238" class="est10" d="M-4763-473.3h.2v-.1s0-.1-.1-.1c-.1-.1-.1.1-.2.1l.1.1c-.1 0-.1 0 0 0zm-.5.1h-.2.2zm-8.1-1.3l-.1-.1c-.1 0-.1-.1-.2-.1l-.1-.1s-.1 0-.1-.1l-.1-.1s0-.1-.1 0l.1.1c.1 0 .1.1.2.1l.1.1.1.1c0 .1.2.1.2.1 0 .2.1.2 0 0 .1.2 0 0 0 0zm8.5 1.1zm-14.5-20c0-.1 0-.1 0 0 0-.1.1-.1 0 0l.1-.1v-.1h-.1v.2c0-.2 0-.1 0 0 0-.1 0 0 0 0zm11.4 10.3zm-10-10.4h-.1v.3s0 .1.1.1c0 0 .1.1 0 .1v-.5zm-.4 12.8c0-.1 0-.1 0 0-.1-.1 0-.1 0 0v.1c0 .1.1.1.1.2 0 0 0 .1.1.1 0-.1-.1-.2-.1-.2 0-.1-.1-.2-.1-.2zm-.5-14.3c-.1-.1-.1-.1-.2-.1v.2h.4c-.2 0-.1 0-.2-.1.1.1.1.1 0 0 .1 0 0 0 0 0zm4.3 19.1c0-.1-.1-.2-.1-.3V-476.5l-.1-.1-.1-.1-.1-.1s0-.1-.1-.1l-.1-.1-.1-.1s0 .1.1.1v.3c0 .1 0 0 .1.1v.3c0 .1.1.1.1.2 0 0 0 .1.1.1 0 0 .1 0 .1.1.1 0 .1.1.1.1l.1.1s0 .1.1.2l.1.1s0-.1-.1-.1l-.1-.4zm-3-3.1c0-.1-.1-.2-.1-.2v-.2c-.1 0 0 0 0 .1v.3c-.1-.1 0 0 .1 0v.2c0 .1.1.2.1.2s0 .1.1.1c0-.1-.1-.2-.1-.2 0-.1-.1-.2-.1-.3zm2.4 2.1l.1.1c.1 0 0-.3-.1-.1 0-.1-.1-.3-.2-.2 0 .1.1.1.1.1l.1.1c-.1-.2 0-.2 0 0zm.5 1.1l-.1-.1.1.1zm8.6 3c-.1 0-.1.1 0 .1v-.1c0 .1 0 .1 0 0 0 .1 0 0 0 0zm.4-.4s0-.1 0 0v-.1l-.1-.1h-.1l.1.1c-.1 0 .1.3.1.1zm-.2.4h.1v-.1h-.2c.1 0 .1 0 .1.1zm-13.3-20.8s0 .1 0 0c0 .1 0 .1 0 0h.2l.1-.1.1-.1.1-.1.1-.1v-.3h-.1v.5l-.5.2zm.1 7.6c.1 0 .1 0 0 0 .1-.1 0-.2 0-.2s-.1 0-.1.1c0-.1.1.1.1.1zm15.8 8.2c-.1 0-.2 0-.2-.1-.1 0-.2 0-.3-.1 0 0-.1 0-.1-.1s0-.1-.1-.1-.1-.1-.1-.2l-.1-.1-.1-.1h-.2v-.1c0-.1 0-.1-.1-.1 0 0 0-.1-.1-.1h-.2c-.1 0-.1-.1-.2-.1l-.2-.2-.1-.1v-.1l-.1-.1v-.1h-.1l-.1-.1-.1-.1s-.1 0-.1-.1h-.2c-.1 0 0-.1-.1-.2 0 0-.1-.1-.2-.1h-.2c-.1 0-.1-.1-.1-.1-.1 0-.1-.1-.2-.1s-.1-.1-.2-.1-.1-.1-.1-.2c-.1-.1-.1 0-.1-.1h-.1s0-.1-.1-.1-.1 0-.1-.1c0 0 0-.1-.1-.1h-.2c-.1 0 0-.1-.1-.1v-.2s0-.1-.1-.1c.1 0 .1-.1.1-.1v-.2c0-.1 0-.3.1-.3v-.5s-.1-.1 0-.1v-.1s0-.1.1-.2l.1-.1v-.5c0-.2.1-.3-.1-.4-.1 0-.1-.1-.2-.1 0 0-.1 0-.1-.1h-.2.1c0-.1.1 0 .1-.1 0 0 0-.1.1-.2s.2-.2.3-.2c.1-.1.2-.2.1-.3 0-.1-.1-.1-.1-.2v-.2c-.1 0-.1-.1-.1-.2l-.1-.1v-.1h-.1c-.1 0-.1 0-.1-.1v-.1c0-.1-.1-.2-.2-.2h-.5c-.1 0-.1.1-.2.1l-.1-.1-.1-.1c-.1-.2-.2-.3-.3-.4-.1 0-.2-.1-.2-.1s-.2-.1-.2-.2c-.1 0-.2-.1-.3-.1-.1-.1-.2-.2-.2-.3 0-.1-.1-.2-.1-.2 0-.1-.1-.1-.1-.2s-.1-.1-.1-.2v-.2c0-.1.1-.1.1-.2v-.3c0-.1-.1-.2 0-.2 0-.1.1-.1.1-.2v-.2c.1-.1.1-.1.2-.1s.1-.1.2-.1c0 0 0-.1.1-.1v-.1c0-.1 0-.2.1-.2l.1-.1h.3s0 .1.1 0c0 0 .1 0 .1-.1v-.1s0-.1.1-.1v-.4c0-.1.1-.1.1-.2v-.2s0-.1-.1-.1l-.1-.1-.1-.1c-.1 0 0 .1 0 .2 0 0 0 .1-.1.1s-.2 0-.2.1v.1s-.1 0-.1.1c-.1.1-.1.1-.1.2h-.7c-.1 0-.1.1-.2.1-.1.1-.1.1-.2.1h-.7c-.1 0-.1 0-.2-.1 0 0-.1 0-.1-.1l-.1.1s-.1 0-.1.1v.3s-.1 0-.1.1h-.4c-.1 0 0 .1-.1.2H-4771.3V-490.1s0-.1-.1-.1h-.1v-.1h-.9c-.1 0-.1 0 0 0s.2-.1.1-.2c-.1 0-.1 0-.1-.1v-.1h-.1v-.1l-.1-.1h-.3c-.1.1-.1.2-.2.2H-4773.4s-.1 0-.1.1v.1l-.1.1h-.1s-.1 0-.1.1c0 0 0 .1-.1.1l-.1.1v.1c0 .1-.1.2 0 .3h.1v.1c0 .1.1.1.1.2l.1.1.1.1.1.1.1.1h.2s.1 0 .1.1c.1.1.2.1.3.2l.2.2h.1v.4s-.1 0-.1.1c-.1.1-.1.1-.1.2-.1.1-.1.1-.1.2s0 .1-.1.2c-.1-.1-.2-.2-.2-.3v-.2c0-.1-.1-.1-.1-.1 0-.1-.1-.1-.1-.2s-.1-.1-.1-.2 0-.1-.1-.2h-.1s-.1 0-.1-.1h-.1c-.1 0-.1 0-.2-.1-.1 0-.1.1-.2.1 0 .1-.1.2-.1.2 0 .1 0 .2-.1.2v-.1c0 .1 0 .2-.1.1v-.2c.1-.2.1-.3 0-.4 0 0 0-.1-.1-.1h-.1s-.1-.1-.1-.2h-.2c0-.1 0-.1-.1-.2l-.1.1c0 .1.1.1.1.1 0 .1 0 .1-.1.1l-.1.1c-.2.2-.5 0-.7.1-.1 0-.1.3-.1.3v.2c0 .1-.1.1-.1.2h-.1c-.2.1 0 .5 0 .7s.1.2.1.3c0 .1.1.2.1.3.1.2.1.5.2.8 0 .1.1.1.1.1.1 0 .1 0 .1.1l.1.1s0 .1-.1.1c0 0 0 .1.1.1h.1c.1 0 .1.1.2.1s.1.1.1.1c.1.1.1.1.2.1.1.1.1.1.1.2v.1l.1.1v.3c0 .1.1.1.1.2-.2-.1-.2 0-.3.1l-.1.1-.1.1c-.1.2-.3-.3-.4-.3 0-.1-.1-.1-.1-.2-.1 0-.2 0-.1.1v.5c0 .1 0 .2.1.2 0 .1.1.2.1.2.1.1.2.1.1.2 0 0-.1 0-.1-.1v.7c0 .1 0 .1-.1.2v.2s.1 0 .1.1v.6s0 .1.1.1c0 0 0 .1.1.1 0 0 0 .1.1.1 0 .1 0 0 .1.1s0 .1 0 .1c0 .1.1.1.1.2.1.1.1.3.2.4 0 .1.1.1.1.2s.1.1.1.2.1.1.1.2v.1h.1v-.1c.1 0 .2 0 .3.1h.1v.1s0 .1.1.1h.1s0-.1.1-.1 0-.1 0-.1v-.2.1s0 .1.1.1c0 .1.1.1.1.2.1 0 .1.1.1.1s.1 0 .1.1v.1s0 .1.1 0h.1l.1.1v.1l-.1.1s0 .1.1.1c0 0 0 .1.1.1 0 0 0 .1.1.1l.1.1v.1l.1.1c-.1 0-.2-.1-.2-.1v.3l.1.1.1.1s0 .1.1.1l.1.1v.2s0 .1.1.1v.4s0 .1.1.2l.1.1c0-.1-.1-.2-.1-.3h.1v-.3c.1 0 .1.1.2.1 0-.1-.1-.1-.1-.2s0-.2.1-.1c.1 0 .1.1.1.1h.2c.1 0 .1 0 .2.1h.1v.1c0 .1.1.1.1.1l.1.1v.1c.1 0 .1.1.1.2l.1.1v.3l.1.1v.2h-.2s-.1 0-.2-.1c0 0 0-.1-.1-.1h-.1l.1.1s0 .1.1.1c-.1 0-.1-.1-.2-.1l.1.1.1.1c0 .1.1.1.1.2v.1l.1.1.1.1h.1c.1.1.2.2.4.3.1 0 .1.1.2.1 0 0 .1-.1.1 0 0 0 .1 0 .1.1 0 0 0 .1.1.1l.1.1v.1s0 .1.1.1c0 0 0 .1.1.1v.1l.1.1c0 .1.1.1.1.2 0 0 .1 0 .1.1l.1.1.2.2.1.1v.1s0 .1.1.1h.1c.1 0 0 0 0 .1h.1s0-.1.1 0 .1 0 .1.1v.3s0 .1.1.1h.1s0 .1.1.1c0 0 .1 0 .1.1l.1.1h.2l.2.1s.1 0 .2.1c.1 0 .1.1.2.1s.1.1.1.1l.1.1s.1 0 .1.1l.1.1h.1c.1 0 .1 0 .2.1.1 0 .2.1.3.1h.4s.1 0 .1.1c.1 0 .1.1.2.1 0 .1 0 .1.1.1s0 .1.1.1h.7c.1 0 .2.1.2.1h.1s.1 0 .1.1h.7s0-.1-.1-.1h-.5s-.1 0-.1-.1c0 0-.1 0-.1-.1l-.1-.1-.1-.1h-.1c-.1 0-.1-.1-.2-.1l-.1-.1s-.1 0-.1-.1c0 0 0-.1-.1-.1 0 0-.1 0-.1-.1 0 0-.1 0-.1-.1s-.1-.1-.1-.1h-.2c-.1 0-.2-.1-.2-.1-.1 0-.1-.1-.2-.1 0 0 0-.1-.1-.1v-.2h.2l-.1-.1h-.1l-.1-.1c0-.1 0-.1-.1-.2l-.1-.1c-.1-.1 0-.1 0-.1v-.2s0-.1.1-.1h.2v.1c0 .1.1.1.2.2l.2.2.1.1v.3s0 .1.1.1c.1.1.1.1.2.1h.5c.1 0 .1-.1.1-.2v-.1l-.1-.1v-.2l.1-.1c0-.1 0-.2-.1-.2 0-.1.1-.1.1-.1h.4c.1 0 .1-.1.1-.2s-.1-.1-.1-.2v-.1s0-.1-.1-.1l-.1-.1h.8s0 .1.1.1h.1v.1s.1.1.1 0c0 0 .1 0 .1-.1h.2v-.2h.2s0-.1.1-.1h.1l.1.1h.2c.1 0 .1-.1.1-.1-.1 0-.1-.1-.1-.2v-1.2c0-.2.1-.4.1-.7v-.4s0-.1-.1-.1l-.1-.1-.1.1c-.1.1 0 .1 0 .1H-4763.2v-.1l-.1-.1c-.1-.1-.2-.2-.2-.3v-.4h.2c.1 0 .1 0 .2.1.1 0 .2 0 .2.1l.1.1h.4v-.1c0-.1.1-.1.1-.2h.2l.1-.1c.1 0 .1 0 .2-.1.6.3.5.3.3.3zm-6.5-13.6s.1-.2 0-.2-.1.1 0 .2zm3.6 19.1c.1 0 .1 0 0 0 .1 0 .1.1.1.1.1-.1 0-.2-.1-.1.1-.1 0-.1 0-.1v.1zm-3.9-18.7l.1-.1s0-.1-.1-.1v.2zm3.7 18.8c.1 0 .1 0 0 0 .1 0 .1 0 0 0 .1-.1.1-.2 0-.2h-.1v.1c.1 0 .1.1.1.1zm-.1.2v-.1.2c.1 0 0-.1 0-.1zm.4.4h.1c.1 0 0-.1-.1 0 .1-.1 0-.1 0-.2 0 0-.1 0-.1-.1 0 0 0-.1-.1-.1v.1s0 .1.1.1v.1s-.2 0-.2.1h.3zm-.5-.1c-.1.1 0 .1 0 0l.1.1v-.1h-.1zm.3-.2c.1 0 0-.2-.1-.2 0 .1.1.2.1.2zm0-.6s0-.2-.1-.2h-.1v.3c.1 0 .2 0 .2-.1zm-.7-12.4zm-.4 2c0 .1 0 .1 0 0 0 0 .1 0 0 0l.2-.2c0-.1.1-.3-.1-.2 0 0 0 .1-.1.1h-.1c-.1 0-.1 0-.1.1s.1.3.2.2zm-.6-24.3v-.1h-.2l-.1.1v.4s.1 0 .1-.1l.1-.1v-.1h.1v-.1zm.4 24.4c-.1 0-.1.1-.2.1v.2h.1c.1 0 .1-.1.1-.2v-.1zm0-24.7h.2v-.1h-.2v.1c-.1-.1-.1-.1 0 0-.1 0 0 0 0 0zm.6 22.6zm-3.1-6.2zm1.6-15.4zm2-1.9c.1 0 .1 0 0 0l.1-.1H-4764.9v.3h.2v-.2c0 .1 0 .1 0 0zm-.4.4v-.1s-.1-.1 0 .1c-.1 0-.1 0 0 0h-.1c0 .1 0 .1.1 0-.1.1-.1.1 0 0 0 .1 0 .1 0 0zm-14.5 11.5zm1.6 1.7c0 .1 0 .1 0 0 .1.1.1 0 0 0 .1 0 .1 0 0 0 0-.1.1-.1.1-.1V-495.7h1.2l.1.1v.1s0 .1.1.1h.2v-.5h-.1l-.1.1v-.2s0-.1.1-.1c0 0 .1 0 .1-.1l.1-.1s.1 0 .1-.1v.1l.1.1s.1 0 .1-.1l.1-.1.1-.1h.1l.1-.1h.4l.1-.1v-.7h-.5l-.1.1h-.2v.3-.4s0-.1-.1-.1v-.7c0-.1 0-.1.1-.2v-.4l.1-.1.1-.1s0-.1.1-.1h.1l.1-.1h.3v-.2l.1-.1v-.1c0-.1 0 0 0 0v-.2s.1 0 .1-.1l.1-.1h.1l.1-.1c.1 0 .1-.1.2-.1h.2v.1l-.1.1s0 .1-.1.1v.1s-.1 0-.1.1v.6h.1s.1-.1.1 0h.2l.1.1h.3v-.2h.3c0 .1 0 .2-.1.2v.3h.7l.1-.1.1-.1c.1-.1 0-.1.1-.1h.2l.1-.1.1-.1h.1l.1-.1h-.1v-.1l.1-.1s.1 0 .1-.1c0 0 0-.1.1-.1v-.4h-.6s.1 0 .1-.1c0 0 .1 0 .1-.1l.1-.1h.4c.1 0 .1 0 .2-.1v-.1h-.5s-.1.1-.1 0c0 0 0-.1.1-.1h.1l.1-.2v-.1h.1-.2.3l.1-.1h.4s-.1 0-.1.1h.1v-.1h.1l.1-.1h.5s.1 0 .1-.1l.1-.1.1-.1v-.2h-.1.1v-.1h-.1s0 .1-.1.1l-.1.1h-.3v-.1h-.4v-.1h.1s.1 0 0-.1h-.1s.1 0 .1-.1h.3s.1 0 .1-.1h.1v-.1h.2v-.1l.1-.1v-.1s-.1 0-.1-.1v-.2s0-.1.1-.1l.1-.1c.1 0 .1 0 .2-.1l.2-.1h.6s.1 0 .1-.1h.4l.1-.1h-.1.2s.1 0 .1-.1c0 0 .1 0 .1-.1 0 0 .1 0 .1-.1h.1s.1 0 .1-.1h.3s.1 0 .1-.1h1s.1-.1.2-.1h.9s.1 0 0 0H-4766.7s-.1 0-.1.1h-.1v-.1h.1H-4768.5c-.1 0-.1 0-.2.1s-.1 0-.2 0-.1 0-.2.1h-.1c-.1 0-.1 0-.2.1 0 0-.1 0-.1.1h-.1c-.1 0-.1.1-.1.1-.1 0-.1.1-.2.1h-.2s-.1 0-.1.1h-.4c-.1 0-.1.1-.1.1l-.1.1s-.1.1-.2.1h-.1.4-.1s-.1.1-.2.1l-.1.1h-.1s-.1 0-.1.1h-.1s-.1 0-.1.1h-.3s-.1 0-.1.1h-.1.5-.2v.1s-.1 0-.1.1h-.4s0 .1-.1.1l-.1.1h-.2.2l.1-.1.1-.1h.1v-.1h-.1l-.1.1s-.1 0-.1.1l-.1.1-.1.1-.1.1-.1.1s-.1 0-.1.1h-.1s-.1 0-.1.1h-.2s-.1 0-.1.1l-.1.1v-.1h.1l.1-.1-.1.1-.1.1-.1.1-.1.1h-.1l-.1.1h-.1s-.1 0-.1.1l-.1.1h-.1c0 .1-.1.1-.1.2l-.1.1s-.1 0-.1.1c-.1.1-.1.2-.2.2l-.1.1-.1.1v.1l-.1.1-.1.1-.1.1-.1.1-.1.1-.1.1s-.1.1-.1.2l-.1.1-.1.1c0 .1-.1.1-.1.2s-.1.1-.1.2c0 0 0 .1-.1.1v.1c0 .1-.1.1-.1.2l-.1.1-.1.1s0 .1-.1.1c0 0 0 .1-.1.1l-.1.1s0 .1-.1.1v.1s0 .1-.1.1c0 0 0 .1-.1.1l-.1.1s0 .1-.1.1c0 0 0 .1-.1.1v.2c0 .1-.1.1-.1.2s0 .1-.1.2v.4s0 .1-.1.1v.2s0 .1-.1.1v.4c0 .1-.1.2-.1.2 0 .1-.1.1-.1.2l-.1.1c0 .1-.1.1-.1.2v1.1-.5s0-.1.1-.1v-.2s0-.1.1 0v1l.1-.1s.1 0 .1-.1v-.1.8h-.1v.1h-.2v.1h.1v-.1h.3s0-.1.1-.1v-.1s.1 0 .1-.1v-.1l.1-.1h.1v-.2h-.1v.3h.1v-.1l.1-.1V-493.5h.1v.2c-.9-1.6-.9-1.6-.9-1.5zm14.4-16.7h1.9-2s-.1 0-.1.1h-.2l.4-.1zm-.9 2.6h.1v-.1l-.1.1c0-.1 0-.1 0 0zm-1.4 27.4c0 .1.2 0 .2-.1.1-.1 0-.2.1-.2 0-.1 0-.1-.1-.1 0 0 0-.1-.1-.1 0-.1-.1-.1-.2 0v.5c0-.1.1 0 .1 0zm.5.3l.1-.1c.1 0 .1 0 .1-.1 0 0 0-.1.1-.1l.1-.1c0-.1.1-.1.1-.1s0-.1.1-.1v-.6s-.1 0-.1-.1v-.2c0-.1 0-.1-.1-.2 0 0-.1-.1-.2-.1l-.1.1s0 .1-.1.1c0 .1-.1.1-.1.2v.1l-.1.1s0 .1-.1.1v.3c0 .1 0 .1.1.2l.1.1h.1c.1 0 .1.1.1.1h.1v.1h-.1s0 .1-.1.1v.1l-.1.1h.1zm-.6-26.3s-.1 0 0 0c-.1 0-.1 0-.1.1s0 0 .1-.1l-.1.1h.1v-.1c.1 0 0 0 0 0zm-1.8 14.6c.1-.1.1-.1.1-.2v-.1s0-.1-.1-.1v.4c-.2 0-.2 0 0 0zm-7 .7c.1 0 .1 0 0 0h-.4v.2h.1v-.1l.1-.1c.2.1.2.1.2 0 0 .1 0 0 0 0zm-.2-2.4v.2-.2l.1-.1c-.1 0-.1 0-.1.1 0-.1 0-.1 0 0zm3.5-1.5c-.1 0-.1 0 0 0-.1 0-.1.1-.1.1h-.1s-.1 0-.1.1v.1h.3v-.1c-.1-.1 0-.1 0-.2zm-4.4 4.2c0-.1 0-.1 0 0 0-.1 0-.1.1-.1l.1-.1.1-.1v-.1l.1-.1.1-.1s.1 0 .1-.1v-.1h-.1s-.1 0-.1.1c0 0-.1 0-.1.1h-.2s-.1 0-.1-.1V-492.9v.1l-.1.1v-.2h-.1v-.4s0 .1-.1.1l-.1.1h-.4s0 .1-.1.1-.1 0-.1.1v.1s.1 0 .1-.1.1 0 0 0l-.1.1v.1h.1v.1l-.1.1v.4h.4c.1 0 .1-.1.2-.1h.6v.1-.1c-.3.4-.3.4-.2.3zm-1.7-2.9l.1-.1v-.1c0-.1 0-.1.1-.2 0 0 .1 0 .1-.1v-.1H-4777.6v.3l.1.1-.1.2zm2.6 2.6zm3-3.5zm3.2-8zm-8.6 9.7c0-.1 0-.1 0 0 0-.1.1-.2.1-.2V-494.5h-.1v.2h-.1v.4l.1-.1zm9.4 1zm.3-12.2c.1 0 .1-.1 0 0v-.1h-.2s0 .1-.1.1l-.1.1v.1l-.1.1v.3s-.1 0-.1.1v.6h.1s0-.1.1-.1l.1-.1.1-.1.1-.1.1-.1v-.4l.1-.1v-.1l-.1-.2c0 .1 0 0 0 0zm-4.6 10.5c0 .1 0 .1 0 0l.1.1v.1h.2v-.2s0-.1.1-.1l.1-.1.1-.1V-495.3h-.1v-.1h-.2l-.1.1h-.1l-.1.1h-.1v.1c0 .1 0 .1.1.2v.2c-.1 0-.1 0 0 0-.1 0 0 0 0 0zm2.2-6.2s-.1 0 0 0c0-.1 0-.1-.1-.1v-.1s0-.1-.1-.1c0 0 0-.1-.1-.1l-.1.1v.2h-.1s-.1 0-.1-.1v-.1h-.6l-.1.1v.1s0 .1-.1.1v.1l-.1.1-.1.1-.1.1h.3s.1 0 .1-.1h.1s.1 0 .1-.1h.2v.1s0 .1.1.1h.2v.1h.1l.1-.1h.1l.1-.1h.2v-.1c-.1-.1-.1-.1 0-.2zm-3.3 3.7c.1 0 .1-.1.2-.1V-497.6h-.2c-.1 0 0 0 0 .1v.1c-.1.1-.1.2 0 .2-.1 0 0 0 0 0zm-1.3 3.1s0 .1 0 0l.1.1h1.3c.1 0 .1-.1.2-.1h.5v-1s0-.1 0 0v.2-.1h.1v-.1h-.1v-.1s0-.1-.1-.1h-.1v-.2s-.1 0-.1.1l-.1.1v.6s0 .1-.1.1v.1l-.1.1h-.2c-.1 0 0 0 0 .1v.4s0 .1-.1.1v.1h-.2v.3c-1-.8-1-.8-1-.7zm22.8 21.9l-.1.1s-.1 0 0 .1h.2c0-.1 0-.1-.1-.2.1 0 .1 0 0 0 .1-.1.1 0 0 0zm7.9-6.4s-.1.1 0 0l-.1.1-.1.1h.1s.1 0 .1-.1c-.1.1 0-.1 0-.1zm-2 2.8l-.1.1c0 .2 0 .1.1-.1 0 .2 0 .2 0 0zm2-2.3c0 .1 0 .1.1.1h.1-.1c.1-.1 0-.1-.1-.1.1 0 .1 0 0 0 .1 0 0 0 0 0zm.8 0l.1-.1v-.1l-.1.1v.1c-.2-.1-.2-.1 0 0-.2-.1-.2 0 0 0-.1 0-.1.1-.1.1l.1-.1c-.2 0-.2 0 0 0-.2 0-.2 0 0 0zm-.8.2c.1 0 0 0 0 0zm.6-.5l.1-.1s.1 0 .1-.1l.1-.1.1-.1s0-.1.1-.1v-.1l-.1.1-.1.1h-.1s-.1 0-.1.1l-.1.1s-.1 0-.1.1-.1.1-.1.1c.1.2.1.2.2 0 0 .2 0 .2 0 0zm-.3.4c0 .1 0 .1 0 0l-.1.1h-.1c-.1 0-.1.1-.1.1l-.1.1v.1s.1 0 .1-.1h.2c0-.1.1-.1.1-.3 0 .1 0 .1 0 0 .1 0 .1 0 0 0 .1-.1 0 0 0 0zm-.2.8c-.1.1-.2.1-.2.1s0 .1-.1.1c0 0 0 .1-.1.1v-.1l-.1.1-.1.1-.1.1v.1l-.1.1h-.1v.1l-.1.1v.4l.1-.1v-.1l.1-.1.1-.1.1-.1v-.2l.1-.1h.2s-.1 0-.1.1c0 0 .1 0 .1-.1l.1-.1.1-.1.1-.1v-.2zm-1.1-7.2c.1 0 .1 0 0 0zm-.7 8.8c-.1 0-.1 0 0 0l-.1.1.1-.1c0 .1 0 .1 0 0zm1.4-2.9l.1-.1V-478.9h-.1s0 .1-.1.1c.1.2.1.2.1.3 0 .1 0 0 0 0zm.5-.2h.5s.1 0 .1-.1h.1c.1 0 .1-.1.1-.1v-.1s0-.1.1-.1v-.5l-.1.1v.1s0 .1-.1.1c0 0 0 .1-.1.1l-.1.1s-.1 0-.1.1h-1l-.1.1c.6.2.6.2.7.2zm-.1.3s.1 0 0 0l.2.1h.1s.1 0 .1-.1v-.1c0-.1 0 0 0 0H-4743.8s-.1 0-.1.1zm.9 0l-.1.1v.1l-.1.1-.1.1.1-.1.1-.1v-.1c.1.1.1.1.1-.1 0 .2 0 0 0 0zm-6.9-.6zm1.2-29.6s-.1 0 0 0c-.1 0 0 0 0 0zm8.5 23.2s0-.1 0 0v-.3h-.1s0 .1-.1.1c0 0-.1 0-.1.1v.1c0 .1-.1.1-.1.2v.1c0 .1 0 0 0 0 0 .1.1.1.1.1h.2v-.2c.1-.1.1-.1.1-.2zm.9-8.2c-.1-.1-.1-.2-.1-.2h-.2v-1.1l-.1.1v.1c-.1 0 0 .1 0 .1h-.2s-.1 0-.1-.1h-.2v.1l-.1.1v.2c0-.1-.1-.1-.1-.2s-.1-.1-.1-.2c0 0 0-.1-.1-.1 0 0 0-.1-.1-.1v-.2l-.1-.1v-.1h.1c.1 0 0 0 0 0v-.4c0-.1.1-.2.1-.3v-.4c0-.1-.1-.1-.1-.2v-.5s0-.1-.1-.1c0 0-.1-.1-.1 0v.6V-496.9s0-.1-.1-.1l-.1-.1v-.2H-4741.4v-.1s0-.1-.1-.1l-.1-.1h-.4s-.1 0-.1-.1l-.1-.1c0-.1-.1-.1-.1-.2h-.1v-.4h.3s.1 0 .1.1h.1v.4h.1v.1l.1.1h.4v-.4s-.1-.1 0-.1v-.2s0-.1-.1-.1v-.4.6s-.1 0 0 0v.1l-.1-.1h-.3v-.1s0-.1-.1-.1v-.2l-.1-.1v-.4l-.1-.1v-.1l-.1-.1s-.1 0-.1-.1c0 0 0-.1-.1-.1v-.1.1l.1.1v-.4h.2v.3l.1.1s0 .1.1.1v.2l.1.1c0 .1.1.1.1.2v-1c0-.1 0-.1-.1-.2 0-.1 0-.1-.1-.2 0-.1-.1-.1-.1-.2 0 0 0-.1-.1-.1l-.1-.1-.2-.2v-.1c0-.1-.1-.2-.1-.2-.1-.2-.2-.3-.2-.5-.1-.2-.2-.3-.3-.5 0-.1-.1-.1-.1-.2l-.2-.2c-.1-.1-.1-.1-.1-.2l-.1-.1-.3-.3-.2-.2-.1-.1c-.1-.1-.1-.2-.2-.2l-.1-.1h-.2s-.1 0-.1-.1l-.1-.1-.1-.1-.1-.1-.1-.1s-.1 0-.1-.1l-.2-.2c-.1 0-.1-.1-.2-.1h-.1l-.1-.1-.1-.1-.1-.1-.1-.1-.2-.2c0-.1-.1-.1-.1-.2l-.2-.2c-.1-.1-.2-.1-.2-.2s-.1-.1-.2-.2-.2-.2-.4-.2l-.1-.1c-.1 0-.1-.1-.2-.1-.1-.1-.3-.2-.5-.3-.1 0-.1-.1-.2-.1l-.1-.1s-.1 0-.2-.1h-.5c-.1 0-.1-.1-.1-.1H-4749.6s-.1 0-.1-.1h-.3l-.1-.1h-.1v-.1l-.1-.1c-.1 0-.1-.1-.2-.1h-.2c-.1 0-.2 0-.2-.1-.1 0-.2-.1-.3-.1-.1 0-.2 0-.2-.1-.1 0-.1-.1-.2-.1h-.2s0 .1.1.1h.1s.1 0 .1.1h.3l.1.1h.3s.1 0 .1.1h.1H-4750.9s-.1-.1-.2-.1c0 0-.1 0-.1-.1s-.1-.1-.2-.1H-4752.2h.8-.2s.1 0 0 .1H-4751.9v.4s.1 0 0 .1H-4752.2v.3h2.2v.4c0 .1 0 0 .1 0 0 0 0 .1-.1.1 0 0 0 .1.1.1v.1h-.1v.1s0 .1.1.1l.1.1.2.2.1.1v.6l.1.1h.1s.1 0 .1.1h.1s0 .1-.1.1v.2c0 .1.1.1.2.2l.1.1s.1 0 .1.1v.2h.2s.1 0 .1.1h.1v.1l.1.1v.4l-.1.1.1.1v.1l-.1.1H-4749.3l-.1-.1H-4749.7s0-.1-.1-.1h-.1s-.1 0-.1-.1l-.1-.1-.1-.1v-.1l-.1-.1v-.1h-.4s-.1 0-.1-.1c0 0 0-.1-.1-.1H-4751.2s-.1 0-.1.1v.1s0 .1.1.1l.1.1s.1 0 .1.1v.2s.1.1 0 .1v.2l.1.1H-4751.2v-.4h-.5c-.1 0-.1 0-.1.1v.6l.1.1h.1s.1.1 0 .1-.1 0-.2-.1h-.2v.7h-.5v.2l.1.1.1.1h1v.1h1.8l.1.1s.1 0 .1.1c0 0 .1 0 .1.1l.1.1h.1l.1.1s0 .1.1.1c0 0 .1.1.1 0h.1s0 .1-.1.1v.5h1.1c.1 0 .1 0 .1-.1h.8s0 .1.1.1h.2s.1 0 .1-.1v-.2c.1 0 .1-.1.1-.1v-.2h.3s.1 0 .1.1h.1l.1.1.1.1h.1l.1.1s.1 0 .1.1l.1.1h.5s.1 0 .1.1v.1s.1 0 .1.1v.1s0 .1.1.1l.1.1.1.1h.1l.1.1v.4h-.1c-.1 0 0 0 0 0v.2s0 .1.1.1v.1s.1 0 .1.1c0 0 .1.1.2.1h.1s0 .1.1.1h.1v.2h.1v.2s0 .1.1.1l.1.1h-1.1v.2c0 .1.1.1.1.1v.2c0 .1 0 .1.1.2 0 0 0 .1.1.1v.4s0 .1.1.1c0 0 0 .1.1.1v.1h-.1v-.5h-.2v.1l.1.1v.3h-.1c-.1-.1-.2-.1-.2-.2v-.1l-.1-.1v-.6s0-.1-.1-.1v-.1s0-.1-.1-.1c0 0 0-.1-.1-.1 0-.1-.1-.2-.1-.2h-.1c-.1 0-.1 0-.1.1v.3s0 .1-.1.1v.1c0 .1-.1.1-.1.1l-.1.1v.1h-.2s-.1 0-.1.1c0 0-.1 0-.1.1l-.1.1v.4s0 .1-.1.1c0 .1-.1.1-.1.1v.1l.1.1h.1l.1.1s.1 0 0 0v.3s0 .1.1.1h.3v.1c0 .1.1.1.1.1v.5s0 .1.1.1v.2s0 .1.1.1v.2h-.1c-.1 0 0 .1 0 .1v.2h-.1l-.2.2h-.7s-.1-.1-.2 0-.1.1-.1.2l-.1.2-.1.1h-.2s-.1 0-.1-.1v-.2s0-.1-.1-.1v-.2c0-.1 0-.1-.1-.2v-.4c0-.1 0-.1-.1-.2V-494.7l.1-.2c0-.1 0-.1.1-.2v-.2h-.1s-.1 0-.1-.1v-.1h-.1l-.1-.1-.1-.1h-.4c-.1 0-.1 0-.2-.1-.1 0-.1-.1-.2-.1l-.1-.1s0-.1-.1-.1h-.1l-.1-.1s-.1 0-.1-.1c0 0 0-.1-.1-.1h-.1c-.1 0-.1-.1-.2-.1s-.1-.1-.1-.1c-.1-.1-.2-.1-.3-.2l-.1-.1v-.2c-.1 0-.1-.1-.1-.1s-.1 0-.1-.1l-.1-.1c-.1 0-.1-.1-.1-.2s-.1-.1-.1-.2l-.1-.1s-.1 0-.1.1c0 0-.1.1-.2.1s-.1.1-.1.1h-.2v-.4c0-.1 0-.1.1-.2v-.1c0-.1 0-.1-.1-.1h-1.1l-.1.1h-.2v-.5h-.9l-.1.1-.1.1c-.1 0-.1.1-.1.1v.8c0 .1-.1 0-.2 0l-.1-.1-.1-.1h-.3l-.1.1v.2s0 .1-.1.1v.5h-.1v.2c0 .1 0 .1-.1.1h-.1v.1c0 .1 0 .1.1.2 0 .1.1.1 0 .2v.1l.1.1s0 .1.1.1h.1s.1 0 .1.1c0 0 .1 0 .1.1h.7c.1 0 .1 0 .2.1h.1c.1 0 .1.1.1.1l.1.1s0 .1.1.1l.1.1c.1 0 .1.1.2.1s.1.1.2.2l.2.2.3.3.1.1v.3l.1.1c0 .1 0 .1-.1.1h-.1c-.1 0-.1 0-.1.1l.1.1v.4c0 .1 0 .1-.1.1h-.3c-.1 0-.1 0-.1-.1 0 0 0-.1-.1-.1v-.8l-.1-.1h-.2s-.1 0-.1-.1c-.1 0-.1 0-.2-.1h-.4c-.1 0-.1.1-.2.1h-1c-.1 0-.2 0-.3.1 0 0 0 .1-.1.1v.3s-.1 0-.1.1v1.6s.1 0 .1.1c0 0 0 .1.1.2v.2h.1v.2h.3l.1.1h.6c.1 0 .1-.1.2-.1h.1s.1 0 .1-.1c0 0 .1 0 .1-.1h.1c.1 0 .1-.1.2-.1h.1s.1 0 .1-.1l.1-.1c0-.1.1-.1.1-.2l.1-.1.1-.1.1-.1v.2c0 .1-.1.1-.1.2v.6c0 .1 0 .1-.1.2 0 .1-.1.1-.1.2l-.1.1v.2c0 .1.1.1.1.2v.3h.1v.2h.1l.1.1v.1c.1.1.1.1.1.2v.1c0 .1 0 0 .1.1 0 0 .1.1 0 .2v.4l.1.1.1.1c.1 0 .2.1.3.2 0 0 0 .1.1.1v.1s0 .1.1.1h.5s.1 0 .1.1l.1.1c.1.1.2.1.2.2v.1h.5l.1-.1v-.2s0-.1-.1-.1v-.4c0-.1 0-.1.1-.1h.3s0 .1.1.1v.1c0 .1.1.3.1.4v.8c-.1.1-.1.2-.2.2l-.1.1c0 .1 0 .1.1.2v.1l.1.1c0 .1-.1.1-.1.1 0 .1.1.1.1.1l.1.1v.7c0 .1.1.2.1.2h-.2s0 .1-.1.1v.5s0 .1-.1.1c0 0 0 .1-.1.1v.1s0 .1-.1.1h-.6v.3l.1.1.1.1v.5h-.1l-.1.1c-.1 0-.1.1-.1.1l-.1.1s-.1.1 0 .2v.1s0 .1.1.1h.9c.1 0 .1 0 .1-.1h1.1l-.1.1v1.3h-.1s0 .1-.1.1h-.2s-.1 0-.1.1v.5h.6s.1 0 .1-.1h.6l.1-.1v-.1s0-.1.1-.1v.8h1.2v.1l.1.1v.4s0 .1-.1.1c0 0 0 .1-.1.1v.1h.2v.2s0 .1-.1.1v.1l-.1.1v.5h.1l.1-.1v-.3h.1c.1 0 .1-.1.2-.2v-.4l.1-.1v.2h.2v-.2h.1l.1-.1.1-.1s.1 0 .1-.1c0 0 0-.1.1-.1v-.5h.1v-.2s0-.1.1-.1h.3s.1 0 .1-.1v-.1.1h.5v.4s0 .1-.1.1c0 0 0 .1-.1.1v.2h-.1l-.1.1v.1s-.1.1 0 .1h.1l.1-.1h.1l.1-.1.1-.1h.1s.1 0 .1-.1c0 0 .1 0 .1-.1l.1-.1h.2v.2s.1 0 .1-.1l.1-.1.1-.1v-.2l.1-.1.1-.1s0-.1.1-.1l.1-.1v-.1l.1-.1h.1s.1 0 .1-.1c0 0 .1 0 .1-.1h.2s.1 0 .1-.1h.5s0 .1.1 0h.1l.1-.1.1-.1v-.1l.1-.1s0-.1.1-.1l.1-.1v-.1s0-.1.1-.1c0 0 0-.1.1-.1 0 0 0-.1.1-.1 0-.1.1-.1.1-.2 0 0 0-.1.1-.1 0 0 0-.1.1-.1l.1-.1v-.1l.1-.1.1-.1c0-.1 0-.1.1-.2l.1-.1.1-.1s0-.1.1-.1h.2v-.1l.1-.1s0-.1.1-.1l.1-.1.1-.1v-2c0-.1-.1-.1-.1-.2 0 0-.1 0-.1-.1h-.4s-.1 0-.1.1v.9h-.1l-.1.1-.1.1-.1.1v.3h-.2l-.1.1V-485l-.1.1v.1s0 .1-.1.1l-.1.1v.1s0 .1-.1.1c0 0 0 .1-.1.1v.2h-.2v.1s-.1 0-.1.1l-.1.1-.1.1s-.1 0-.1.1h-.1l-.1.1c-.1 0-.1.1-.2.1h-.6s-.1 0-.1-.1v-.4s0-.1.1-.1c0-.1.1-.1.1-.2v-.4s-.1 0-.1.1h-.2v-.3h-.1c-.1 0-.2 0-.2-.1v-.1c0-.1 0 0 0 0v-.1s0-.1.1-.1c0 0 .1 0 .1-.1v-.2c0-.1.1-.1.1-.2v-.1l.1-.1.1-.1.1-.1s.1 0 .1-.1l.1-.1h.1l.1-.1.1-.1v-.1c0-.1 0-.1.1-.1h.1s0-.1.1-.1c0-.1 0-.1.1-.2l.1-.1h.2s0-.1.1-.1l.1-.1v-.6h.2v.4s0 .1.1.1h.2V-487.7s0-.1.1-.1v-.1h.1c.1 0 .1-.1.1-.2V-488.4c0-.1-.1-.2-.1-.3V-489s0-.1.1 0v.1l.1.1s.1.1.1 0v-.2s0-.1.1-.1c0-.1 0-.1.1-.2v-.4l.1-.1v-1.1h.2l.1-.1.1-.1s0-.1.1-.1V-492.5v.1h-.2v-.1s0-.1-.1-.1h-.2v-2.2c.1 1.4.1 1.3.1 1.2 0 .1 0 .1 0 0zm-11.5-16.2c.1 0 0 0 0 0zm.9.3c.2 0 .2 0 0 0l.1.1h-.1v-.1s-.1 0 0 0zm2 1.2s-.1 0 0 0h-.3s0-.1-.1-.1h-.2.2v.1s-.1 0 0-.1v.1h-.1l-.1-.1H-4748.8h.1v.2H-4749l-.1-.1h-.1v-.1c-.1 0-.1-.1-.2-.1h-.2V-508.8l-.1-.1h-.1s.1 0 .1.1h.8s.1 0 .1.1h.4-.2.2s.1 0 .1.1h.1l.1.1h.3c-.1.1-.1.1-.1.2zm-.8 31.8h-.1.1c0-.1.1 0 0 0zm7.5-5.9s0-.1 0 0v.1l-.1.2c0 .1-.1.1-.1.2 0 0 0 .1-.1.1v.1h-.1v-.1l.1-.1V-482.2c.2-.1.2-.2.3-.2zm-1.3 1.1l.1-.1.1-.1.1-.1.1-.1v-.1h.1l.1-.1v-.1.2s0 .1-.1.1v.3s0 .1-.1.1l-.1.1-.1.1-.1.1-.1.1s-.1 0-.1.1l-.1.1.2-.6c0 .1 0 .1 0 0zm-.7.9s.1-.1 0 0c.1-.1.1-.1.2-.1 0 0 .1 0 .1-.1h.1l.1-.1.1-.1.1-.1h.1s.1 0 .1-.1l-.1.1h.1v-.2l.1-.1v.2s-.1 0-.1.1c0 0 0 .1-.1.1l-.1.1s-.1 0-.1.1H-4742.9c-.3.4-.3.3-.3.2.1 0 .1 0 0 0 0 .1 0 .1 0 0zm.8-9.7s0 .1-.1.1v.4s0 .1-.1.1c0 0 0 .1-.1.1h-.1v.3c0 .1-.1.2-.1.2v.1s0 .1-.1.1c0 .1 0 .1-.1.2 0 .1 0 .1-.1.2 0 .1 0 .1-.1.1 0 0 0 .1-.1.1 0 0 0 .1-.1.1v.2c0 .1-.1.1-.1.2v.1l-.1.1-.1.1s0 .1-.1.1c0 0 0 .1-.1.1l-.1.1s0 .1-.1.1c0 0 0 .1-.1.1 0 0 0 .1-.1.1v.3s0 .1-.1.1v.5c0 .1 0 .1-.1.1v.3s0 .1-.1.1c0 0 0 .1-.1.1v-.8c0-.1 0-.1.1-.2v-.3l.1-.2s0-.1.1-.1c0 0 0-.1.1-.1 0-.1.1-.1.1-.2l.1-.1v-.4s0-.1-.1-.1v-.7c0-.1 0-.2.1-.3 0 0 0-.1.1-.1 0 0 .1 0 .1-.1v.4s.1 0 .1-.1.1-.1.1-.2 0-.2.1-.2V-490.1l.1-.1V-490.5c0-.1.1-.1.1-.2l.1-.1v.7s0 .1-.1.1v.2l-.1.1c0 .1-.1.2-.1.3v.7s0-.1.1-.1l.1-.1v-.2s0-.1.1-.1v-.2c0-.1.1-.1.1-.2 0 0 0-.1.1-.1 0 0 0-.1.1-.1 0 0 0-.1.1-.1l.1-.1v-.6l.1-.1.1-.1.1-.1v-.1l.1-.1h.1c.1.8 0 1 0 1zm-6.3-18.4s.1 0 0 0c.1-.1 0-.1 0 0zm5.3 19.4zm1 9.7c0 .1 0 .1 0 0l-.1.2c0 .1-.1.2-.2.2l-.1.1-.1.1-.1.1-.1.1s-.1.1 0 .1c0 0 .1 0 .1-.1l.1-.1c.1-.1.1-.2.2-.2l.1-.1s0-.1.1-.1v-.1l.1-.1v-.1c.1.1.1 0 0 0 .1-.1 0 0 0 0zm.2-.7l.1-.2v-.1c0-.1.1-.1.1-.2 0 0 0-.1.1-.1 0 0 0-.1.1-.1l.1-.1v-.1c0-.1 0-.1.1-.2v.2s0 .1-.1.1c0 0 0 .1-.1.1v.6c-.4-.1-.4 0-.4.1s0 .1 0 0zm.7-.7l-.1.2-.1.1-.1.1v.2s-.1 0-.1.1v.3s0 .1-.1.1c0 0 0 .1-.1.1 0 0 0 .1-.1.1 0 0 0 .1-.1.1v-.2l.1-.1.1-.1s0-.1.1-.1c0 0 0-.1.1-.1 0 0 0-.1.1-.1l.1-.1s0-.1.1-.1c0 0 0-.1.1-.1l.1-.1v-.1c0-.1.1-.1.1-.2-.2.1-.2 0-.2 0zm1.6-5.1c-.1 0-.1 0 0 0-.1 0-.1 0 0 0-.1 0-.1.1-.1.1v.3s.1 0 .1-.1l.1-.1v-.2c-.1.2-.1.1-.1 0zm-1.4 4.4l.1-.1c0-.1 0 0-.1 0v.1c-.1 0-.1.1 0 0l-.1.2v.3c0 .1-.1.1-.1.2 0 0 0 .1-.1.1v.1s0 .1-.1.1l.1-.1s0-.1.1-.1v-.2s0-.1.1-.1c0-.1.1-.2.1-.3v-.2zm.1.1c-.1.1-.1.1-.1.2v.2l.1-.1.1-.1-.1-.2c0 .1 0 0 0 0zm1.1-4zm-4.9 9.6zm-12.3-3.3h1.1V-480.6h-.5s0 .1-.1.1H-4757.4v.2H-4757.7v.1h.5v.1h-.3v.2h.6l-.4.8zm5.2-26.8l.1.1h.3c.1 0 .1 0 .2.1h.1s0-.1-.1-.1l-.1-.1v-.2s0-.1-.1-.1h-.4v.3zm-16.4 15.1h.1v-.1s0-.2-.1-.2h-.1v.1s0 .1.1.2c-.1-.1-.1-.1 0 0zm10 11.3v-.1h-.1v.2l.1-.1zm5.9-26.6h.1v-.1H-4752.8s-.1 0 0 .1l.1.1c0-.1 0-.1.1-.1zm-.2 0zm-16 16v-.1c0-.1.1-.1.1-.2v-.2l-.1-.1v-.1s0 .1-.1.1l-.1.1h-.1s-.1 0-.1.1v.4c0 .1.1.2.1.3 0 .1 0 .1.1.1h.1l.1-.1v-.3zm8 12.4c-.1 0-.1-.1-.2 0-.1 0 0 .1 0 .2h-.1v.1s.1.2.1.1h.2v-.1l.1-.1c.1 0 .2-.1.2-.2-.2.1-.3.1-.3 0zm7.7 6zm-8.2-39.8zm2.4.1c.2 0 .2 0 0 0h2.2-.1s-.1 0 0 0h-.5.5v-.1h1.1-2.1l-.3-.1H-4761v-.1c0-.1 0 0-.1 0h-.5 2.1c.5.3.5.3.6.3zm19.8 17.4c-.1 0-.1 0 0 0 0-.1-.1-.1-.1-.1h-.1s-.1.1 0 .2v.2h.1l.1-.1v-.2c0 .1 0 0 0 0zm.1.1v-.3.1c-.1 0-.1.1 0 .2-.1-.1-.1 0 0 0-.1 0 0 0 0 0v.1-.1zm-9.4 19.8l.1-.1v-.1l.1-.1.1-.1v-.1h-.1l-.1.1h-.1v-.4h-.2c-.1 0 0 0 0 0v.2l-.1.1H-4749.3v-.5l.1-.1v-.1l-.1-.1-.1-.1-.1-.1V-476.3h-.1v.2s0 .1-.1.1v-.5h-.2l-.1.1h-.2v-.1h-.1v.1c0 .1 0 0 0 0-.1 0-.1.1-.1.1l-.1.1h-.1s-.1 0-.1.1l-.1.1H-4751.1h.1-.7.3-.5s-.1 0-.1.1h-1.1v-.1l.1-.1.1-.1v-.1H-4753.2s-.1 0-.1-.1h-.1s-.1 0-.1.1l-.1.1h-.1s-.1.1-.2.1l-.1.1-.1.1v.2l-.1.1-.1.1h-.1l-.1.1s-.1 0-.1.1c-.1 0-.1.1-.1.1l-.1.1-.1.1h-.1v.5h.4l-.1.1h-.2s-.1 0-.1.1H-4755.3s-.1 0-.1.1v.1l-.1.1s-.1 0-.1.1v.2c0 .1-.1.1-.1.1l-.1.1s-.1 0-.1.1l-.1.1s-.1.1 0 .1h.3l.1.1.1.1v.3h1.3v-.1s.1 0 .1-.1c.1 0 .1-.1.1-.2 0 0 0-.1.1-.1v.2c0 .1 0 .1.1.1v.2l-.1.1h-.1s-.1 0-.1.1h.2c.1 0 .1-.1.2-.1 0 0 .1 0 .1-.1h.2s.1 0 .1-.1c0 0 .1 0 .1-.1 0 0 .1 0 .1-.1h.2s.1 0 .1-.1c0 0 .1 0 .1-.1l.1-.1.1-.1s.1 0 .1-.1 0 0 .1-.1V-473.9h.1s.1 0 .1-.1l.1-.1h.3s.1 0 .1-.1h.3s.1 0 .1-.1l.1-.1s.1-.1.1 0l-.1.1-.1.1s-.1 0-.1.1h.7l.1-.1h.5s0 .1-.1.1h-.1s-.1 0-.1.1c0 0-.1 0-.1.1l-.1.1v.1l-.1.1c0 .1.1 0 .1 0h.4c.1 0 .1 0 .1-.1 0 0 .1 0 .1-.1h.1c.1 0 .1-.1.2-.1h.7l.1-.1s.1 0 .1-.1h.3l.1-.1.1-.1h.3s.1 0 0 0c0 0-.1.1-.1 0h.1l.1-.1.1-.1.1-.1c.1 0 .1 0 .1-.1-1.1.7-1.1.7-.9.6zm.3-.2zm.1 0zm0 0c-.1 0-.1 0-.1.1l-.1.1-.1.1-.1.1s.1 0 .1-.1h.2c0-.1 0-.2.1-.3 0 .1 0 .1 0 0zm.5-.6h-.1l-.1.1s-.1 0-.1.1l-.1.1s0 .1-.1.1l-.1.1s0-.1.1-.1c0 0 .1 0 .1-.1 0 0 0-.1.1-.1s.1-.1.2-.1.1 0 .1-.1c0 0 .1 0 0 0zm.5-.4s0 .1 0 0l-.1.1h-.1l-.1.1h.1s0-.1.1-.1.1 0 .1-.1zm.3-.2c0 .1-.1.1 0 0-.1.1-.2.1-.2.2.1 0 .1 0 .1-.1.1 0 .1 0 .1-.1zm-2.4-1c.1 0 .1 0 .2-.1h.1l.1-.1v-.1H-4749s-.1.1-.2.1h-.1c0 .1.1.3.2.2-.1 0 0 0 0 0zm.7 2.6zm-1.3-2.4c0 .1.1.1.1.2h.1s.1 0 .1.1c0 0 .1 0 .1-.1v-.2h-.7v.1c.4-.1.4-.1.3-.1.1 0 .1 0 0 0zm3.4.5l-.1.1c.1.1.1.1.1-.1.1.2.1 0 0 0zm-5.8 3.6l.1-.1v-.1l.1-.1s.1 0 .1-.1h-.1l-.1.1h-.1s-.1 0-.1.1h-.1s-.1 0-.1.1c0 0 0 .1-.1.1h-.5v.1l-.1.1h.8c.1 0 .1-.1.2-.2 0 .1 0 0 0 0zm2.2-3.9h-.1s-.2 0-.2.1h.3v-.2c.2.1.2.1 0 .1.2-.1.2 0 0 0zm-7.3-20h.2v-.3l-.1-.1-.1.1-.1.1v.1l.1.1c-.1-.1-.1-.1 0 0 0-.1 0 0 0 0zm.5-.7h.1v-.1c0-.1-.1-.1-.2-.1h-.2v.1l.3.1zm.4-.7l.1-.1v-.1l-.1-.1h-.1l-.1.1v.1c.1.1.2.1.2.1zm-.6 1.4c0 .1 0 .1.1.2 0 0 .1.1.2.1h.1v-.2l-.1-.1v-.2s-.1 0-.1-.1h-.2v.3zm-.1 2.4zm0 .1zm2.3 2.7zm-.1.1c0 .1-.1.1-.1.1l-.1.1h-.1l-.1.1c0 .1-.1 0-.2 0h-.9s0 .1-.1.1c-.1.1 0 .1 0 .1v.2h.1l.1-.1h.2c.1 0 .1-.1.1-.1l.1-.1s.1-.1.1-.2.1-.1.2-.1l.1-.1.1-.1h.1l.1-.1c.1 0 .1 0 .1-.1v-.1c.4.4.3.4.2.4.1-.1.1-.1 0 0 .1-.1 0-.1 0 0z"/><radialGradient id="ePath_2239_1_" cx="-14262.514" cy="261.755" r="31.792" gradientTransform="translate(9501.767 -762.036)" gradientUnits="userSpaceOnUse"><stop offset=".616" stop-color="#8ed3f5" stop-opacity="0"/><stop offset=".713" stop-color="#7acdf2"/></radialGradient><path id="ePath_2239" class="est11" d="M-4769.4-504.3c.2-.2.3-.4.5-.5.1-.1.1-.1.2-.1.3-.3.8-.7 1.2-1h.3c.5-.4 1.2-.8 2-.9h.3c.1 0 .2 0 .3-.1h.5c.3 0 1 0 1.1.4 0 .1 0 .3-.2.4l-.2.1s-.1 0-.1.1-.1.2-.1.2c-1.2.9-2 2.2-2.4 3.6 0 .1.1.1.1.2s.1.2.2.3c.3.5 1 .9 1.6.9h.5c2.8 0 3.8.1 3.8 1 0 .5-.1 1-.3 1.4-.3.5-.7 1-1.2 1.3-.1 0-.2.1-.7.3-1 .5-2 1.1-2.8 1.8 0 .1 0 .1.1.2s0 .3 0 .3v.4c.1.4 0 .9-.1 1.3v.2c0 .1 0 .1-.1.1.1.2 0 .4-.2.5-.1.1-.3 0-.4-.1-.1-.1-.2-.2-.4-.3-.1-.1-.3-.1-.5-.2-.1.1-.2.1-.3.1h-.1c-.1 0-.2-.1-.3-.1-.3.3-.5.7-.5 1.1 0 .7 0 1.7 2.2 3 .7.4 1.5.7 2.3.7.9 0 1.7-.3 2.5-.7.3-.2.8-.3 1.1-.4.4-.1.9-.2 1.3-.2 1.3 0 2.5.5 3.4 1.5.3.3.4.9.2 1.3s-.5.7-1.1.7h-.3c-.5-.1-1.3.4-2.4 1.2-.2.1-.4.3-.7.4-1.4.9-2.9 1.3-4.6 1.2-.4 0-.9 0-1.3-.1.4.4 1 .9 1.5 1.1.3.1.6.1 1.1.2.7 0 1.3.2 1.8.7.1.1.1.3 0 .4l-.1.1c1 .3 2 .4 2.9.4.4 0 .9 0 1.3-.1h.1c.8-.1 1.5-.3 2.1-.8.1-.1.3-.1.4 0l.1-.1.3-.3c.4-.4.9-.8 1.4-1.1h.3c.1 0 .1.1.2.2v.5c5.2 2.3 15.5-26.4-8.1-28.2-5.9-.2-10.6 2.3-12.5 4.8 1.3.5 2.1.6 2.8.7z"/><linearGradient id="ePath_2240_1_" gradientUnits="userSpaceOnUse" x1="-12170.17" y1="91.261" x2="-12165.342" y2="83.663" gradientTransform="matrix(2.1012 0 0 1.8327 20818.97 -660.71)"><stop offset="0" stop-color="#1d406f"/><stop offset="1" stop-color="#141728"/></linearGradient><path id="ePath_2240" class="est12" d="M-4759.4-486c-.1.1 0 .5.2.4.1 0 .3 0 .4-.1 0 0 .1.2 0 .3-.1.1-.5 0 0 .2.4.2.7.1.7 0s.2-.4.3-.3c.1-.1-.2-.3-.1-.4.2-.1 0-.5 0-.5-.1 0-.3.1-.3.2-.1.2-.2 0-.3 0 0 .1 0 .1-.1.2l-.1-.1c-.2-.1-.7-.1-.7.1z"/><path id="ePath_2245" class="est13" d="M-4759.6-512.1c8.1 0 15.5 4.6 19.2 11.7-5.4-10.6-18.3-14.8-28.9-9.5-10.6 5.4-14.8 18.3-9.5 28.9-5.3-10.6-1-23.6 9.6-28.9 3-1.4 6.2-2.2 9.6-2.2z"/><radialGradient id="ePath_2246_1_" cx="-14315.804" cy="276.325" r="41.274" gradientTransform="translate(9569.365 -760.857)" gradientUnits="userSpaceOnUse"><stop offset=".119" stop-color="#fff"/><stop offset=".122" stop-color="#fffffa"/><stop offset=".25" stop-color="#ffe560"/><stop offset=".287" stop-color="#ffdf56"/><stop offset=".347" stop-color="#f8d03b"/><stop offset=".406" stop-color="#f0be1b"/><stop offset=".473" stop-color="#eb9d23"/><stop offset=".548" stop-color="#e57c27"/><stop offset=".765" stop-color="#dd5626"/><stop offset=".903" stop-color="#c33a28"/><stop offset="1" stop-color="#b02228"/></radialGradient><path id="ePath_2246" class="est14" d="M-4743.4-477.8c1.2-2.4 2.9-3.7 3.8-5.3 1.2-2.2 3.5-8.2 1.7-13.1.8 3 .5 6.2-2 7.7.9-2.2 1.3-6.8.4-11.2-.5-2.7-2.3-5.2-3.4-6 1.1.8 1.8 3.6 1.8 4.9-2.4-4.2-6.4-7.3-11.1-8.7 4.1 2.7 5.7 5.1 6.7 7.2-1.1-1.1-3-2.3-4.3-2.4 2 1.4 5.2 5.6 4.8 12.1-.5-1.2-1.2-2.3-2.1-3.3.7 6.3.1 7.7-.3 9.3-.1-.5-.2-1.2-.5-1.7-.2 1.6-.7 3.3-1.4 4.8-1 2.2-2 2.8-2.4 2.7-.1 0-.1 0-.2-.1v-.8c-.2.1-.5.3-.7.5s-.2.3-.4.4c0 0 .3-.4.2-.4-.2.1-.3.3-.5.4-.7.7-1.2 1.4-1.5 1.2.3-.1.5-.4.5-.8-.7.4-1.4.8-2.3.9-2.2.3-4.3-.1-6.3-1.1.5-.1 1.2-.1 1.7.1-.5-.5-1.8-.4-2.8-.8-.9-.2-1.8-1.4-2.5-2 2.3.7 4.7.3 6.7-.9 1.5-1.1 2.5-1.8 3.4-1.6.9.2 1.4-.7.8-1.4-1.1-1.2-2.8-1.6-4.3-1.2-1.6.4-3 1.7-5.3.8-.1 0-.3-.1-.4-.2-.1-.1.4.1.3 0-.5-.2-1-.4-1.4-.7 0 0 .3.1.3 0-2.2-1.3-2.1-2.3-2.1-2.9 0-.7.3-1.2.9-1.5.2.1.3.1.5.2 0 0-.1-.2-.2-.3h.1c.4.1.8.3 1.1.4.2.1.4.2.5.4 0 0 .1-.1 0-.2-.1-.2-.3-.4-.5-.5.2.1.4.2.7.3.1-.4.2-.9.1-1.3s-.1-.5-.2-.8c-.1-.1 0-.2.2-.1 0-.1-.1-.2-.1-.3.1-.5 3.4-2.3 3.6-2.4.3-.3.7-.7.9-1.1s.3-.9.2-1.3c0-.4-.2-.7-3.7-.7-.8 0-1.5-.4-2-1.1-.1-.1-.1-.2-.2-.3-.1-.1-.1-.2-.2-.4.4-1.5 1.3-2.9 2.5-3.9.1-.1-.3 0-.2 0 .2-.1.4-.3.8-.4.1-.1-.7-.3-1.2-.1-.3.1-.8.2-1.1.3.1-.1.5-.3.4-.3-.8.2-1.5.5-2.2 1.1v-.2c-.5.3-1 .8-1.3 1.2v-.2c-.2.2-.4.4-.7.8-1.7-.4-3.5-.4-5.2.1-.8-.5-1.3-1.2-1.7-2 0-.1-.1.2-.1.1-.4-.8-.7-1.5-.7-2.4-.4.3-.8.9-1 1.5-.1.2-.1.3-.1.4v-.3c-.1.2-.2.4-.3.7-.1.2-.1.3-.1.5v-.2c-.2.4-.3 1-.4 1.5-.2 1.2-.3 2.4-.2 3.6v.3c-.4.5-.8 1.1-1.1 1.7-1 2.1-1.6 4.2-1.8 6.4.3-.9.7-1.7 1.1-2.5-.8 2.6-1 5.4-.8 8.1.1-.9.2-1.6.4-2.4.1 3.3 1.1 6.4 2.8 9.2 1.5 2.6 5.5 8.7 15.7 11.1-.7-.2-1.3-.5-1.8-1 2.2.7 4.3 1.1 6.5 1.1-.9-.1-1.1-.5-1.1-.5s9.9.5 13.2-4.1c-1.2 1.4-4.1 1.7-5.2 1.7 1.7-1.5 5.4-1.5 9.5-5.5 1.5-1.4 2.5-3.4 2.7-5.4.2 2.3-1.8 3.5-3.9 4.6z"/><radialGradient id="ePath_2247_1_" cx="-14322.783" cy="269.793" r="30.683" gradientTransform="translate(9569.365 -760.857)" gradientUnits="userSpaceOnUse"><stop offset=".656" stop-color="#b02228" stop-opacity="0"/><stop offset=".872" stop-color="#b02127" stop-opacity=".659"/><stop offset=".973" stop-color="#b21f24" stop-opacity=".969"/><stop offset=".984" stop-color="#b21f24"/></radialGradient><path id="ePath_2247" class="est15" d="M-4743.4-477.8c1.2-2.4 2.9-3.7 3.8-5.3 1.2-2.2 3.5-8.2 1.7-13.1.8 3 .5 6.2-2 7.7.9-2.2 1.3-6.8.4-11.2-.5-2.7-2.3-5.2-3.4-6 1.1.8 1.8 3.6 1.8 4.9-2.4-4.2-6.4-7.3-11.1-8.7 4.1 2.7 5.7 5.1 6.7 7.2-1.1-1.1-3-2.3-4.3-2.4 2 1.4 5.2 5.6 4.8 12.1-.5-1.2-1.2-2.3-2.1-3.3.7 6.3.1 7.7-.3 9.3-.1-.5-.2-1.2-.5-1.7-.2 1.6-.7 3.3-1.4 4.8-1 2.2-2 2.8-2.4 2.7-.1 0-.1 0-.2-.1v-.8c-.2.1-.5.3-.7.5s-.2.3-.4.4c0 0 .3-.4.2-.4-.2.1-.3.3-.5.4-.7.7-1.2 1.4-1.5 1.2.3-.1.5-.4.5-.8-.7.4-1.4.8-2.3.9-2.2.3-4.3-.1-6.3-1.1.5-.1 1.2-.1 1.7.1-.5-.5-1.8-.4-2.8-.8-.9-.2-1.8-1.4-2.5-2 2.3.7 4.7.3 6.7-.9 1.5-1.1 2.5-1.8 3.4-1.6.9.2 1.4-.7.8-1.4-1.1-1.2-2.8-1.6-4.3-1.2-1.6.4-3 1.7-5.3.8-.1 0-.3-.1-.4-.2-.1-.1.4.1.3 0-.5-.2-1-.4-1.4-.7 0 0 .3.1.3 0-2.2-1.3-2.1-2.3-2.1-2.9 0-.7.3-1.2.9-1.5.2.1.3.1.5.2 0 0-.1-.2-.2-.3h.1c.4.1.8.3 1.1.4.2.1.4.2.5.4 0 0 .1-.1 0-.2-.1-.2-.3-.4-.5-.5.2.1.4.2.7.3.1-.4.2-.9.1-1.3s-.1-.5-.2-.8c-.1-.1 0-.2.2-.1 0-.1-.1-.2-.1-.3.1-.5 3.4-2.3 3.6-2.4.3-.3.7-.7.9-1.1s.3-.9.2-1.3c0-.4-.2-.7-3.7-.7-.8 0-1.5-.4-2-1.1-.1-.1-.1-.2-.2-.3-.1-.1-.1-.2-.2-.4.4-1.5 1.3-2.9 2.5-3.9.1-.1-.3 0-.2 0 .2-.1.4-.3.8-.4.1-.1-.7-.3-1.2-.1-.3.1-.8.2-1.1.3.1-.1.5-.3.4-.3-.8.2-1.5.5-2.2 1.1v-.2c-.5.3-1 .8-1.3 1.2v-.2c-.2.2-.4.4-.7.8-1.7-.4-3.5-.4-5.2.1-.8-.5-1.3-1.2-1.7-2 0-.1-.1.2-.1.1-.4-.8-.7-1.5-.7-2.4-.4.3-.8.9-1 1.5-.1.2-.1.3-.1.4v-.3c-.1.2-.2.4-.3.7-.1.2-.1.3-.1.5v-.2c-.2.4-.3 1-.4 1.5-.2 1.2-.3 2.4-.2 3.6v.3c-.4.5-.8 1.1-1.1 1.7-1 2.1-1.6 4.2-1.8 6.4.3-.9.7-1.7 1.1-2.5-.8 2.6-1 5.4-.8 8.1.1-.9.2-1.6.4-2.4.1 3.3 1.1 6.4 2.8 9.2 1.5 2.6 5.5 8.7 15.7 11.1-.7-.2-1.3-.5-1.8-1 2.2.7 4.3 1.1 6.5 1.1-.9-.1-1.1-.5-1.1-.5s9.9.5 13.2-4.1c-1.2 1.4-4.1 1.7-5.2 1.7 1.7-1.5 5.4-1.5 9.5-5.5 1.5-1.4 2.5-3.4 2.7-5.4.2 2.3-1.8 3.5-3.9 4.6z"/><radialGradient id="ePath_2248_1_" cx="-14319.939" cy="259.398" r="31.325" gradientTransform="translate(9569.365 -760.857)" gradientUnits="userSpaceOnUse"><stop offset=".71" stop-color="#ed6624" stop-opacity="0"/><stop offset=".835" stop-color="#ed6824" stop-opacity=".49"/><stop offset=".88" stop-color="#ee6d24" stop-opacity=".667"/><stop offset=".912" stop-color="#ef7624" stop-opacity=".792"/><stop offset=".938" stop-color="#f28223" stop-opacity=".894"/><stop offset=".96" stop-color="#f59123" stop-opacity=".98"/><stop offset=".966" stop-color="#f69622"/></radialGradient><path id="ePath_2248" class="est16" d="M-4743.4-477.8c1.2-2.4 2.9-3.7 3.8-5.3 1.2-2.2 3.5-8.2 1.7-13.1.8 3 .5 6.2-2 7.7.9-2.2 1.3-6.8.4-11.2-.5-2.7-2.3-5.2-3.4-6 1.1.8 1.8 3.6 1.8 4.9-2.4-4.2-6.4-7.3-11.1-8.7 4.1 2.7 5.7 5.1 6.7 7.2-1.1-1.1-3-2.3-4.3-2.4 2 1.4 5.2 5.6 4.8 12.1-.5-1.2-1.2-2.3-2.1-3.3.7 6.3.1 7.7-.3 9.3-.1-.5-.2-1.2-.5-1.7-.2 1.6-.7 3.3-1.4 4.8-1 2.2-2 2.8-2.4 2.7-.1 0-.1 0-.2-.1v-.8c-.2.1-.5.3-.7.5s-.2.3-.4.4c0 0 .3-.4.2-.4-.2.1-.3.3-.5.4-.7.7-1.2 1.4-1.5 1.2.3-.1.5-.4.5-.8-.7.4-1.4.8-2.3.9-2.2.3-4.3-.1-6.3-1.1.5-.1 1.2-.1 1.7.1-.5-.5-1.8-.4-2.8-.8-.9-.2-1.8-1.4-2.5-2 2.3.7 4.7.3 6.7-.9 1.5-1.1 2.5-1.8 3.4-1.6.9.2 1.4-.7.8-1.4-1.1-1.2-2.8-1.6-4.3-1.2-1.6.4-3 1.7-5.3.8-.1 0-.3-.1-.4-.2-.1-.1.4.1.3 0-.5-.2-1-.4-1.4-.7 0 0 .3.1.3 0-2.2-1.3-2.1-2.3-2.1-2.9 0-.7.3-1.2.9-1.5.2.1.3.1.5.2 0 0-.1-.2-.2-.3h.1c.4.1.8.3 1.1.4.2.1.4.2.5.4 0 0 .1-.1 0-.2-.1-.2-.3-.4-.5-.5.2.1.4.2.7.3.1-.4.2-.9.1-1.3s-.1-.5-.2-.8c-.1-.1 0-.2.2-.1 0-.1-.1-.2-.1-.3.1-.5 3.4-2.3 3.6-2.4.3-.3.7-.7.9-1.1s.3-.9.2-1.3c0-.4-.2-.7-3.7-.7-.8 0-1.5-.4-2-1.1-.1-.1-.1-.2-.2-.3-.1-.1-.1-.2-.2-.4.4-1.5 1.3-2.9 2.5-3.9.1-.1-.3 0-.2 0 .2-.1.4-.3.8-.4.1-.1-.7-.3-1.2-.1-.3.1-.8.2-1.1.3.1-.1.5-.3.4-.3-.8.2-1.5.5-2.2 1.1v-.2c-.5.3-1 .8-1.3 1.2v-.2c-.2.2-.4.4-.7.8-1.7-.4-3.5-.4-5.2.1-.8-.5-1.3-1.2-1.7-2 0-.1-.1.2-.1.1-.4-.8-.7-1.5-.7-2.4-.4.3-.8.9-1 1.5-.1.2-.1.3-.1.4v-.3c-.1.2-.2.4-.3.7-.1.2-.1.3-.1.5v-.2c-.2.4-.3 1-.4 1.5-.2 1.2-.3 2.4-.2 3.6v.3c-.4.5-.8 1.1-1.1 1.7-1 2.1-1.6 4.2-1.8 6.4.3-.9.7-1.7 1.1-2.5-.8 2.6-1 5.4-.8 8.1.1-.9.2-1.6.4-2.4.1 3.3 1.1 6.4 2.8 9.2 1.5 2.6 5.5 8.7 15.7 11.1-.7-.2-1.3-.5-1.8-1 2.2.7 4.3 1.1 6.5 1.1-.9-.1-1.1-.5-1.1-.5s9.9.5 13.2-4.1c-1.2 1.4-4.1 1.7-5.2 1.7 1.7-1.5 5.4-1.5 9.5-5.5 1.5-1.4 2.5-3.4 2.7-5.4.2 2.3-1.8 3.5-3.9 4.6z"/><radialGradient id="ePath_2249_1_" cx="-14228.397" cy="307.594" r="10.077" gradientTransform="translate(9469.207 -809.137)" gradientUnits="userSpaceOnUse"><stop offset="0" stop-color="#e05a27" stop-opacity=".102"/><stop offset=".306" stop-color="#de5926" stop-opacity=".843"/><stop offset=".556" stop-color="#b02228"/></radialGradient><path id="ePath_2249" class="est17" d="M-4760.3-499.5c0-.4-.3-.8-3.8-.7-1.1-.1-2-.8-2.3-1.7-.4 1.4-.4 2.9-.1 4.3.2 1 .8 1.8 1.4 2.6.1.1.1.1.2.1.1-.3 3.3-2.1 3.5-2.3.7-.4 1.1-1.3 1.1-2.3z"/><radialGradient id="ePath_2250_1_" cx="-14226.373" cy="300.04" r="8.483" gradientTransform="translate(9458.547 -822.343)" gradientUnits="userSpaceOnUse"><stop offset="0" stop-color="#e05a27" stop-opacity="0"/><stop offset=".446" stop-color="#dd5a26" stop-opacity=".8"/><stop offset=".722" stop-color="#b02228"/></radialGradient><path id="ePath_2250" class="est18" d="M-4765-499.8s1.2.5 1.4 1c.1.1-.6-.2-.5-.1 0 .1.9.5.9.8 0 .1-.4-.2-.8-.2.1.1.3.3.2.4-.1.1-.5.2-.7.2-1.1.8 1.5.9 2.5.3.7-.3 1.2-.8 1.6-1.4 0-.1.3-1.1-1.6-.8-1 .3-2.1.2-3-.2z"/><radialGradient id="ePath_2251_1_" cx="-14133.854" cy="440.802" r="22.833" gradientTransform="translate(9382.84 -936.75)" gradientUnits="userSpaceOnUse"><stop offset=".463" stop-color="#f0b91c"/><stop offset=".722" stop-color="#e36024"/><stop offset=".782" stop-color="#db5825"/><stop offset=".876" stop-color="#c74127"/><stop offset=".97" stop-color="#b02228"/></radialGradient><path id="ePath_2251" class="est19" d="M-4748.6-473.5c-1.5.8-3 1.2-4.7 1.5 4.8-1.5 6.4-3.5 7.2-4.9 2.5-.4 7-2.7 7.2-5.3-.2 3.6-3.1 6.1-5.3 7.5-2.5 1.7-4.7 1.8-6.5 3 .7-.5 1.5-1.1 2.1-1.8z"/><radialGradient id="ePath_2252_1_" cx="-14049.781" cy="302.284" r="27.617" gradientTransform="translate(9314.783 -785.307)" gradientUnits="userSpaceOnUse"><stop offset=".306" stop-color="#ffe300"/><stop offset=".482" stop-color="#f8c91e"/><stop offset=".836" stop-color="#e36024"/><stop offset="1" stop-color="#e36024"/></radialGradient><path id="ePath_2252" class="est20" d="M-4737.7-496.1c1.5 4.9-1 7-2 7.7 1.3-3.7 1.8-8.1.3-12.1-.7-2-1.7-3.6-3.3-5 2.3 2.5 2.9 6 1.7 9.1.4 2.3-1 8.8.8 8.5-.4 3.3-1.3 6.4-2.6 9.3 1.2-1.8 2.8-3.5 3.6-4.9 1.4-2.8 3.1-8.1 1.5-12.6z"/><radialGradient id="ePath_2253_1_" cx="-14088.478" cy="355.355" r="11.229" gradientTransform="translate(9345.304 -848.882)" gradientUnits="userSpaceOnUse"><stop offset=".089" stop-color="#fff"/><stop offset=".115" stop-color="#fffef7"/><stop offset=".151" stop-color="#fffbe8"/><stop offset=".193" stop-color="#fff7d0"/><stop offset=".239" stop-color="#fff2af"/><stop offset=".289" stop-color="#ffec85"/><stop offset=".342" stop-color="#ffe643"/><stop offset=".373" stop-color="#ffe300"/><stop offset=".418" stop-color="#ffdb00"/><stop offset=".494" stop-color="#f6c713"/><stop offset=".538" stop-color="#f0b91c"/><stop offset="1" stop-color="#e36024"/></radialGradient><path id="ePath_2253" class="est21" d="M-4743.6-494.9c-.4 1.2-.7 2.4-.7 3.7-.9-3.1-2.5-4.4-2.5-4.4.2 2.5.7 6.3-.3 9.4.2 1.8.1 3.8-.5 5.6 1.4-1.6 3.4-3 3.7-4.3v-.1c.7 0 1.3-.3 1.7-.9.4-.9 1.7-3.4 1.8-4.7-1.7-.9-2.8-2.5-3.2-4.3z"/><radialGradient id="ePath_2254_1_" cx="-14108.736" cy="330.994" r="20.379" gradientTransform="translate(9367.738 -823.165)" gradientUnits="userSpaceOnUse"><stop offset=".089" stop-color="#fff"/><stop offset=".115" stop-color="#fffef7"/><stop offset=".151" stop-color="#fffbe8"/><stop offset=".193" stop-color="#fff7d0"/><stop offset=".239" stop-color="#fff2af"/><stop offset=".289" stop-color="#ffec85"/><stop offset=".342" stop-color="#ffe643"/><stop offset=".373" stop-color="#ffe300"/><stop offset=".418" stop-color="#ffdb00"/><stop offset=".494" stop-color="#f6c713"/><stop offset=".538" stop-color="#f0b91c"/><stop offset=".741" stop-color="#e27327"/><stop offset=".942" stop-color="#dd5a26"/></radialGradient><path id="ePath_2254" class="est22" d="M-4744.1-486.7c3.9-5.5 2.6-11.3 2.2-13 5.6 9.3-.1 20-1.3 21.9-.9.4-1.8.9-2.9 1 .5-1 .9-2.1.8-3.1-.9 2.1-3.9 3.7-5.6 4.2 2.9-2.2 6.2-8.1 6.8-11z"/><radialGradient id="ePath_2255_1_" cx="-14165.606" cy="383.197" r="17.253" gradientTransform="translate(9421.363 -880.675)" gradientUnits="userSpaceOnUse"><stop offset=".089" stop-color="#fff"/><stop offset=".106" stop-color="#fffef7"/><stop offset=".13" stop-color="#fffbe8"/><stop offset=".158" stop-color="#fff7d0"/><stop offset=".189" stop-color="#fff2af"/><stop offset=".222" stop-color="#ffec85"/><stop offset=".257" stop-color="#ffe643"/><stop offset=".277" stop-color="#ffe300"/><stop offset=".319" stop-color="#ffdb00"/><stop offset=".39" stop-color="#f6c713"/><stop offset=".43" stop-color="#f0b91c"/><stop offset=".505" stop-color="#ea9e23"/><stop offset=".632" stop-color="#e27327"/><stop offset=".801" stop-color="#df6427"/><stop offset=".948" stop-color="#dd5a26"/></radialGradient><path id="ePath_2255" class="est23" d="M-4744.8-490.8s.3 4.8-2.1 8.7c.4-2 .2-4-.7-6-.1 1.3-.4 2.6-1 3.9-1.3 3.3-2.5 3.9-3 3.6-1 4-7.8 3.9-7.8 3.9 1.5.4 6.9.7 10.8-2.3-.9 1.8-2.4 3.4-4.3 4.2 2.9-.2 6.7-3.3 7.4-5.2 0 1.1-.2 2.2-.8 3.1 5-5.4 1.5-13.9 1.5-13.9z"/><linearGradient id="ePath_2256_1_" gradientUnits="userSpaceOnUse" x1="-10385.022" y1="24.137" x2="-10385.195" y2="23.108" gradientTransform="matrix(16.788 0 0 12.2726 169584.984 -796.275)"><stop offset="0" stop-color="#fff038"/><stop offset=".003" stop-color="#ffec33"/><stop offset=".051" stop-color="#ffd92f"/><stop offset=".136" stop-color="#fcbc29"/><stop offset=".214" stop-color="#f9a725"/><stop offset=".281" stop-color="#f79b23"/><stop offset=".33" stop-color="#f69622"/><stop offset=".82" stop-color="#de5b26" stop-opacity=".059"/></linearGradient><path id="ePath_2256" class="est24" d="M-4760-474.1c2.5-.2 4.6-.8 6-2.6-1.7.3-3.5.3-5.2 0 1.4 0 2.7-.1 4-.5 3.3-.7 6.1-2.7 7.7-5.6-.1 8.1-8.5 9.9-12.5 8.7z"/><linearGradient id="ePath_2257_1_" gradientUnits="userSpaceOnUse" x1="-10787.029" y1="29.454" x2="-10787.423" y2="30.074" gradientTransform="matrix(6.521 0 0 10.646 65561.883 -807.97)"><stop offset=".169" stop-color="#b02228"/><stop offset=".406" stop-color="#bf3628" stop-opacity=".745"/><stop offset=".623" stop-color="#c84228" stop-opacity=".51"/><stop offset="1" stop-color="#e05a27" stop-opacity="0"/></linearGradient><path id="ePath_2257" class="est25" d="M-4776.2-505.7s0 .3 0 0c-.4-.7-.8-1.5-.8-2.3-.4.3-.8.9-1 1.5-.1.2-.1.3-.1.4v-.3c-.1.2-.2.4-.3.7-.1.2-.1.4-.1.5v-.2c-.7 1.7-.9 3.6-.7 5.4 1.2-1.6 2.9-2.9 4.8-3.7-.7-.4-1.4-1.2-1.8-2z"/><linearGradient id="ePath_2258_1_" gradientUnits="userSpaceOnUse" x1="-10670.131" y1="42.365" x2="-10669.697" y2="42.643" gradientTransform="matrix(7.925 0 0 5.4292 79800.695 -725.564)"><stop offset=".075" stop-color="#dd5a26"/><stop offset=".298" stop-color="#e9986d"/><stop offset=".667" stop-color="#f4d4ac"/><stop offset="1" stop-color="#f9f7c9"/></linearGradient><path id="ePath_2258" class="est26" d="M-4761.2-497.3c.4-.3.8-.9 1-1.4-.1 0-.1-.1-.2 0-.4.4-1 .9-1.4 1.3.2-.2.4-.3.5-.5-.7.5-1.5.8-2.3.8.4 0 .8-.1 1.1-.3-.4.2-1 .2-1.5.2-.1 0 .9-.1.8-.1-.4-.1-.8-.1-1.2 0-.2.1-.4.3-.7.5.1-.1.2-.3.2-.4-.2.2-.5.4-.9.7 0-.1.8-.7.7-.7-.1.1-.4.2-.7.4-.1 0 .4-.4.4-.4-.9.2-.8.7-.8.8v.1c.2.4.5.9.9 1.3.2.3.3.7.3.5.1-.8 3.4-2.6 3.8-2.8z"/><linearGradient id="ePath_2259_1_" gradientUnits="userSpaceOnUse" x1="-10742.29" y1="41.407" x2="-10741.022" y2="42.2" gradientTransform="matrix(6.994 0 0 5.6207 70371.258 -728.313)"><stop offset=".043" stop-color="#dd5a26"/><stop offset=".258" stop-color="#eca77c"/><stop offset="1" stop-color="#f9f7c9"/></linearGradient><path id="ePath_2259" class="est27" d="M-4760.5-498.5v-.3c0 .5-.3 1.1-.8 1.4-.1.1 0-.3-.2-.1-.7.9-1.7 1.4-2.8 1.4-.1 0 .8-.3.7-.3-.2 0-.4.1-1.1.3-.1 0 .7-.4.5-.4-.1 0-.4.3-1 .5.2-.2.5-.4.4-.4-.3.2-.7.4-.9.7.1.2.2.3.3.5.2.3.3.7.3.5.7-.9 3.4-2.1 4-2.7.6-.7.4-.6.6-1.1z"/><radialGradient id="ePath_2260_1_" cx="-14264.587" cy="361.548" r="12.197" gradientTransform="translate(9504.832 -869.988)" gradientUnits="userSpaceOnUse"><stop offset=".5" stop-color="#e05a27" stop-opacity="0"/><stop offset=".75" stop-color="#de5926" stop-opacity=".776"/><stop offset=".95" stop-color="#b02228"/></radialGradient><path id="ePath_2260" class="est28" d="M-4764.5-480c-3.5-1.1-7.4-2.7-7.7-7.2-.4-6 5.1-5.3 5.1-5.3-.3.2-.7.5-.8 1-.3 1 0 2.1.8 2.7 2 1.7-3.3 4.9 5.5 9-.9.1-1.9 0-2.9-.2z"/><linearGradient id="ePath_2261_1_" gradientUnits="userSpaceOnUse" x1="-11874.968" y1="60.782" x2="-11873.915" y2="61.952" gradientTransform="matrix(2.4571 0 0 3.4058 24420.95 -700.239)"><stop offset="0" stop-color="#37383a"/><stop offset=".651" stop-color="#7b3f3d"/><stop offset="1" stop-color="#dd5a26"/></linearGradient><path id="ePath_2261" class="est29" d="M-4760.3-498.5c.1-.4.3-1.3-.2-1.5-.4-.1-1-.2-1.5-.1.2.1.9.2 1.1.5.2.7.2 1.4 0 2.1.3-.3.5-.6.6-1z"/><radialGradient id="ePath_2262_1_" cx="-14259.538" cy="398.491" r="11.184" gradientTransform="translate(9493.736 -906.41)" gradientUnits="userSpaceOnUse"><stop offset=".5" stop-color="#e05a27" stop-opacity="0"/><stop offset=".656" stop-color="#dd5a26"/><stop offset=".815" stop-color="#b02228"/></radialGradient><path id="ePath_2262" class="est30" d="M-4765.8-482.9c2.4.5 5.1.2 6.7-.9 1.1-.8 2.5-1.7 3.3-1.6-.7-.2-1.3-.3-2.1-.2h-.3c-.2 0-.4.1-.8.1-.4.2-.9.3-1.3.4 0 0 .4-.2.3-.2-.2.1-.4.1-.8.2-.1 0-.3.1-.4.1-4.9.9-9.2-1.7-9.2-1.7-.3 1.1 1.9 3.1 4.6 3.8z"/><radialGradient id="ePath_2263_1_" cx="-14120.739" cy="282.772" r="21.068" gradientTransform="translate(9372.31 -761.24)" gradientUnits="userSpaceOnUse"><stop offset="0" stop-color="#ffe000" stop-opacity="0"/><stop offset=".355" stop-color="#fed700" stop-opacity=".514"/><stop offset=".483" stop-color="#fed208" stop-opacity=".698"/><stop offset=".857" stop-color="#fed208" stop-opacity="0"/></radialGradient><path id="ePath_2263" class="est31" d="M-4745.1-502.3c1.1 1.2 2 2.5 2.7 3.9.5 1.3 1 2.6 1.2 4 0-1.6-.3-3.3-.9-4.9-1-3-2.8-5.6-5.3-7.7-1.4-.9-2.8-1.7-4.2-2.5-.1.2 4.8 3.1 6.5 7.2z"/><radialGradient id="ePath_2264_1_" cx="-14332.735" cy="268.466" r="26.992" gradientTransform="translate(9566.754 -772.619)" gradientUnits="userSpaceOnUse"><stop offset="0" stop-color="#ed6624"/><stop offset="1" stop-color="#f69622"/></radialGradient><path id="ePath_2264" class="est32" d="M-4771.8-502.7s-.9.1-2.6 1.5c-.6.5-1.2 1.1-1.7 1.6-.8.9-1.4 1.8-2 2.8.1-.8.3-1.4.7-2.1-1.2 2.1-2 4.4-2.4 6.8 0-1.3.1-2.7.3-4-.2.7-.4 1.4-.5 2.2-.2 1.7-.2 3.6 0 5.3 0 0-.1-.5-.3-1.3.1.7.2 1.3.3 2 .4 1.7 1 3.5 1.6 5.2-.9-1.3-1.6-2.8-2.2-4.3.1.8.4 1.8.8 3 .5 2 1.3 3.8 2.5 5.5 0 0-1.1-1-2.5-4.4-.5-1.3-.9-2.7-1.2-4.1-.1-.8-.2-1.5-.3-2.6 0-.3-.1-.8-.1-1.2-.2.9-.3 1.8-.5 2.7.1-1.8.2-3.7.5-5.5.1-.4.2-.8.3-1.1-.4.9-.8 1.6-.8 1.6s.5-1.6 1.2-3c-.3.7-.7 1.2-.9 1.8.5-1.7 1.2-3.5 2.2-5.1.5-.8 1.1-1.4 1.7-2l.4-.4c.2-.1.3-.2.5-.3.1-.1.2-.1.2-.2 1.1-.9 2.5-1.3 3.9-1.4-.5.1-1.1.3-1.6.7.4-.1.8-.2 1.2-.2-.4.2-.9.4-1.3.7.9-.4 1.7-.7 2.7-.7-1 .2-1.8.7-2.6 1.2l-.1.1c.9-.5 1.8-.7 2.6-.8zm-5 10.1c-.3.1-.7 1.4-.4 4.1.1 1.2.5 2.4 1.2 3.5 0 0-.4-.9-.8-4-.3-2.7 0-3.6 0-3.6zm.8-2.1c-.2 1.8-.2 3.7.1 5.5 0-1.8.1-3.7.4-5.5.7-3 1.5-3.9 1.5-3.9-.2.1-1.5 1.6-2 3.9zm1.2-5.8c-.2.3-.5.5-.7.9-1 1.1-1.7 2.5-2 4-.4 2-.5 4-.2 6.1 0-2.2.3-4.3.8-6.4l.3-1.2c-.1.4-.2 1-.2 1.5.5-2 1.6-3.7 3-5.1.7-.8 1.5-1.4 2.5-1.7-1.2.2-2.5.9-3.5 1.9zm-.9 8.1c-.1 1.1 0 2.3.1 3.4 0-1.2.1-2.5.2-3.7.1-.9.2-1.8.5-2.7-.2.2-.6 1.8-.8 3zm.3-5.7c-.4.8-.8 1.7-1 2.6.4-1.1 1-2.1 1.6-3.1.4-.5.9-1.1 1.3-1.5-.9.5-1.5 1.2-1.9 2zm-3.4 4.9c-.3.1-.8 1.3-.7 4.1 0 1.2.3 2.5 1 3.6 0 0-.4-1-.5-4.1m13.5-16.4c-1 .3-1.7 1-2.4 1.6-.5.7-.9 1.4-1.1 2.3.7-1.6 1.9-3 3.5-3.9zm-1 1.4c-.7.8-1.1 1.6-1.4 2.5.9-1.8 2.5-3.4 4.3-4.2-1.2.2-2.3.9-2.9 1.7zm-11.3-.2c.1-1 .3-1.8.7-2.7-1 1.6-1.2 3.6-.7 5.4-.1-1-.1-1.8 0-2.7zm1.2 2.1c-.3-.8-.4-1.5-.5-2.3-.1-.8-.1-1.6.1-2.4-.5 1.5-.4 3.3.4 4.7z"/><radialGradient id="ePath_2265_1_" cx="-14391.022" cy="231.449" r="6.902" gradientTransform="translate(9429.332 -898.988)" gradientUnits="userSpaceOnUse"><stop offset="0" stop-color="#fff"/><stop offset=".027" stop-color="#fffbe8" stop-opacity=".961"/><stop offset=".102" stop-color="#fff2b6" stop-opacity=".859"/><stop offset=".174" stop-color="#ffed8c" stop-opacity=".757"/><stop offset=".24" stop-color="#ffe967" stop-opacity=".663"/><stop offset=".3" stop-color="#ffe645" stop-opacity=".576"/><stop offset=".352" stop-color="#ffe42c" stop-opacity=".506"/><stop offset=".389" stop-color="#ffe421" stop-opacity=".455"/><stop offset=".809" stop-color="#ffe300" stop-opacity="0"/></radialGradient><path id="ePath_2265" class="est33" d="M-4755.5-486.9c-.7-.7-1.4-1.1-2.4-1.1s-1.8.1-2.7.5c.9-.3 1.8-.4 2.7-.3 1 .1 1.8.5 2.4.9z"/><radialGradient id="ePath_2266_1_" cx="-14399.489" cy="240.17" r="7.193" gradientTransform="translate(9428.802 -900.926)" gradientUnits="userSpaceOnUse"><stop offset="0" stop-color="#fff"/><stop offset=".027" stop-color="#fffbe8" stop-opacity=".961"/><stop offset=".102" stop-color="#fff2b6" stop-opacity=".859"/><stop offset=".174" stop-color="#ffed8c" stop-opacity=".757"/><stop offset=".24" stop-color="#ffe967" stop-opacity=".663"/><stop offset=".3" stop-color="#ffe645" stop-opacity=".576"/><stop offset=".352" stop-color="#ffe42c" stop-opacity=".506"/><stop offset=".389" stop-color="#ffe421" stop-opacity=".455"/><stop offset=".809" stop-color="#ffe300" stop-opacity="0"/></radialGradient><path id="ePath_2266" class="est34" d="M-4755-486.3c-.7-.8-1.5-1.2-2.4-1.3-1-.2-2.1-.1-3 .4 1.9-.5 3.8-.1 5.4.9z"/><radialGradient id="ePath_2267_1_" cx="-14409.786" cy="221.63" r="5.394" gradientTransform="translate(9418.898 -904.593)" gradientUnits="userSpaceOnUse"><stop offset="0" stop-color="#fff"/><stop offset=".027" stop-color="#fffbe8" stop-opacity=".961"/><stop offset=".102" stop-color="#fff2b6" stop-opacity=".859"/><stop offset=".174" stop-color="#ffed8c" stop-opacity=".757"/><stop offset=".24" stop-color="#ffe967" stop-opacity=".663"/><stop offset=".3" stop-color="#ffe645" stop-opacity=".576"/><stop offset=".352" stop-color="#ffe42c" stop-opacity=".506"/><stop offset=".389" stop-color="#ffe421" stop-opacity=".455"/><stop offset=".809" stop-color="#ffe300" stop-opacity="0"/></radialGradient><path id="ePath_2267" class="est35" d="M-4755.5-486.3c-.4-.3-.9-.5-1.4-.7-.7-.2-1.4-.2-2.1 0 .5-.1 1.2 0 1.7.1.7.2 1.3.3 1.8.6z"/><linearGradient id="ePath_2268_1_" gradientUnits="userSpaceOnUse" x1="-10204.405" y1="16.716" x2="-10204.405" y2="17.185" gradientTransform="matrix(56.785 0 0 52.202 574696.188 -1364.987)"><stop offset="0" stop-color="#e57c27"/><stop offset=".5" stop-color="#dd5626"/><stop offset=".647" stop-color="#c33a28"/><stop offset=".75" stop-color="#b02228"/><stop offset=".813" stop-color="#ab2026"/><stop offset=".913" stop-color="#9c1c21"/><stop offset="1" stop-color="#8c161a"/></linearGradient><path id="ePath_2268" class="est36" d="M-4739.8-479.1c-.3.5-.7 1-1 1.5-1 1.2-2.2 2.2-3.5 3-.4.3-.9.5-1.3.8v-.1c1.4-.8 2.8-1.7 4-2.9.7-.8 1.3-1.6 1.8-2.3zm-38.1-27.1c0-.1.1-.2.1-.4.1-.2.1-.4.2-.7-.1.2-.2.5-.3.8v.3zm13.3 36.5c.1.1.3.2.5.3 2 .5 3.9.9 6 1-.2 0-.4-.1-.7-.2-1.9-.1-3.8-.4-5.8-1.1zm-16.4-24.9c-.1.1-.1.2-.2.3-.8 2.6-1 5.3-.7 8v-.1.1c0-.1 0-.2.1-.7-.1-2.5.2-5.1.8-7.6zm2.5 14.9c-1.6-2.8-2.6-6-2.8-9.2 0 .1-.1.3-.1.4.2 3.1 1.1 6.3 2.7 9 1.5 2.6 5.5 8.7 15.7 11.1-.4-.1-.8-.3-1.2-.5-9.1-2.6-12.9-8.3-14.3-10.8zm32.5 6.7l.1-.1c-3.4 4.7-13.2 4.1-13.2 4.1 0 .1.1.1.2.2 1.4 0 8 .1 11.7-2.8.8-.5 1.4-1.3 1.7-2.2-.1.2-.2.5-.5.8zm-34-25.7c-.8 1.3-1.5 3.4-2.2 6.8v-.1.1s0-.1.1-.4c.3-2.2 1-4.2 1.8-6.2.2-.1.2-.1.3-.2zm1.6-6.6c0-.2.1-.3.1-.5 0-.1 0-.1.1-.1-.1.1-.1.2-.1.3s0 .1-.1.2v.1zm-.7 5.1v-.3c-.1-1.2 0-2.4.2-3.6.1-.4.2-.9.3-1.2 0 .1 0 .1-.1.2v.1c0 .1-.1.2-.1.3-.1.2-.1.4-.1.7v.2c-.1.4-.1.9-.2 1.3-.1.9-.1 1.7-.1 2.6 0-.1.1-.2.1-.3zm33.6 26.2c-.1 0-.8.3-1.7.8-2 .9-3.4 1.4-3.5 1.6.8-.4 1.5-.8 2.3-1.1 1.8-.8 2.7-1.2 2.9-1.3z"/><radialGradient id="ePath_2269_1_" cx="-13900.634" cy="-117.754" r="14.293" gradientTransform="translate(9491.57 -987.503)" gradientUnits="userSpaceOnUse"><stop offset="0" stop-color="#ed6624"/><stop offset="1" stop-color="#f69622"/></radialGradient><path id="ePath_2269" class="est37" d="M-4762.4-471.2c.1.3 1.3.8 4.1.7 1.2 0 2.5-.3 3.6-1 0 0-1 .4-4.1.5-2.7.1-3.5-.2-3.6-.2zm-1.7-.9c1.7.3 3.4.3 5.1.1-1.8 0-3.7-.2-5.5-.7-3-.7-3.8-1.6-3.8-1.6 0 .5 2 1.7 4.2 2.2zm1.9-.2c1.1.1 2.3.1 3.4 0-1.2 0-2.5-.1-3.7-.3-.9-.1-1.8-.3-2.6-.7.2.5 1.7.9 2.9 1zm-5.6-.3c.9.4 1.7.7 2.6.9-1.1-.4-2.2-.9-3.1-1.4-1-.7-1.7-1.1-1.8-1.2.6.8 1.4 1.4 2.3 1.7zm4.7 3.5"/><radialGradient id="ePath_2270_1_" cx="-14294.616" cy="293.614" r="5.627" gradientTransform="translate(9522.113 -795.164)" gradientUnits="userSpaceOnUse"><stop offset=".487" stop-color="#e57c27" stop-opacity="0"/><stop offset=".853" stop-color="#f0be1b"/></radialGradient><path id="ePath_2270" class="est38" d="M-4769.3-503.7c-.2.2-.4.5-.7.9-.3.4-.5 1-.5 1-.9-.7-1.7-1.1-2.7-1.3-.5-.1-1.1-.2-1.7-.2 1.8-.8 3.8-1 5.6-.4z"/></g></svg><svg viewBox="8080 580 44 44" width="44" height="44" id="opera" y="356"><defs><style>.fcls-1{fill:#00aded}</style></defs><path id="f_001-opera" data-name="001-opera" class="fcls-1" d="M22 44c-.349 0-.7-.014-1.048-.028A22 22 0 0 1 22 0h.084a21.887 21.887 0 0 1 14.583 5.6 15.843 15.843 0 0 0-8.814-2.7 16.547 16.547 0 0 0-13.089 6.7 19.2 19.2 0 0 0-4.121 11.873V22.5a19.09 19.09 0 0 0 4.121 11.873 16.547 16.547 0 0 0 13.088 6.691 15.775 15.775 0 0 0 8.814-2.7A21.851 21.851 0 0 1 22 44zm15.617-6.509a14.2 14.2 0 0 1-13.675.545c5.6-1.159 9.89-7.892 9.89-16.036s-4.289-14.89-9.89-16.036a14.193 14.193 0 0 1 6.327-1.494 14.374 14.374 0 0 1 7.347 2.053 21.971 21.971 0 0 1 0 30.968z" transform="translate(8080 580)"/></svg><svg id="opera-colored" width="44" height="44" viewBox="0 0 44 44" y="400"><style>.gst0{fill:url(#gSVGID_1_)}.gst1{fill:url(#gSVGID_2_)}</style><switch><g><linearGradient id="gSVGID_1_" gradientUnits="userSpaceOnUse" x1="-381.118" y1="299.173" x2="-381.118" y2="299.006" gradientTransform="matrix(213.3 0 0 -256 81310.898 76589)"><stop offset=".3" stop-color="#ff1b2d"/><stop offset=".438" stop-color="#fa1a2c"/><stop offset=".594" stop-color="#ed1528"/><stop offset=".758" stop-color="#d60e21"/><stop offset=".927" stop-color="#b70519"/><stop offset="1" stop-color="#a70014"/></linearGradient><path class="gst0" d="M14.8 34.4c-2.4-2.9-4-7.1-4.1-11.9v-1c.1-4.8 1.7-9 4.1-11.9 3.2-4.1 7.8-5.9 13-5.9 3.2 0 6.3.2 8.9 1.9-3.9-3.5-9-5.6-14.6-5.6H22C9.8 0 0 9.8 0 22c0 11.8 9.3 21.4 21 22h1c5.6 0 10.8-2.1 14.7-5.6-2.6 1.7-5.4 1.8-8.7 1.8-5.2 0-10.1-1.7-13.2-5.8z"/><linearGradient id="gSVGID_2_" gradientUnits="userSpaceOnUse" x1="-381.081" y1="298.962" x2="-381.081" y2="298.792" gradientTransform="matrix(170.1 0 0 -222.4 64851.203 66492.305)"><stop offset="0" stop-color="#9c0000"/><stop offset=".7" stop-color="#ff4b4b"/></linearGradient><path class="gst1" d="M14.8 9.6c2-2.4 4.6-3.8 7.5-3.8 6.4 0 11.6 7.3 11.6 16.2s-5.2 16.2-11.6 16.2c-2.9 0-5.4-1.4-7.5-3.8 3.2 4.1 7.9 6.7 13.1 6.7 3.2 0 6.2-1 8.8-2.7 4.5-4 7.3-9.9 7.3-16.4S41.2 9.6 36.7 5.6c-2.6-1.7-5.6-2.7-8.8-2.7-5.3 0-10 2.6-13.1 6.7z"/></g></switch></svg></svg>