<?xml version="1.0" encoding="utf-8"?><svg width="120" height="337" viewBox="0 0 120 337" xmlns="http://www.w3.org/2000/svg" xmlns:xlink="http://www.w3.org/1999/xlink"><svg viewBox="3090.715 424.871 57.435 16.49" width="57.435" height="16.49" id="arrow-grayDashed"><defs><style>.acls-1{fill:#414141}</style></defs><g id="aup-broken-line-arrow" transform="rotate(93 1433.261 1648.525)"><g id="aGroup_22" data-name="Group 22" transform="translate(122.045)"><path id="aPath_33" data-name="Path 33" class="acls-1" d="M161.943 301.6a.674.674 0 0 0-1.133 0c-.515.618-.309 1.339-.309 2.162a15.713 15.713 0 0 1-.309 3.089c-.206.824 1.03 1.133 1.339.412a11.274 11.274 0 0 0 .618-2.677c.103-1.025.412-2.157-.206-2.986z" transform="translate(-153.755 -250.607)"/><path id="aPath_34" data-name="Path 34" class="acls-1" d="M160.941 258.594a10.785 10.785 0 0 1-.412-1.75 2.8 2.8 0 0 0 0-.927 2.7 2.7 0 0 0-.309-.824.674.674 0 0 0-1.133 0 2.584 2.584 0 0 0-.1 1.956 8.2 8.2 0 0 0 .721 2.059.682.682 0 0 0 1.233-.514z" transform="translate(-152.65 -211.92)"/><path id="aPath_35" data-name="Path 35" class="acls-1" d="M160.364 201.007a.686.686 0 0 0-1.03 0c-.412.515-.309.927-.309 1.544s.1 1.133.1 1.75a.618.618 0 1 0 1.236 0c0-.515.1-1.03.1-1.545.212-.617.418-1.132-.097-1.749z" transform="translate(-152.794 -166.997)"/><path id="aPath_36" data-name="Path 36" class="acls-1" d="M157.678 155.523c-.412-1.133-.206-2.265-.515-3.4a.715.715 0 0 0-1.339 0 4.637 4.637 0 0 0 .721 3.81c.31.62 1.339.208 1.133-.41z" transform="translate(-150.006 -126.147)"/><path id="aPath_37" data-name="Path 37" class="acls-1" d="M157.095 95.512a.626.626 0 0 0-.824 0c-.618.618-.412 1.441-.412 2.265a16.683 16.683 0 0 0 .1 2.265.644.644 0 0 0 1.236 0 13.8 13.8 0 0 0 .1-2.059 2.626 2.626 0 0 0-.2-2.471z" transform="translate(-150.143 -79.315)"/><path id="aPath_38" data-name="Path 38" class="acls-1" d="M152.909 43.644a.856.856 0 0 0-.824 1.133 23.68 23.68 0 0 1 .309 2.677.608.608 0 0 0 1.133 0 11.222 11.222 0 0 1 .309-2.677.973.973 0 0 0-.927-1.133z" transform="translate(-146.987 -36.301)"/><path id="aPath_39" data-name="Path 39" class="acls-1" d="M137.748 6.931a30.448 30.448 0 0 0-8.134-6.8.953.953 0 0 0-1.236.206c-2.162 2.574-3.81 5.457-6.075 7.928-.824.824.515 2.059 1.236 1.236 2.059-2.265 3.6-4.942 5.663-7.207 2.677 1.647 4.53 4.015 6.9 6.178a1.13 1.13 0 0 0 1.646-1.541z" transform="translate(-122.045)"/></g></g></svg><svg viewBox="2510 237.43 120 118.288" width="120" height="118.288" id="arrow-grayFigured" y="17"><defs><style>.bcls-1{fill:#414141}</style></defs><g id="bcurved-arrow-with-broken-line" transform="translate(2510 234.826)"><g id="bGroup_21" data-name="Group 21" transform="translate(0 2.604)"><path id="bPath_15" data-name="Path 15" class="bcls-1" d="M35.944 2.823c-1.207.8-2.816 1.006-3.822 2.012a1.509 1.509 0 0 0 0 2.414c.8.4 1.811 0 2.615-.2a1.1 1.1 0 0 0 .8-1.207 5.423 5.423 0 0 0 1.609-1.408c.809-.806-.197-2.416-1.202-1.611z" transform="translate(-21.158 -2.604)"/><path id="bPath_16" data-name="Path 16" class="bcls-1" d="M9 39.113a27.46 27.46 0 0 0-3.42 3.42c-1.006 1.207-2.213 2.816-2.213 4.225 0 .8 1.006 1.207 1.408.6 1.006-1.006 1.207-2.615 2.012-3.822A16.991 16.991 0 0 1 9.8 39.918c.406-.604-.4-1.207-.8-.805z" transform="translate(-2.26 -27.025)"/><path id="bPath_17" data-name="Path 17" class="bcls-1" d="M1.911 82.853a21.927 21.927 0 0 1-.6-5.23.506.506 0 0 0-1.006 0c0 2.414-1.207 7.242 1.207 8.851.4.4 1.006-.2 1.006-.6a16.037 16.037 0 0 0-.607-3.021z" transform="translate(0 -52.66)"/><path id="bPath_18" data-name="Path 18" class="bcls-1" d="M20.74 116.371c-3.219.4-6.035 1.006-9.053-.6-.4-.2-.6.2-.2.4 3.018 2.213 6.437 3.219 9.857 1.408.804-.404-.001-1.41-.604-1.208z" transform="translate(-7.563 -78.533)"/><path id="bPath_19" data-name="Path 19" class="bcls-1" d="M66.218 85.727a19.333 19.333 0 0 0-4.225 2.816 40.226 40.226 0 0 0-4.426 3.822c-.4.4.2 1.207.8.8a29.988 29.988 0 0 1 4.033-3.013c1.408-1.006 3.219-1.81 4.426-3.017.599-.604.197-1.811-.608-1.408z" transform="translate(-38.558 -58.35)"/><path id="bPath_20" data-name="Path 20" class="bcls-1" d="M105.168 41.763c-3.621 1.408-7.041 4.828-9.656 7.644a.57.57 0 0 0 .8.8 51.5 51.5 0 0 1 5.23-4.023 32.064 32.064 0 0 0 4.224-3.017c.609-.8.005-1.605-.598-1.404z" transform="translate(-64.029 -28.87)"/><path id="bPath_21" data-name="Path 21" class="bcls-1" d="M157.514 19.144c-3.621-.2-7.242 1.207-10.461 2.414a.516.516 0 0 0 .2 1.006 45.368 45.368 0 0 1 10.259-1.609c1.008-.202 1.008-1.811.002-1.811z" transform="translate(-98.472 -13.694)"/><path id="bPath_22" data-name="Path 22" class="bcls-1" d="M209.818 31.858a29.131 29.131 0 0 0-3.621-3.42 1 1 0 0 0-1.408 1.408c1.006 1.006 2.012 2.213 3.017 3.42s2.012 3.018 3.42 4.023a.84.84 0 0 0 1.207-1.006c0-1.609-1.408-3.218-2.615-4.425z" transform="translate(-137.298 -19.77)"/><path id="bPath_23" data-name="Path 23" class="bcls-1" d="M224.448 71.194c0-.8-1.408-.8-1.408 0a58.878 58.878 0 0 1-1.006 5.834c-.4 1.811-1.408 3.621-1.408 5.633a.944.944 0 0 0 1.811.4c1.81-3.417 2.212-8.246 2.011-11.867z" transform="translate(-148.105 -48.243)"/><path id="bPath_24" data-name="Path 24" class="bcls-1" d="M194.845 133.478l-3.018 4.224c-.8 1.408-2.213 2.816-2.414 4.426 0 .8.8 1.006 1.408.8 1.408-.6 2.012-2.414 2.615-3.621 1.006-1.609 1.811-3.42 2.816-5.029a.812.812 0 0 0-1.407-.8z" transform="translate(-127.152 -90.209)"/><path id="bPath_25" data-name="Path 25" class="bcls-1" d="M161.241 178.639a25.619 25.619 0 0 0-4.426 5.029c-1.207 1.811-2.816 4.426-2.414 6.639a.966.966 0 0 0 1.81.4c1.006-1.408 1.207-3.42 1.811-5.029a21.946 21.946 0 0 1 3.822-6.639c.403-.199-.201-.803-.603-.4z" transform="translate(-103.607 -120.684)"/><path id="bPath_26" data-name="Path 26" class="bcls-1" d="M126.753 238.448a20.341 20.341 0 0 0-4.426 5.633c-1.207 2.213-2.615 5.03-2.213 7.444a.888.888 0 0 0 1.609.2c1.207-1.811 1.207-4.225 2.012-6.236a23.652 23.652 0 0 1 3.822-6.437c.403-.403-.2-1.208-.804-.604z" transform="translate(-80.586 -160.779)"/><path id="bPath_27" data-name="Path 27" class="bcls-1" d="M127.335 314.347a11.936 11.936 0 0 1-3.621-2.615 11.905 11.905 0 0 1-1.408-5.834.506.506 0 0 0-1.006 0c-.4 3.822.4 10.46 5.633 10.26.804-.202 1.207-1.408.402-1.811z" transform="translate(-81.368 -205.9)"/><path id="bPath_28" data-name="Path 28" class="bcls-1" d="M174.562 348.934c-2.213-.2-4.426.2-6.638.2a14.525 14.525 0 0 1-7.645-2.615c-.4-.2-.6.4-.4.6 4.224 3.219 10.059 6.035 15.289 3.822a1.094 1.094 0 0 0-.606-2.007z" transform="translate(-107.272 -233.446)"/><path id="bPath_29" data-name="Path 29" class="bcls-1" d="M237.116 312.145c-1.408.8-2.615 2.012-4.224 3.018a12.382 12.382 0 0 1-4.627 1.408c-1.006.2-1.006 1.609 0 1.609 3.621.2 8.248-1.006 10.259-4.426.805-1.005-.402-2.011-1.408-1.609z" transform="translate(-152.727 -210.337)"/><path id="bPath_30" data-name="Path 30" class="bcls-1" d="M266.735 275.013c-2.615 2.615-5.431 5.432-7.242 8.65-.6 1.006.8 1.609 1.408.8 2.213-2.816 5.834-4.828 7.444-8.248.201-1-.805-2.006-1.61-1.202z" transform="translate(-174.098 -185.275)"/><path id="bPath_31" data-name="Path 31" class="bcls-1" d="M309.753 269.239c-.6-1.207-2.213-2.012-3.42-2.615a11.8 11.8 0 0 0-4.627-.8.706.706 0 1 0 0 1.408 8.322 8.322 0 0 1 3.822 1.006c1.006.6 1.811 1.609 2.816 2.213a.966.966 0 0 0 1.409-1.212z" transform="translate(-202.028 -179.3)"/><path id="bPath_32" data-name="Path 32" class="bcls-1" d="M336.581 268.14c-2.816-4.627-4.627-9.857-7.041-14.685-1.207-2.213-4.426-.2-3.42 2.012 1.81 4.023 3.42 8.248 5.834 12.07-1.81.2-3.621.4-5.633.6-.8.2-2.213.2-2.816 1.006l-.2.2a.2.2 0 0 0-.2.2.771.771 0 0 0 .4 1.207c.2.2.4.2.8.2a17.2 17.2 0 0 0 3.219 0 48.5 48.5 0 0 1 7.644-.2c1.211.206 2.016-1.403 1.413-2.61z" transform="translate(-216.786 -170.355)"/></g></g></svg><svg viewBox="2691 1736 103.925 79.082" width="103.925" height="79.082" id="bionicLens" y="136"><defs><style>.ccls-1{fill:#414141}</style></defs><g id="cbionic-contact-lens" transform="translate(2691 1736)"><path id="cPath_84" data-name="Path 84" class="ccls-1" d="M76.511 68.5a65.324 65.324 0 0 1 66.194 0 1.658 1.658 0 0 0 1.684-2.857 68.641 68.641 0 0 0-69.562 0 1.658 1.658 0 0 0 1.684 2.857z" transform="translate(-57.646 -56.177)"/><path id="cPath_85" data-name="Path 85" class="ccls-1" d="M142.7 357.287a65.323 65.323 0 0 1-66.194 0 1.658 1.658 0 1 0-1.684 2.857 68.639 68.639 0 0 0 69.562 0 1.658 1.658 0 0 0-1.684-2.857z" transform="translate(-57.645 -290.527)"/><path id="cPath_86" data-name="Path 86" class="ccls-1" d="M103.7 126.043a59.741 59.741 0 0 0-103.479 0 1.659 1.659 0 0 0 0 1.661 59.741 59.741 0 0 0 103.479 0 1.659 1.659 0 0 0 0-1.661zm-78.827.831a27.087 27.087 0 1 1 27.09 27.086 27.117 27.117 0 0 1-27.087-27.087zm-21.292 0a56.666 56.666 0 0 1 30.182-24.342 30.374 30.374 0 0 0 0 48.684 56.665 56.665 0 0 1-30.179-24.343zm66.579 24.341a30.374 30.374 0 0 0 0-48.684 56.667 56.667 0 0 1 30.182 24.342 56.666 56.666 0 0 1-30.182 24.342z" transform="translate(0 -87.332)"/><path id="cPath_87" data-name="Path 87" class="ccls-1" d="M215.214 208.028h-3.87v-3.87a1.658 1.658 0 1 0-3.317 0v3.87h-3.87a1.658 1.658 0 1 0 0 3.317h3.87v3.87a1.658 1.658 0 1 0 3.317 0v-3.87h3.87a1.658 1.658 0 1 0 0-3.317z" transform="translate(-157.724 -170.145)"/><path id="cPath_88" data-name="Path 88" class="ccls-1" d="M174.637 157.5a17.137 17.137 0 1 0 17.137 17.137 17.156 17.156 0 0 0-17.137-17.137zm0 30.956a13.82 13.82 0 1 1 13.82-13.82 13.835 13.835 0 0 1-13.82 13.82z" transform="translate(-122.674 -135.096)"/><path id="cPath_89" data-name="Path 89" class="ccls-1" d="M325.529 209.488a20.645 20.645 0 0 1 0 8.185 1.658 1.658 0 1 0 3.251.659 23.979 23.979 0 0 0 0-9.5 1.658 1.658 0 0 0-3.251.659z" transform="translate(-253.523 -174.04)"/><path id="cPath_90" data-name="Path 90" class="ccls-1" d="M131.227 217.673a20.645 20.645 0 0 1 0-8.185 1.658 1.658 0 1 0-3.251-.66 23.978 23.978 0 0 0 0 9.5 1.659 1.659 0 0 0 1.624 1.329 1.686 1.686 0 0 0 .331-.033 1.659 1.659 0 0 0 1.296-1.951z" transform="translate(-99.308 -174.04)"/><path id="cPath_91" data-name="Path 91" class="ccls-1" d="M209.488 131.234a20.74 20.74 0 0 1 8.185 0 1.659 1.659 0 0 0 .66-3.251 24.085 24.085 0 0 0-9.5 0 1.659 1.659 0 0 0 .659 3.251z" transform="translate(-161.618 -111.737)"/><path id="cPath_92" data-name="Path 92" class="ccls-1" d="M217.672 325.53a20.74 20.74 0 0 1-8.185 0 1.658 1.658 0 1 0-.66 3.251 23.978 23.978 0 0 0 9.5 0 1.658 1.658 0 0 0-.659-3.251z" transform="translate(-161.617 -265.946)"/><path id="cPath_93" data-name="Path 93" class="ccls-1" d="M291.481 282.928a1.659 1.659 0 0 0-2.3.466 20.649 20.649 0 0 1-5.788 5.788 1.658 1.658 0 1 0 1.832 2.765 23.964 23.964 0 0 0 6.721-6.721 1.658 1.658 0 0 0-.465-2.298z" transform="translate(-220.153 -232.575)"/><path id="cPath_94" data-name="Path 94" class="ccls-1" d="M144.8 153.358a1.658 1.658 0 0 0 2.3-.466 20.648 20.648 0 0 1 5.788-5.788 1.658 1.658 0 0 0-1.832-2.765 23.964 23.964 0 0 0-6.721 6.721 1.658 1.658 0 0 0 .465 2.298z" transform="translate(-112.207 -124.63)"/><path id="cPath_95" data-name="Path 95" class="ccls-1" d="M283.394 147.1a20.646 20.646 0 0 1 5.788 5.788 1.658 1.658 0 1 0 2.765-1.832 23.965 23.965 0 0 0-6.721-6.721 1.658 1.658 0 1 0-1.832 2.765z" transform="translate(-220.152 -124.627)"/><path id="cPath_96" data-name="Path 96" class="ccls-1" d="M152.891 289.183a20.647 20.647 0 0 1-5.788-5.788 1.658 1.658 0 1 0-2.765 1.832 23.964 23.964 0 0 0 6.721 6.721 1.658 1.658 0 1 0 1.832-2.765z" transform="translate(-112.207 -232.575)"/></g></svg><svg viewBox="2459 1394 86.589 40.499" width="86.589" height="40.499" id="drone" y="216"><defs><style>.dcls-1{fill:#414141}</style></defs><g id="ddrone" transform="translate(2459 1258)"><path id="dPath_80" data-name="Path 80" class="dcls-1" d="M85.318 140.067H74.389v-.085a3.982 3.982 0 0 0-7.964 0v.085H55.5a1.271 1.271 0 1 0 0 2.542h9.574v1.525H21.518v-1.525h9.574a1.271 1.271 0 1 0 0-2.542H20.165v-.085a3.982 3.982 0 0 0-7.964 0v.085H1.271a1.271 1.271 0 1 0 0 2.542h9.574v1.44a5.336 5.336 0 0 0 9.982 2.626h8l1.186 3.557a6.685 6.685 0 0 0 6.35 4.577h5.666v2.881h-6.868a5.344 5.344 0 0 0-5.338 5.338v8.134a5.344 5.344 0 0 0 5.338 5.338h16.267a5.344 5.344 0 0 0 5.338-5.338v-8.134a5.344 5.344 0 0 0-5.338-5.338h-6.862v-2.881h5.666a6.685 6.685 0 0 0 6.35-4.577l1.186-3.557h8a5.336 5.336 0 0 0 9.982-2.626v-1.44h9.574a1.271 1.271 0 1 0 0-2.542zm-70.576-.085a1.44 1.44 0 0 1 2.881 0v.085h-2.881zm1.44 6.863a2.8 2.8 0 0 1-2.8-2.8v-1.44h5.592v1.44a2.8 2.8 0 0 1-2.791 2.8zm38.042 16.183v8.134a2.8 2.8 0 0 1-2.8 2.8H35.161a2.8 2.8 0 0 1-2.8-2.8v-8.134a2.8 2.8 0 0 1 2.8-2.8h16.267a2.8 2.8 0 0 1 2.796 2.799zm-.055-13.6a4.146 4.146 0 0 1-3.939 2.839H36.358a4.146 4.146 0 0 1-3.939-2.839l-.918-2.753h23.586zm14.8-9.447a1.44 1.44 0 0 1 2.881 0v.085h-2.884zm4.236 4.067a2.8 2.8 0 0 1-5.592 0v-1.44H73.2z"/><path id="dPath_81" data-name="Path 81" class="dcls-1" d="M205.338 288a5.338 5.338 0 1 0 5.338 5.338 5.344 5.344 0 0 0-5.338-5.338zm0 8.134a2.8 2.8 0 1 1 2.8-2.8 2.8 2.8 0 0 1-2.8 2.8z" transform="translate(-166.11 -126.243)"/><path id="dPath_82" data-name="Path 82" class="dcls-1" d="M281.271 290.542h1.356a1.271 1.271 0 0 0 0-2.542h-1.356a1.271 1.271 0 0 0 0 2.542z" transform="translate(-232.554 -126.243)"/><path id="dPath_83" data-name="Path 83" class="dcls-1" d="M225.271 312a1.273 1.273 0 1 0 .9.373 1.276 1.276 0 0 0-.9-.373z" transform="translate(-186.043 -146.177)"/></g></svg><svg viewBox="3447.004 1736 94.849 80" width="94.849" height="80" id="viewfinder" y="257"><defs><style>.ecls-1{fill:#414141}</style></defs><g id="eviewfinder" transform="translate(3447.004 1736)"><path id="ePath_69" data-name="Path 69" class="ecls-1" d="M87.517 40H7.332A7.34 7.34 0 0 0 0 47.332v65.336A7.34 7.34 0 0 0 7.332 120h80.185a7.34 7.34 0 0 0 7.332-7.332V47.332A7.34 7.34 0 0 0 87.517 40zm4.548 72.668a4.553 4.553 0 0 1-4.548 4.548H7.332a4.553 4.553 0 0 1-4.548-4.548V47.332a4.553 4.553 0 0 1 4.548-4.548h80.185a4.553 4.553 0 0 1 4.548 4.548z" transform="translate(0 -40)"/><path id="ePath_70" data-name="Path 70" class="ecls-1" d="M84.362 120a4.362 4.362 0 1 0 4.362 4.362A4.367 4.367 0 0 0 84.362 120zm0 5.94a1.578 1.578 0 1 1 1.578-1.578 1.579 1.579 0 0 1-1.578 1.578z" transform="translate(-65.151 -105.151)"/><path id="ePath_71" data-name="Path 71" class="ecls-1" d="M61.271 88H49.392A1.392 1.392 0 0 0 48 89.392v11.879a1.392 1.392 0 1 0 2.784 0V90.784h10.487a1.392 1.392 0 0 0 0-2.784z" transform="translate(-39.09 -79.09)"/><path id="ePath_72" data-name="Path 72" class="ecls-1" d="M397.271 88h-11.879a1.392 1.392 0 0 0 0 2.784h10.487v10.487a1.392 1.392 0 1 0 2.784 0V89.392A1.392 1.392 0 0 0 397.271 88z" transform="translate(-312.724 -79.09)"/><path id="ePath_73" data-name="Path 73" class="ecls-1" d="M61.271 355.879H50.784v-10.487a1.392 1.392 0 0 0-2.784 0v11.879a1.392 1.392 0 0 0 1.392 1.392h11.879a1.392 1.392 0 1 0 0-2.784z" transform="translate(-39.09 -287.573)"/><path id="ePath_74" data-name="Path 74" class="ecls-1" d="M397.271 344a1.392 1.392 0 0 0-1.392 1.392v10.487h-10.487a1.392 1.392 0 0 0 0 2.784h11.879a1.392 1.392 0 0 0 1.392-1.392v-11.879a1.392 1.392 0 0 0-1.392-1.392z" transform="translate(-312.724 -287.573)"/><path id="ePath_75" data-name="Path 75" class="ecls-1" d="M145.392 122.784h14.849a1.392 1.392 0 0 0 0-2.784h-14.849a1.392 1.392 0 0 0 0 2.784z" transform="translate(-117.271 -105.151)"/><path id="ePath_76" data-name="Path 76" class="ecls-1" d="M149.847 152h-4.455a1.392 1.392 0 0 0 0 2.784h4.455a1.392 1.392 0 1 0 0-2.784z" transform="translate(-117.271 -131.211)"/><path id="ePath_77" data-name="Path 77" class="ecls-1" d="M404.362 378.784a1.392 1.392 0 1 0 0-2.784h-2.97a1.392 1.392 0 0 0 0 2.784z" transform="translate(-325.754 -313.633)"/><path id="ePath_78" data-name="Path 78" class="ecls-1" d="M330.3 376h-8.91a1.392 1.392 0 0 0 0 2.784h8.91a1.392 1.392 0 0 0 0-2.784z" transform="translate(-260.603 -313.633)"/><path id="ePath_79" data-name="Path 79" class="ecls-1" d="M224.241 215.425h-6.032v-6.032a1.392 1.392 0 1 0-2.784 0v6.032h-6.032a1.392 1.392 0 1 0 0 2.784h6.032v6.033a1.392 1.392 0 0 0 2.784 0v-6.033h6.032a1.392 1.392 0 1 0 0-2.784z" transform="translate(-169.392 -176.817)"/></g></svg></svg>