<?xml version="1.0" encoding="utf-8"?>
<!-- Generator: Adobe Illustrator 19.2.1, SVG Export Plug-In . SVG Version: 6.00 Build 0)  -->
<svg version="1.1" id="Layer_1" xmlns="http://www.w3.org/2000/svg" xmlns:xlink="http://www.w3.org/1999/xlink" x="0px" y="0px"
	 width="62.4px" height="57.3px" viewBox="0 0 62.4 57.3" enable-background="new 0 0 62.4 57.3" xml:space="preserve">
<g>
	<path fill="#00ADED" d="M61.4,0H1C0.4,0,0,0.5,0,1v55.3c0,0.6,0.4,1,1,1h60.4c0.6,0,1-0.5,1-1V1C62.4,0.5,62,0,61.4,0z M60.4,55.3
		H2V2h36.8v6.1H5c-0.6,0-1,0.5-1,1c0,0.6,0.4,1,1,1h52.5c0.6,0,1-0.5,1-1c0-0.6-0.4-1-1-1H40.8V2h19.6V55.3z"/>
	<ellipse fill="#00ADED" cx="50.7" cy="5.1" rx="1" ry="1"/>
	<ellipse fill="#00ADED" cx="45.2" cy="5.1" rx="1" ry="1"/>
	<ellipse fill="#00ADED" cx="56.1" cy="5.1" rx="1" ry="1"/>
	<path fill="#00ADED" d="M31.2,24.8c-4.1,0-7.4,3.4-7.4,7.5s3.3,7.5,7.4,7.5c1.2,0,2.3-0.3,3.4-0.8c0.5-0.3,0.7-0.9,0.4-1.4
		c-0.3-0.5-0.9-0.7-1.3-0.4c-0.8,0.4-1.6,0.6-2.5,0.6c-3,0-5.4-2.5-5.4-5.5s2.4-5.5,5.4-5.5s5.4,2.5,5.4,5.5c0,0.9-0.2,1.7-0.6,2.5
		c-0.3,0.5-0.1,1.1,0.4,1.4c0.5,0.3,1.1,0.1,1.3-0.4c0.5-1.1,0.8-2.2,0.8-3.4C38.6,28.2,35.3,24.8,31.2,24.8z"/>
	<path fill="#00ADED" d="M47.6,28.6h-4.2c-0.2-0.8-0.6-1.6-1-2.4l3-3c0.2-0.2,0.3-0.4,0.3-0.7s-0.1-0.5-0.3-0.7L41.6,18
		c-0.4-0.4-1-0.4-1.4,0l-3,3c-0.8-0.4-1.5-0.7-2.4-1v-4.3c0-0.6-0.4-1-1-1h-5.3c-0.6,0-1,0.5-1,1V20c-0.8,0.2-1.6,0.6-2.4,1l-3-3
		c-0.4-0.4-1-0.4-1.4,0l-3.8,3.8c-0.2,0.2-0.3,0.4-0.3,0.7s0.1,0.5,0.3,0.7l3,3c-0.4,0.8-0.7,1.6-1,2.4h-4.2c-0.6,0-1,0.5-1,1V35
		c0,0.6,0.4,1,1,1H19c0.2,0.8,0.6,1.6,1,2.4l-3,3c-0.2,0.2-0.3,0.4-0.3,0.7c0,0.3,0.1,0.5,0.3,0.7l3.8,3.8c0.4,0.4,1,0.4,1.4,0l3-3
		c0.8,0.4,1.5,0.7,2.4,1v4.3c0,0.6,0.4,1,1,1h5.3c0.6,0,1-0.5,1-1v-4.3c0.8-0.2,1.6-0.6,2.4-1l3,3c0.4,0.4,1,0.4,1.4,0l3.8-3.8
		c0.2-0.2,0.3-0.4,0.3-0.7c0-0.3-0.1-0.5-0.3-0.7l-3-3c0.4-0.8,0.7-1.6,1-2.4h4.2c0.6,0,1-0.5,1-1v-5.4
		C48.5,29.1,48.1,28.6,47.6,28.6z M46.6,34h-4c-0.5,0-0.9,0.3-1,0.8c-0.3,1.2-0.7,2.3-1.3,3.3c-0.2,0.4-0.2,0.9,0.1,1.3l2.8,2.8
		l-2.3,2.4l-2.8-2.8c-0.3-0.3-0.8-0.4-1.2-0.1c-1,0.6-2.1,1.1-3.2,1.4c-0.5,0.1-0.8,0.5-0.8,1v4h-3.3v-4c0-0.5-0.3-0.9-0.8-1
		c-1.1-0.3-2.2-0.7-3.2-1.4c-0.4-0.2-0.9-0.2-1.2,0.1l-2.8,2.8l-2.3-2.4l2.8-2.8c0.3-0.3,0.4-0.9,0.1-1.3c-0.6-1-1.1-2.1-1.3-3.3
		c-0.1-0.5-0.5-0.8-1-0.8h-4v-3.4h4c0.5,0,0.9-0.3,1-0.8c0.3-1.2,0.7-2.3,1.3-3.3c0.2-0.4,0.2-0.9-0.1-1.3l-2.8-2.8l2.3-2.4l2.8,2.8
		c0.3,0.3,0.8,0.4,1.2,0.1c1-0.6,2.1-1.1,3.2-1.4c0.5-0.1,0.8-0.5,0.8-1v-4h3.3v4c0,0.5,0.3,0.9,0.8,1c1.1,0.3,2.2,0.7,3.2,1.4
		c0.4,0.2,0.9,0.2,1.2-0.1l2.8-2.8l2.3,2.4l-2.8,2.8c-0.3,0.3-0.4,0.9-0.1,1.3c0.6,1,1.1,2.1,1.3,3.3c0.1,0.5,0.5,0.8,1,0.8h4
		L46.6,34L46.6,34z"/>
</g>
</svg>
