<?xml version="1.0" encoding="utf-8"?>
<!-- Generator: Adobe Illustrator 19.2.1, SVG Export Plug-In . SVG Version: 6.00 Build 0)  -->
<svg version="1.1" id="Layer_1" xmlns="http://www.w3.org/2000/svg" xmlns:xlink="http://www.w3.org/1999/xlink" x="0px" y="0px"
	 width="55.9px" height="53.9px" viewBox="0 0 55.9 53.9" enable-background="new 0 0 55.9 53.9" xml:space="preserve">
<g>
	<path fill="#00ADED" d="M55.4,0.1c-0.3-0.2-0.7-0.2-1,0L37.3,9.2L20.2,0.1c0,0,0,0,0,0c0,0-0.1,0-0.2-0.1c0,0-0.1,0-0.1,0
		c-0.1,0-0.1,0-0.2,0c0,0-0.1,0-0.1,0c-0.1,0-0.1,0-0.2,0c0,0-0.1,0-0.1,0c0,0,0,0,0,0L0.7,6.3C0.3,6.4,0,6.8,0,7.3v44.6
		c0,0.3,0.2,0.6,0.4,0.8c0.2,0.1,0.4,0.2,0.6,0.2c0.1,0,0.2,0,0.3-0.1l18.3-6.1l17.3,7.1c0,0,0,0,0,0c0.1,0,0.2,0.1,0.3,0.1
		c0.1,0,0.2,0,0.3,0c0,0,0.1,0,0.1,0c0,0,0.1,0,0.1,0l17.6-9.3c0.3-0.2,0.6-0.5,0.6-0.9V1C55.9,0.7,55.8,0.3,55.4,0.1z M2.1,8
		l16.6-5.5v28c-0.4,0.1-0.9,0.2-1.3,0.3c-0.6,0.1-0.9,0.7-0.7,1.3c0.1,0.5,0.5,0.8,1,0.8c0.1,0,0.2,0,0.3,0c0.2-0.1,0.5-0.1,0.8-0.2
		v12.3L2.1,50.4V8z M20.7,32.3c0.3,0,0.7-0.1,1-0.1c0.6,0,1-0.5,1-1.1c0-0.6-0.5-1-1-1c0,0,0,0,0,0c-0.3,0-0.6,0-1,0V2.8L36.3,11v22
		c-0.7,0-1.5-0.1-2.3-0.3c-0.6-0.1-1.1,0.3-1.2,0.8c-0.1,0.6,0.3,1.1,0.8,1.2c0.9,0.2,1.8,0.3,2.7,0.3v16.3l-15.5-6.4V32.3z
		 M53.9,42.9l-15.5,8.2V34.9c0.4-0.2,0.6-0.6,0.6-1c0-0.4-0.3-0.7-0.6-0.9V11l15.5-8.2V42.9z"/>
	<path fill="#00ADED" d="M11.4,8.3c-2.9,0-5.2,2.3-5.2,5.2c0,2.5,1.8,4.6,4.1,5.1v2.2c0,0.6,0.5,1,1,1s1-0.5,1-1v-2.2
		c2.4-0.5,4.1-2.6,4.1-5.1C16.6,10.6,14.3,8.3,11.4,8.3z M11.4,16.6c-1.7,0-3.1-1.4-3.1-3.1s1.4-3.1,3.1-3.1s3.1,1.4,3.1,3.1
		S13.1,16.6,11.4,16.6z"/>
	<path fill="#00ADED" d="M46.7,27.6c0.1,0,0.3,0.1,0.4,0.1c0.4,0,0.8-0.2,1-0.7c0.5-1.2,0.9-2.6,1.2-4.2c0.1-0.6-0.3-1.1-0.8-1.2
		c-0.6-0.1-1.1,0.3-1.2,0.8c-0.3,1.4-0.6,2.7-1.1,3.8C45.9,26.8,46.2,27.4,46.7,27.6z"/>
	<path fill="#00ADED" d="M13.3,32.5c-1.3,0.8-2.4,1.8-3.4,2.9c-0.4,0.4-0.3,1.1,0.1,1.5c0.2,0.2,0.4,0.2,0.7,0.2
		c0.3,0,0.6-0.1,0.8-0.4c0.8-1,1.8-1.8,2.9-2.5c0.5-0.3,0.6-0.9,0.3-1.4S13.8,32.2,13.3,32.5z"/>
	<path fill="#00ADED" d="M8.9,38.6c-0.5-0.2-1.1,0-1.4,0.5c-1.1,2.3-1.3,4.2-1.3,4.2c-0.1,0.6,0.3,1.1,0.9,1.2c0,0,0.1,0,0.1,0
		c0.5,0,1-0.4,1-0.9c0,0,0.2-1.7,1.2-3.7C9.7,39.5,9.5,38.9,8.9,38.6z"/>
	<path fill="#00ADED" d="M41.9,33.9c0.2,0,0.3,0,0.5-0.1c1.3-0.7,2.5-1.7,3.5-2.9c0.4-0.4,0.3-1.1-0.2-1.5c-0.4-0.4-1.1-0.3-1.5,0.2
		c-0.8,1-1.8,1.8-2.8,2.3c-0.5,0.3-0.7,0.9-0.5,1.4C41.1,33.7,41.5,33.9,41.9,33.9z"/>
	<path fill="#00ADED" d="M30.2,31.5c-0.5-0.2-0.7-0.3-0.7-0.3c-0.1,0-0.1-0.1-0.2-0.1c-1.1-0.3-2.2-0.5-3.3-0.7
		c-0.6-0.1-1.1,0.3-1.2,0.9c-0.1,0.6,0.3,1.1,0.9,1.2c1,0.1,2,0.4,3,0.6c0.1,0.1,0.4,0.2,0.8,0.3c0.1,0.1,0.3,0.1,0.4,0.1
		c0.4,0,0.8-0.2,1-0.6C31,32.4,30.8,31.7,30.2,31.5z"/>
	<path fill="#00ADED" d="M48.6,19.6C48.6,19.6,48.7,19.6,48.6,19.6c0.6,0,1.1-0.4,1.1-1c0.1-1,0.1-2,0.1-3.1c0-0.4,0-0.7,0-1.1
		c0-0.6-0.5-1-1.1-1c-0.6,0-1,0.5-1,1.1c0,0.4,0,0.7,0,1.1c0,1,0,2-0.1,3C47.6,19.1,48,19.6,48.6,19.6z"/>
	<path fill="#00ADED" d="M8.6,28.7C8.8,28.9,9.1,29,9.3,29c0.3,0,0.5-0.1,0.7-0.3l1.3-1.3l1.3,1.3c0.2,0.2,0.5,0.3,0.7,0.3
		c0.3,0,0.5-0.1,0.7-0.3c0.4-0.4,0.4-1.1,0-1.5l-1.3-1.3l1.3-1.3c0.4-0.4,0.4-1.1,0-1.5s-1.1-0.4-1.5,0l-1.3,1.3l-1.3-1.3
		c-0.4-0.4-1.1-0.4-1.5,0s-0.4,1.1,0,1.5l1.3,1.3l-1.3,1.3C8.2,27.6,8.2,28.3,8.6,28.7z"/>
</g>
</svg>
