<?xml version="1.0" encoding="utf-8"?>
<!-- Generator: Adobe Illustrator 19.2.1, SVG Export Plug-In . SVG Version: 6.00 Build 0)  -->
<svg version="1.1" id="Layer_1" xmlns="http://www.w3.org/2000/svg" xmlns:xlink="http://www.w3.org/1999/xlink" x="0px" y="0px"
	 width="40px" height="40px" viewBox="0 0 40 40" enable-background="new 0 0 40 40" xml:space="preserve">
<path fill="#FFFFFF" d="M20,0C9,0,0,9,0,20s9,20,20,20s20-9,20-20S31,0,20,0z M28.6,29.3H11.4c-0.8,0-1.4-0.6-1.4-1.4
	c0-0.8,0.6-1.4,1.4-1.4h17.1c0.8,0,1.4,0.6,1.4,1.4C30,28.6,29.4,29.3,28.6,29.3z M28.6,21.4H11.4c-0.8,0-1.4-0.6-1.4-1.4
	s0.6-1.4,1.4-1.4h17.1c0.8,0,1.4,0.6,1.4,1.4S29.4,21.4,28.6,21.4z M28.6,13.6H11.4c-0.8,0-1.4-0.6-1.4-1.4c0-0.8,0.6-1.4,1.4-1.4
	h17.1c0.8,0,1.4,0.6,1.4,1.4C30,12.9,29.4,13.6,28.6,13.6z"/>
</svg>
