<?xml version="1.0" encoding="utf-8"?>
<!-- Generator: Adobe Illustrator 19.2.1, SVG Export Plug-In . SVG Version: 6.00 Build 0)  -->
<svg version="1.1" id="Layer_1" xmlns="http://www.w3.org/2000/svg" xmlns:xlink="http://www.w3.org/1999/xlink" x="0px" y="0px"
	 width="61.8px" height="61.8px" viewBox="0 0 61.8 61.8" enable-background="new 0 0 61.8 61.8" xml:space="preserve">
<g>
	<path fill="#00ADED" d="M52.7,9c-5.8-5.8-13.6-9-21.8-9S14.9,3.2,9,9c-5.8,5.8-9,13.6-9,21.8s3.2,16,9,21.8c5.8,5.8,13.6,9,21.8,9
		s16-3.2,21.8-9c5.8-5.8,9-13.6,9-21.8S58.6,14.9,52.7,9z M51.5,51.5C46,56.9,38.7,60,30.9,60s-15.1-3-20.6-8.5
		C4.8,46,1.8,38.7,1.8,30.9s3-15.1,8.5-20.6c5.5-5.5,12.8-8.5,20.6-8.5s15.1,3,20.6,8.5c5.5,5.5,8.5,12.8,8.5,20.6
		S56.9,46,51.5,51.5z"/>
	<path fill="#00ADED" d="M50.2,12.6c-0.8-0.6-1.8-0.5-2.5,0.1l-14,14c0,0,0,0,0,0l-0.8,0.8c-1.2-0.7-2.7-0.7-3.9,0l-0.5-0.5l1-5
		c0.2-1.2-0.3-2.4-1.3-3l-13.1-8c-0.8-0.5-1.9-0.3-2.5,0.4c-0.6,0.8-0.5,1.8,0.1,2.5l14,14c0,0,0,0,0,0l0.8,0.8
		c-0.7,1.2-0.7,2.7,0,3.9l-0.5,0.5l-5-1c-1.2-0.2-2.4,0.3-3,1.3l-8,13.1c-0.5,0.8-0.3,1.9,0.4,2.5c0.3,0.3,0.8,0.4,1.2,0.4
		c0.5,0,1-0.2,1.3-0.6l14-14c0,0,0,0,0,0l0.8-0.8c0.6,0.4,1.3,0.6,2,0.6c0.7,0,1.4-0.2,2-0.6l0.5,0.5l-1,5c-0.2,1.2,0.3,2.4,1.3,3
		l13.1,8c0.3,0.2,0.7,0.3,1,0.3c0.6,0,1.1-0.2,1.5-0.7c0.6-0.8,0.5-1.8-0.1-2.5l-14-14c0,0,0,0,0,0l-0.8-0.8c0.7-1.2,0.7-2.7,0-3.9
		l0.5-0.5l5,1c1.2,0.2,2.4-0.3,3-1.3l8-13.1C51.2,14.3,51,13.2,50.2,12.6z M12.8,47.7C12.8,47.7,12.7,47.8,12.8,47.7
		c-0.1,0-0.1,0-0.1,0C12.7,47.7,12.7,47.7,12.8,47.7l7.9-13.2c0.2-0.3,0.5-0.5,0.9-0.5c0.1,0,0.1,0,0.2,0l3.9,0.8L12.8,47.7z
		 M14.1,12.8C14,12.8,14,12.7,14.1,12.8L14.1,12.8c0-0.1,0-0.1,0-0.1C14.1,12.7,14.1,12.7,14.1,12.8l13.2,7.9
		c0.4,0.2,0.6,0.7,0.5,1.1l-0.8,3.9L14.1,12.8z M29.5,32.3c-0.8-0.8-0.8-2,0-2.8c0.4-0.4,0.9-0.6,1.4-0.6s1,0.2,1.4,0.6
		c0.8,0.8,0.8,2,0,2.8C31.5,33.1,30.3,33.1,29.5,32.3z M47.7,49C47.7,49,47.8,49,47.7,49c0,0.1,0,0.1,0,0.1
		C47.7,49.1,47.7,49.1,47.7,49l-13.2-7.9c-0.4-0.2-0.6-0.7-0.5-1.1l0.8-3.9L47.7,49z M49.1,14.1l-8,13.1c-0.2,0.4-0.7,0.6-1.1,0.5
		l-3.9-0.8L49.1,14.1C49,14,49,14,49,14C49.1,14,49.1,14.1,49.1,14.1C49.1,14.1,49.1,14.1,49.1,14.1z"/>
	<path fill="#00ADED" d="M30.9,30c-0.2,0-0.5,0.1-0.6,0.3c-0.2,0.2-0.3,0.4-0.3,0.6s0.1,0.5,0.3,0.6c0.2,0.2,0.4,0.3,0.6,0.3
		s0.5-0.1,0.6-0.3c0.2-0.2,0.3-0.4,0.3-0.6c0-0.2-0.1-0.5-0.3-0.6C31.4,30.1,31.1,30,30.9,30z"/>
</g>
</svg>
