<?xml version="1.0" encoding="utf-8"?>
<!-- Generator: Adobe Illustrator 19.2.1, SVG Export Plug-In . SVG Version: 6.00 Build 0)  -->
<svg version="1.1" id="Capa_1" xmlns="http://www.w3.org/2000/svg" xmlns:xlink="http://www.w3.org/1999/xlink" x="0px" y="0px"
	 width="432.5px" height="432.5px" viewBox="0 0 432.5 432.5" style="enable-background:new 0 0 432.5 432.5;" xml:space="preserve"
	>
<g>
	<path d="M0,255.8c0,10.1,3.5,18.6,10.6,25.7L150.7,422c7.4,7,16.1,10.6,26,10.6c10.1,0,18.7-3.5,25.7-10.6l204.1-204.4
		c7.2-7,13.4-16.7,18.4-28.8c5-12.2,7.6-23.3,7.6-33.4V36.5c0-9.9-3.6-18.5-10.8-25.7C414.5,3.6,405.9,0,396,0L277.2,0
		c-10.1,0-21.2,2.5-33.4,7.6c-12.2,5-21.9,11.2-29.1,18.4L10.6,229.8C3.5,237.3,0,245.9,0,255.8z M304.6,91.4
		c0-10.1,3.6-18.7,10.7-25.8c7.1-7.1,15.8-10.7,25.8-10.7c10.1,0,18.7,3.6,25.8,10.7c7.1,7.1,10.7,15.7,10.7,25.8
		c0,10.1-3.6,18.7-10.7,25.8c-7.1,7.1-15.8,10.7-25.8,10.7c-10.1,0-18.7-3.6-25.8-10.7C308.2,110.1,304.6,101.5,304.6,91.4z"/>
</g>
</svg>
