<?xml version="1.0" encoding="utf-8"?>
<!-- Generator: Adobe Illustrator 19.2.1, SVG Export Plug-In . SVG Version: 6.00 Build 0)  -->
<svg version="1.1" id="Layer_1" xmlns="http://www.w3.org/2000/svg" xmlns:xlink="http://www.w3.org/1999/xlink" x="0px" y="0px"
	 width="24px" height="24px" viewBox="0 0 24 24" enable-background="new 0 0 24 24" xml:space="preserve">
<g>
	<g>
		<polygon fill="#4D4D4D" points="6.3,12.9 7.3,12.9 7.3,18 8.2,18 8.2,12.9 9.1,12.9 9.1,12 6.3,12 		"/>
		<path fill="#4D4D4D" d="M13.9,13.5c-0.3,0-0.6,0.2-0.8,0.5v-2h-0.8v6h0.8v-0.4c0.3,0.3,0.5,0.5,0.8,0.5c0.3,0,0.5-0.2,0.6-0.5
			c0.1-0.2,0.1-0.5,0.1-0.9v-1.8c0-0.4,0-0.7-0.1-0.9C14.4,13.7,14.2,13.5,13.9,13.5z M13.8,16.8c0,0.4-0.1,0.6-0.4,0.6
			c-0.1,0-0.3-0.1-0.4-0.2v-2.7c0.1-0.1,0.3-0.2,0.4-0.2c0.2,0,0.4,0.2,0.4,0.6V16.8z"/>
		<path fill="#4D4D4D" d="M10.8,17c-0.2,0.3-0.3,0.4-0.5,0.4c-0.1,0-0.2-0.1-0.2-0.2c0,0,0-0.1,0-0.3v-3.3H9.2v3.5
			c0,0.3,0,0.5,0.1,0.7c0.1,0.2,0.3,0.3,0.5,0.3c0.3,0,0.6-0.2,0.9-0.5V18h0.8v-4.5h-0.8V17z"/>
		<path fill="#4D4D4D" d="M11.4,9.4c0.3,0,0.4-0.2,0.4-0.6V6.9c0-0.4-0.1-0.6-0.4-0.6c-0.3,0-0.4,0.2-0.4,0.6v1.9
			C11.1,9.2,11.2,9.4,11.4,9.4z"/>
		<path fill="#4D4D4D" d="M12,0C5.4,0,0,5.4,0,12s5.4,12,12,12s12-5.4,12-12S18.6,0,12,0z M13.3,5.6h0.8v3.3c0,0.2,0,0.3,0,0.3
			c0,0.1,0.1,0.2,0.2,0.2c0.2,0,0.3-0.1,0.5-0.4V5.6h0.8v4.5h-0.8V9.6c-0.3,0.4-0.6,0.6-0.9,0.6c-0.3,0-0.4-0.1-0.5-0.3
			c0-0.1-0.1-0.4-0.1-0.7V5.6L13.3,5.6z M10.2,7.1c0-0.5,0.1-0.8,0.3-1.1c0.2-0.3,0.5-0.5,1-0.5c0.4,0,0.7,0.2,1,0.5
			c0.2,0.2,0.3,0.6,0.3,1.1v1.6c0,0.5-0.1,0.8-0.3,1.1c-0.2,0.3-0.5,0.5-1,0.5c-0.4,0-0.7-0.2-1-0.5c-0.2-0.2-0.3-0.6-0.3-1.1V7.1z
			 M8.1,4.1l0.6,2.4l0.6-2.4h0.9L9.1,7.7v2.5H8.2V7.7C8.2,7.2,8,6.6,7.7,5.8C7.5,5.2,7.3,4.6,7.1,4.1L8.1,4.1z M18.5,18.4
			c-0.2,0.7-0.7,1.2-1.4,1.3c-1.7,0.2-3.3,0.2-5,0.2c-1.7,0-3.4,0-5-0.2c-0.7-0.1-1.3-0.6-1.4-1.3c-0.2-1-0.2-2.1-0.2-3.2
			s0-2.1,0.2-3.2c0.2-0.7,0.7-1.2,1.4-1.3c1.7-0.2,3.3-0.2,5-0.2c1.7,0,3.4,0,5,0.2c0.7,0.1,1.3,0.6,1.4,1.3c0.2,1,0.2,2.1,0.2,3.2
			S18.7,17.4,18.5,18.4z"/>
		<path fill="#4D4D4D" d="M16.5,13.5c-0.4,0-0.7,0.2-1,0.5c-0.2,0.2-0.2,0.6-0.2,1.1v1.6c0,0.5,0.1,0.8,0.3,1c0.2,0.3,0.6,0.5,1,0.5
			c0.4,0,0.8-0.2,1-0.5c0.1-0.1,0.2-0.3,0.2-0.5c0-0.1,0-0.3,0-0.5v-0.1h-0.8c0,0.3,0,0.5,0,0.5c0,0.2-0.2,0.3-0.4,0.3
			c-0.3,0-0.4-0.2-0.4-0.6v-0.8h1.6V15c0-0.5-0.1-0.8-0.3-1.1C17.2,13.7,16.9,13.5,16.5,13.5z M16.9,15.3h-0.8v-0.4
			c0-0.4,0.1-0.6,0.4-0.6c0.3,0,0.4,0.2,0.4,0.6V15.3z"/>
	</g>
</g>
</svg>
