<svg xmlns="http://www.w3.org/2000/svg" viewBox="2510 237.43 120 118.288">
  <defs>
    <style>
      .cls-1 {
        fill: #414141;
      }
    </style>
  </defs>
  <g id="curved-arrow-with-broken-line" transform="translate(2510 234.826)">
    <g id="Group_21" data-name="Group 21" transform="translate(0 2.604)">
      <path id="Path_15" data-name="Path 15" class="cls-1" d="M35.944,2.823c-1.207.8-2.816,1.006-3.822,2.012a1.509,1.509,0,0,0,0,2.414c.8.4,1.811,0,2.615-.2a1.1,1.1,0,0,0,.8-1.207,5.423,5.423,0,0,0,1.609-1.408C37.955,3.628,36.949,2.018,35.944,2.823Z" transform="translate(-21.158 -2.604)"/>
      <path id="Path_16" data-name="Path 16" class="cls-1" d="M9,39.113a27.46,27.46,0,0,0-3.42,3.42c-1.006,1.207-2.213,2.816-2.213,4.225,0,.8,1.006,1.207,1.408.6,1.006-1.006,1.207-2.615,2.012-3.822A16.991,16.991,0,0,1,9.8,39.918C10.206,39.314,9.4,38.711,9,39.113Z" transform="translate(-2.26 -27.025)"/>
      <path id="Path_17" data-name="Path 17" class="cls-1" d="M1.911,82.853a21.927,21.927,0,0,1-.6-5.23.506.506,0,0,0-1.006,0c0,2.414-1.207,7.242,1.207,8.851.4.4,1.006-.2,1.006-.6A16.037,16.037,0,0,0,1.911,82.853Z" transform="translate(0 -52.66)"/>
      <path id="Path_18" data-name="Path 18" class="cls-1" d="M20.74,116.371c-3.219.4-6.035,1.006-9.053-.6-.4-.2-.6.2-.2.4,3.018,2.213,6.437,3.219,9.857,1.408C22.148,117.175,21.343,116.169,20.74,116.371Z" transform="translate(-7.563 -78.533)"/>
      <path id="Path_19" data-name="Path 19" class="cls-1" d="M66.218,85.727a19.333,19.333,0,0,0-4.225,2.816,40.226,40.226,0,0,0-4.426,3.822c-.4.4.2,1.207.8.8A29.988,29.988,0,0,1,62.4,90.152c1.408-1.006,3.219-1.81,4.426-3.017C67.425,86.531,67.023,85.324,66.218,85.727Z" transform="translate(-38.558 -58.35)"/>
      <path id="Path_20" data-name="Path 20" class="cls-1" d="M105.168,41.763c-3.621,1.408-7.041,4.828-9.656,7.644a.57.57,0,0,0,.8.8,51.5,51.5,0,0,1,5.23-4.023,32.064,32.064,0,0,0,4.224-3.017C106.375,42.367,105.771,41.562,105.168,41.763Z" transform="translate(-64.029 -28.87)"/>
      <path id="Path_21" data-name="Path 21" class="cls-1" d="M157.514,19.144c-3.621-.2-7.242,1.207-10.461,2.414a.516.516,0,0,0,.2,1.006,45.368,45.368,0,0,1,10.259-1.609C158.52,20.753,158.52,19.144,157.514,19.144Z" transform="translate(-98.472 -13.694)"/>
      <path id="Path_22" data-name="Path 22" class="cls-1" d="M209.818,31.858a29.131,29.131,0,0,0-3.621-3.42,1,1,0,0,0-1.408,1.408c1.006,1.006,2.012,2.213,3.017,3.42s2.012,3.018,3.42,4.023a.84.84,0,0,0,1.207-1.006C212.433,34.674,211.025,33.065,209.818,31.858Z" transform="translate(-137.298 -19.77)"/>
      <path id="Path_23" data-name="Path 23" class="cls-1" d="M224.448,71.194c0-.8-1.408-.8-1.408,0a58.878,58.878,0,0,1-1.006,5.834c-.4,1.811-1.408,3.621-1.408,5.633a.944.944,0,0,0,1.811.4C224.247,79.644,224.649,74.815,224.448,71.194Z" transform="translate(-148.105 -48.243)"/>
      <path id="Path_24" data-name="Path 24" class="cls-1" d="M194.845,133.478l-3.018,4.224c-.8,1.408-2.213,2.816-2.414,4.426,0,.8.8,1.006,1.408.8,1.408-.6,2.012-2.414,2.615-3.621,1.006-1.609,1.811-3.42,2.816-5.029A.812.812,0,0,0,194.845,133.478Z" transform="translate(-127.152 -90.209)"/>
      <path id="Path_25" data-name="Path 25" class="cls-1" d="M161.241,178.639a25.619,25.619,0,0,0-4.426,5.029c-1.207,1.811-2.816,4.426-2.414,6.639a.966.966,0,0,0,1.81.4c1.006-1.408,1.207-3.42,1.811-5.029a21.946,21.946,0,0,1,3.822-6.639C162.247,178.84,161.643,178.236,161.241,178.639Z" transform="translate(-103.607 -120.684)"/>
      <path id="Path_26" data-name="Path 26" class="cls-1" d="M126.753,238.448a20.341,20.341,0,0,0-4.426,5.633c-1.207,2.213-2.615,5.03-2.213,7.444a.888.888,0,0,0,1.609.2c1.207-1.811,1.207-4.225,2.012-6.236a23.652,23.652,0,0,1,3.822-6.437C127.96,238.649,127.357,237.844,126.753,238.448Z" transform="translate(-80.586 -160.779)"/>
      <path id="Path_27" data-name="Path 27" class="cls-1" d="M127.335,314.347a11.936,11.936,0,0,1-3.621-2.615,11.905,11.905,0,0,1-1.408-5.834.506.506,0,0,0-1.006,0c-.4,3.822.4,10.46,5.633,10.26C127.737,315.956,128.14,314.75,127.335,314.347Z" transform="translate(-81.368 -205.9)"/>
      <path id="Path_28" data-name="Path 28" class="cls-1" d="M174.562,348.934c-2.213-.2-4.426.2-6.638.2a14.525,14.525,0,0,1-7.645-2.615c-.4-.2-.6.4-.4.6,4.224,3.219,10.059,6.035,15.289,3.822A1.094,1.094,0,0,0,174.562,348.934Z" transform="translate(-107.272 -233.446)"/>
      <path id="Path_29" data-name="Path 29" class="cls-1" d="M237.116,312.145c-1.408.8-2.615,2.012-4.224,3.018a12.382,12.382,0,0,1-4.627,1.408c-1.006.2-1.006,1.609,0,1.609,3.621.2,8.248-1.006,10.259-4.426C239.329,312.749,238.122,311.743,237.116,312.145Z" transform="translate(-152.727 -210.337)"/>
      <path id="Path_30" data-name="Path 30" class="cls-1" d="M266.735,275.013c-2.615,2.615-5.431,5.432-7.242,8.65-.6,1.006.8,1.609,1.408.8,2.213-2.816,5.834-4.828,7.444-8.248C268.546,275.215,267.54,274.209,266.735,275.013Z" transform="translate(-174.098 -185.275)"/>
      <path id="Path_31" data-name="Path 31" class="cls-1" d="M309.753,269.239c-.6-1.207-2.213-2.012-3.42-2.615a11.8,11.8,0,0,0-4.627-.8.706.706,0,1,0,0,1.408,8.322,8.322,0,0,1,3.822,1.006c1.006.6,1.811,1.609,2.816,2.213A.966.966,0,0,0,309.753,269.239Z" transform="translate(-202.028 -179.3)"/>
      <path id="Path_32" data-name="Path 32" class="cls-1" d="M336.581,268.14c-2.816-4.627-4.627-9.857-7.041-14.685-1.207-2.213-4.426-.2-3.42,2.012,1.81,4.023,3.42,8.248,5.834,12.07-1.81.2-3.621.4-5.633.6-.8.2-2.213.2-2.816,1.006l-.2.2a.2.2,0,0,0-.2.2.771.771,0,0,0,.4,1.207h0c.2.2.4.2.8.2a17.2,17.2,0,0,0,3.219,0,48.5,48.5,0,0,1,7.644-.2C336.379,270.956,337.184,269.347,336.581,268.14Z" transform="translate(-216.786 -170.355)"/>
    </g>
  </g>
</svg>
