<svg xmlns="http://www.w3.org/2000/svg" viewBox="3090.715 424.871 57.435 16.49">
  <defs>
    <style>
      .cls-1 {
        fill: #414141;
      }
    </style>
  </defs>
  <g id="up-broken-line-arrow" transform="translate(3154.538 303.505) rotate(93)">
    <g id="Group_22" data-name="Group 22" transform="translate(122.045 0)">
      <path id="Path_33" data-name="Path 33" class="cls-1" d="M161.943,301.6a.674.674,0,0,0-1.133,0c-.515.618-.309,1.339-.309,2.162a15.713,15.713,0,0,1-.309,3.089c-.206.824,1.03,1.133,1.339.412a11.274,11.274,0,0,0,.618-2.677C162.252,303.561,162.561,302.429,161.943,301.6Z" transform="translate(-153.755 -250.607)"/>
      <path id="Path_34" data-name="Path 34" class="cls-1" d="M160.941,258.594a10.785,10.785,0,0,1-.412-1.75,2.8,2.8,0,0,0,0-.927,2.7,2.7,0,0,0-.309-.824.674.674,0,0,0-1.133,0,2.584,2.584,0,0,0-.1,1.956,8.2,8.2,0,0,0,.721,2.059A.682.682,0,0,0,160.941,258.594Z" transform="translate(-152.65 -211.92)"/>
      <path id="Path_35" data-name="Path 35" class="cls-1" d="M160.364,201.007a.686.686,0,0,0-1.03,0c-.412.515-.309.927-.309,1.544s.1,1.133.1,1.75a.618.618,0,1,0,1.236,0c0-.515.1-1.03.1-1.545C160.673,202.139,160.879,201.624,160.364,201.007Z" transform="translate(-152.794 -166.997)"/>
      <path id="Path_36" data-name="Path 36" class="cls-1" d="M157.678,155.523c-.412-1.133-.206-2.265-.515-3.4a.715.715,0,0,0-1.339,0,4.637,4.637,0,0,0,.721,3.81C156.855,156.553,157.884,156.141,157.678,155.523Z" transform="translate(-150.006 -126.147)"/>
      <path id="Path_37" data-name="Path 37" class="cls-1" d="M157.095,95.512a.626.626,0,0,0-.824,0c-.618.618-.412,1.441-.412,2.265a16.683,16.683,0,0,0,.1,2.265.644.644,0,0,0,1.236,0,13.8,13.8,0,0,0,.1-2.059A2.626,2.626,0,0,0,157.095,95.512Z" transform="translate(-150.143 -79.315)"/>
      <path id="Path_38" data-name="Path 38" class="cls-1" d="M152.909,43.644a.856.856,0,0,0-.824,1.133,23.68,23.68,0,0,1,.309,2.677.608.608,0,0,0,1.133,0,11.222,11.222,0,0,1,.309-2.677A.973.973,0,0,0,152.909,43.644Z" transform="translate(-146.987 -36.301)"/>
      <path id="Path_39" data-name="Path 39" class="cls-1" d="M137.748,6.931a30.448,30.448,0,0,0-8.134-6.8.953.953,0,0,0-1.236.206c-2.162,2.574-3.81,5.457-6.075,7.928-.824.824.515,2.059,1.236,1.236,2.059-2.265,3.6-4.942,5.663-7.207,2.677,1.647,4.53,4.015,6.9,6.178A1.13,1.13,0,0,0,137.748,6.931Z" transform="translate(-122.045 0)"/>
    </g>
  </g>
</svg>
