<svg xmlns="http://www.w3.org/2000/svg" viewBox="2691 1736 103.925 79.082">
  <defs>
    <style>
      .cls-1 {
        fill: #414141;
      }
    </style>
  </defs>
  <g id="bionic-contact-lens" transform="translate(2691 1736)">
    <path id="Path_84" data-name="Path 84" class="cls-1" d="M76.511,68.5a65.324,65.324,0,0,1,66.194,0,1.658,1.658,0,0,0,1.684-2.857,68.641,68.641,0,0,0-69.562,0A1.658,1.658,0,0,0,76.511,68.5Z" transform="translate(-57.646 -56.177)"/>
    <path id="Path_85" data-name="Path 85" class="cls-1" d="M142.7,357.287a65.323,65.323,0,0,1-66.194,0,1.658,1.658,0,1,0-1.684,2.857,68.639,68.639,0,0,0,69.562,0,1.658,1.658,0,0,0-1.684-2.857Z" transform="translate(-57.645 -290.527)"/>
    <path id="Path_86" data-name="Path 86" class="cls-1" d="M103.7,126.043a59.741,59.741,0,0,0-103.479,0,1.659,1.659,0,0,0,0,1.661,59.741,59.741,0,0,0,103.479,0A1.659,1.659,0,0,0,103.7,126.043Zm-78.827.831A27.087,27.087,0,1,1,51.963,153.96,27.117,27.117,0,0,1,24.876,126.873Zm-21.292,0a56.666,56.666,0,0,1,30.182-24.342,30.374,30.374,0,0,0,0,48.684A56.665,56.665,0,0,1,3.584,126.873ZM70.16,151.215a30.374,30.374,0,0,0,0-48.684,56.667,56.667,0,0,1,30.182,24.342A56.666,56.666,0,0,1,70.16,151.215Z" transform="translate(0 -87.332)"/>
    <path id="Path_87" data-name="Path 87" class="cls-1" d="M215.214,208.028h-3.87v-3.87a1.658,1.658,0,1,0-3.317,0v3.87h-3.87a1.658,1.658,0,1,0,0,3.317h3.87v3.87a1.658,1.658,0,1,0,3.317,0v-3.87h3.87a1.658,1.658,0,1,0,0-3.317Z" transform="translate(-157.724 -170.145)"/>
    <path id="Path_88" data-name="Path 88" class="cls-1" d="M174.637,157.5a17.137,17.137,0,1,0,17.137,17.137A17.156,17.156,0,0,0,174.637,157.5Zm0,30.956a13.82,13.82,0,1,1,13.82-13.82A13.835,13.835,0,0,1,174.637,188.456Z" transform="translate(-122.674 -135.096)"/>
    <path id="Path_89" data-name="Path 89" class="cls-1" d="M325.529,209.488a20.645,20.645,0,0,1,0,8.185,1.658,1.658,0,1,0,3.251.659,23.979,23.979,0,0,0,0-9.5,1.658,1.658,0,0,0-3.251.659Z" transform="translate(-253.523 -174.04)"/>
    <path id="Path_90" data-name="Path 90" class="cls-1" d="M131.227,217.673a20.645,20.645,0,0,1,0-8.185,1.658,1.658,0,1,0-3.251-.66,23.978,23.978,0,0,0,0,9.5,1.659,1.659,0,0,0,1.624,1.329,1.686,1.686,0,0,0,.331-.033A1.659,1.659,0,0,0,131.227,217.673Z" transform="translate(-99.308 -174.04)"/>
    <path id="Path_91" data-name="Path 91" class="cls-1" d="M209.488,131.234a20.74,20.74,0,0,1,8.185,0,1.659,1.659,0,0,0,.66-3.251,24.085,24.085,0,0,0-9.5,0,1.659,1.659,0,0,0,.659,3.251Z" transform="translate(-161.618 -111.737)"/>
    <path id="Path_92" data-name="Path 92" class="cls-1" d="M217.672,325.53a20.74,20.74,0,0,1-8.185,0,1.658,1.658,0,1,0-.66,3.251,23.978,23.978,0,0,0,9.5,0,1.658,1.658,0,0,0-.659-3.251Z" transform="translate(-161.617 -265.946)"/>
    <path id="Path_93" data-name="Path 93" class="cls-1" d="M291.481,282.928a1.659,1.659,0,0,0-2.3.466,20.649,20.649,0,0,1-5.788,5.788,1.658,1.658,0,1,0,1.832,2.765,23.964,23.964,0,0,0,6.721-6.721A1.658,1.658,0,0,0,291.481,282.928Z" transform="translate(-220.153 -232.575)"/>
    <path id="Path_94" data-name="Path 94" class="cls-1" d="M144.8,153.358a1.658,1.658,0,0,0,2.3-.466,20.648,20.648,0,0,1,5.788-5.788,1.658,1.658,0,0,0-1.832-2.765,23.964,23.964,0,0,0-6.721,6.721A1.658,1.658,0,0,0,144.8,153.358Z" transform="translate(-112.207 -124.63)"/>
    <path id="Path_95" data-name="Path 95" class="cls-1" d="M283.394,147.1a20.646,20.646,0,0,1,5.788,5.788,1.658,1.658,0,1,0,2.765-1.832,23.965,23.965,0,0,0-6.721-6.721,1.658,1.658,0,1,0-1.832,2.765Z" transform="translate(-220.152 -124.627)"/>
    <path id="Path_96" data-name="Path 96" class="cls-1" d="M152.891,289.183a20.647,20.647,0,0,1-5.788-5.788,1.658,1.658,0,1,0-2.765,1.832,23.964,23.964,0,0,0,6.721,6.721,1.658,1.658,0,1,0,1.832-2.765Z" transform="translate(-112.207 -232.575)"/>
  </g>
</svg>
