<svg xmlns="http://www.w3.org/2000/svg" viewBox="2459 1394 86.589 40.499">
  <defs>
    <style>
      .cls-1 {
        fill: #414141;
      }
    </style>
  </defs>
  <g id="drone" transform="translate(2459 1258)">
    <path id="Path_80" data-name="Path 80" class="cls-1" d="M85.318,140.067H74.389v-.085a3.982,3.982,0,0,0-7.964,0v.085H55.5a1.271,1.271,0,1,0,0,2.542h9.574v1.44c0,.028,0,.056,0,.085H21.518c0-.028,0-.056,0-.085v-1.44h9.574a1.271,1.271,0,1,0,0-2.542H20.165v-.085a3.982,3.982,0,0,0-7.964,0v.085H1.271a1.271,1.271,0,1,0,0,2.542h9.574v1.44a5.336,5.336,0,0,0,9.982,2.626h8l1.186,3.557a6.685,6.685,0,0,0,6.35,4.577h5.666v2.881H35.161a5.344,5.344,0,0,0-5.338,5.338v8.134a5.344,5.344,0,0,0,5.338,5.338H51.428a5.344,5.344,0,0,0,5.338-5.338v-8.134a5.344,5.344,0,0,0-5.338-5.338H44.566v-2.881h5.666a6.685,6.685,0,0,0,6.35-4.577l1.186-3.557h8a5.336,5.336,0,0,0,9.982-2.626v-1.44h9.574a1.271,1.271,0,1,0,0-2.542Zm-70.576-.085a1.44,1.44,0,0,1,2.881,0v.085H14.742Zm1.44,6.863a2.8,2.8,0,0,1-2.8-2.8v-1.44h5.592v1.44A2.8,2.8,0,0,1,16.183,146.845Zm38.042,16.183v8.134a2.8,2.8,0,0,1-2.8,2.8H35.161a2.8,2.8,0,0,1-2.8-2.8v-8.134a2.8,2.8,0,0,1,2.8-2.8H51.428A2.8,2.8,0,0,1,54.224,163.027Zm-.055-13.6a4.146,4.146,0,0,1-3.939,2.839H36.358a4.146,4.146,0,0,1-3.939-2.839l-.918-2.753H55.087Zm14.8-9.447a1.44,1.44,0,0,1,2.881,0v.085H68.966Zm4.236,4.067a2.8,2.8,0,0,1-5.592,0v-1.44H73.2Z"/>
    <path id="Path_81" data-name="Path 81" class="cls-1" d="M205.338,288a5.338,5.338,0,1,0,5.338,5.338A5.344,5.344,0,0,0,205.338,288Zm0,8.134a2.8,2.8,0,1,1,2.8-2.8A2.8,2.8,0,0,1,205.338,296.134Z" transform="translate(-166.11 -126.243)"/>
    <path id="Path_82" data-name="Path 82" class="cls-1" d="M281.271,290.542h1.356a1.271,1.271,0,0,0,0-2.542h-1.356a1.271,1.271,0,0,0,0,2.542Z" transform="translate(-232.554 -126.243)"/>
    <path id="Path_83" data-name="Path 83" class="cls-1" d="M225.271,312a1.273,1.273,0,1,0,.9.373A1.276,1.276,0,0,0,225.271,312Z" transform="translate(-186.043 -146.177)"/>
  </g>
</svg>
