<?xml version="1.0" encoding="utf-8"?>
<!-- Generator: Adobe Illustrator 21.1.0, SVG Export Plug-In . SVG Version: 6.00 Build 0)  -->
<svg version="1.1" id="Layer_1" xmlns="http://www.w3.org/2000/svg" xmlns:xlink="http://www.w3.org/1999/xlink" x="0px" y="0px"
	 viewBox="0 0 50 44" style="enable-background:new 0 0 50 44;" xml:space="preserve">
<style type="text/css">
	.st0{fill:#00ADED;}
</style>
<g id="_003-mozilla-firefox" transform="translate(7997 553.205)">
	<path id="Path_2218" class="st0" d="M-7947.3-539.8l-0.6,3.7c0,0-0.8-6.8-1.8-9.4c-1.5-3.9-2.2-3.9-2.2-3.9c0.6,1.3,0.9,2.6,0.8,4
		c0,0-1.8-5-6.7-6.6c-5.4-1.8-8.3-1.3-8.6-1.2h-0.1l0.1,0l0,0c0,0,5.9,1,7,2.5c-1.7,0-3.4,0.3-5,0.7c-0.1,0,9.2,1.2,11.1,10.4
		c0,0-1-2.1-2.3-2.5c0.8,3.2,0.7,6.5-0.2,9.7c-0.1,0.3-0.2-1.3-1.8-2c0.5,3.6,0,9.2-2.5,10.8c-0.2,0.1,1.5-5.6,0.4-3.4
		c-6.9,10.6-15.1,4.9-18.7,2.4c1.9,0.4,5.4-0.1,7-1.2h0c1.7-1.2,2.7-2,3.6-1.8s1.5-0.7,0.8-1.5c-1.2-1.3-3.1-1.8-4.8-1.3
		c-1.6,0.4-3.7,2.3-6.8,0.4c-2.4-1.4-2.6-2.6-2.6-3.4c0.1-0.3,0.1-0.5,0.2-0.8c0.3-0.8,1.1-1,1.6-1.2c0.8,0.1,1.5,0.4,2.2,0.7
		c0-0.2,0-0.6,0-0.9c0.1-0.3,0-0.7-0.1-1c-0.1-0.5-0.2-1-0.3-1.5l0,0h0c0,0,0,0,0,0l0,0c0,0,0,0,0,0c0-0.2,0.6-0.7,1.2-1.1
		c0.6-0.4,1.3-0.9,1.8-1.2c0.5-0.3,0.9-0.5,0.9-0.6l0.1-0.1l0,0l0,0c0.4-0.3,0.7-0.9,0.7-1.4c0,0,0,0,0,0c0,0,0,0,0-0.1
		c0,0,0,0,0-0.1s0,0,0,0c0,0,0-0.1,0-0.1c0,0,0,0,0,0c0-0.1,0-0.2,0-0.3c0,0,0-0.1,0-0.1v0v0l0,0l0,0l0,0l0,0
		c-0.1-0.2-0.4-0.3-1.7-0.3l0,0c-0.5,0-1.2,0-2.2,0c-1.6,0-2.5-1.6-2.8-2.2c0.3-2,1.6-3.8,3.4-4.7c0,0,0,0,0,0
		c0.4-0.2-4.4,0-6.5,2.8c-1.7-0.4-3.4-0.5-5.1-0.1c-0.3,0-0.7-0.1-1-0.1c-1.3-1.1-2.2-2.7-2.4-4.4l0,0c0,0,0,0,0-0.1
		c0,0-2.9,2.3-2.5,8.4c0,0.1,0,0.2,0,0.3c-0.5,0.7-0.9,1.4-1.2,2.2c-1,2.2-1.7,4.5-2,6.9c0.3-1,0.7-1.9,1.2-2.7
		c-0.8,2.9-1.1,6-0.8,9c0,0,0.1-1,0.3-2.3c0.4,3.5,1.5,6.8,3.3,9.8c3.7,6.8,10.5,11.2,18.2,11.7c1.3,0.1,2.6,0.1,3.9,0
		c0.1,0,0.2,0,0.4,0c1.5-0.1,3-0.3,4.5-0.7C-7945.1-515-7947.3-539.8-7947.3-539.8z"/>
</g>
</svg>
