<svg xmlns="http://www.w3.org/2000/svg" viewBox="3447.004 1736 94.849 80">
  <defs>
    <style>
      .cls-1 {
        fill: #414141;
      }
    </style>
  </defs>
  <g id="viewfinder" transform="translate(3447.004 1736)">
    <path id="Path_69" data-name="Path 69" class="cls-1" d="M87.517,40H7.332A7.34,7.34,0,0,0,0,47.332v65.336A7.34,7.34,0,0,0,7.332,120H87.517a7.34,7.34,0,0,0,7.332-7.332V47.332A7.34,7.34,0,0,0,87.517,40Zm4.548,72.668a4.553,4.553,0,0,1-4.548,4.548H7.332a4.553,4.553,0,0,1-4.548-4.548V47.332a4.553,4.553,0,0,1,4.548-4.548H87.517a4.553,4.553,0,0,1,4.548,4.548Z" transform="translate(0 -40)"/>
    <path id="Path_70" data-name="Path 70" class="cls-1" d="M84.362,120a4.362,4.362,0,1,0,4.362,4.362A4.367,4.367,0,0,0,84.362,120Zm0,5.94a1.578,1.578,0,1,1,1.578-1.578A1.579,1.579,0,0,1,84.362,125.94Z" transform="translate(-65.151 -105.151)"/>
    <path id="Path_71" data-name="Path 71" class="cls-1" d="M61.271,88H49.392A1.392,1.392,0,0,0,48,89.392v11.879a1.392,1.392,0,1,0,2.784,0V90.784H61.271a1.392,1.392,0,0,0,0-2.784Z" transform="translate(-39.09 -79.09)"/>
    <path id="Path_72" data-name="Path 72" class="cls-1" d="M397.271,88H385.392a1.392,1.392,0,0,0,0,2.784h10.487v10.487a1.392,1.392,0,1,0,2.784,0V89.392A1.392,1.392,0,0,0,397.271,88Z" transform="translate(-312.724 -79.09)"/>
    <path id="Path_73" data-name="Path 73" class="cls-1" d="M61.271,355.879H50.784V345.392a1.392,1.392,0,0,0-2.784,0v11.879a1.392,1.392,0,0,0,1.392,1.392H61.271a1.392,1.392,0,1,0,0-2.784Z" transform="translate(-39.09 -287.573)"/>
    <path id="Path_74" data-name="Path 74" class="cls-1" d="M397.271,344a1.392,1.392,0,0,0-1.392,1.392v10.487H385.392a1.392,1.392,0,0,0,0,2.784h11.879a1.392,1.392,0,0,0,1.392-1.392V345.392A1.392,1.392,0,0,0,397.271,344Z" transform="translate(-312.724 -287.573)"/>
    <path id="Path_75" data-name="Path 75" class="cls-1" d="M145.392,122.784h14.849a1.392,1.392,0,0,0,0-2.784H145.392a1.392,1.392,0,0,0,0,2.784Z" transform="translate(-117.271 -105.151)"/>
    <path id="Path_76" data-name="Path 76" class="cls-1" d="M149.847,152h-4.455a1.392,1.392,0,0,0,0,2.784h4.455a1.392,1.392,0,1,0,0-2.784Z" transform="translate(-117.271 -131.211)"/>
    <path id="Path_77" data-name="Path 77" class="cls-1" d="M404.362,378.784a1.392,1.392,0,1,0,0-2.784h-2.97a1.392,1.392,0,0,0,0,2.784Z" transform="translate(-325.754 -313.633)"/>
    <path id="Path_78" data-name="Path 78" class="cls-1" d="M330.3,376h-8.91a1.392,1.392,0,0,0,0,2.784h8.91a1.392,1.392,0,0,0,0-2.784Z" transform="translate(-260.603 -313.633)"/>
    <path id="Path_79" data-name="Path 79" class="cls-1" d="M224.241,215.425h-6.032v-6.032a1.392,1.392,0,1,0-2.784,0v6.032h-6.032a1.392,1.392,0,1,0,0,2.784h6.032v6.033a1.392,1.392,0,0,0,2.784,0v-6.033h6.032a1.392,1.392,0,1,0,0-2.784Z" transform="translate(-169.392 -176.817)"/>
  </g>
</svg>
